SplineFontDB: 3.2
FontName: MinecartLCD
FullName: Minecart LCD
FamilyName: Minecart LCD
Weight: Book
Copyright: Copyright (c) 2019 by Vasily Draigo aka Daymarius. All rights reserved.
Version: 1.00 November 19, 2019, initial release
ItalicAngle: 0
UnderlinePosition: 307
UnderlineWidth: 204
Ascent: 3584
Descent: 512
InvalidEm: 0
sfntRevision: 0x00010000
LayerCount: 3
Layer: 0 1 "Back" 1
Layer: 1 1 "Fore" 0
Layer: 2 0 "Back 2" 1
XUID: [1021 159 659223778 16143615]
StyleMap: 0x0000
FSType: 4
OS2Version: 3
OS2_WeightWidthSlopeOnly: 0
OS2_UseTypoMetrics: 0
CreationTime: 1574182464
ModificationTime: 1746440816
PfmFamily: 81
TTFWeight: 400
TTFWidth: 5
LineGap: 0
VLineGap: 0
Panose: 0 0 4 0 0 0 0 0 0 0
OS2TypoAscent: 3584
OS2TypoAOffset: 0
OS2TypoDescent: -512
OS2TypoDOffset: 0
OS2TypoLinegap: 0
OS2WinAscent: 5120
OS2WinAOffset: 0
OS2WinDescent: 1024
OS2WinDOffset: 0
HheadAscent: 5120
HheadAOffset: 0
HheadDescent: -1024
HheadDOffset: 0
OS2SubXSize: 2048
OS2SubYSize: 2048
OS2SubXOff: 0
OS2SubYOff: -256
OS2SupXSize: 2048
OS2SupYSize: 2048
OS2SupXOff: 0
OS2SupYOff: 2048
OS2StrikeYSize: 204
OS2StrikeYPos: 819
OS2CapHeight: 3584
OS2XHeight: 2560
OS2Vendor: 'DAY '
OS2CodePages: 00000005.00000000
OS2UnicodeRanges: 80000227.00000043.00000000.00000000
DEI: 91125
ShortTable: maxp 16
  1
  0
  314
  493
  29
  0
  0
  2
  0
  0
  0
  0
  0
  0
  0
  0
EndShort
LangName: 1033 "Copyright +AKkA 2019 by Vasily Draigo aka Daymarius. All rights reserved." "" "Regular" "Minecart LCD:Version 1.00" "" "Version 1.00 November 19, 2019, initial release" "" "" "Vasily Draigo aka Daymarius" "Vasily Draigo aka Daymarius" "Copyright +AKkA 2019 by Vasily Draigo aka Daymarius. All rights reserved." "" "" "" "" "" "" "" "" "Five big quacking zephyrs jolt my wax bed"
Encoding: UnicodeBmp
UnicodeInterp: none
NameList: AGL For New Fonts
DisplaySize: -48
AntiAlias: 1
FitToEm: 0
WinInfo: 0 51 19
Grid
-4768.99853516 5632 m 0
 -4768.99853516 -2560 l 1024
EndSplineSet
BeginChars: 65539 330

StartChar: .notdef
Encoding: 65536 -1 0
Width: 3268
GlyphClass: 1
Flags: W
LayerCount: 3
Fore
SplineSet
2687 50 m 1,0,-1
 1378 1772 l 1,1,-1
 69 50 l 1,2,-1
 2687 50 l 1,0,-1
50 69 m 1,3,-1
 1359 1792 l 1,4,-1
 50 3514 l 1,5,-1
 50 69 l 1,6,-1
 50 69 l 1,3,-1
2706 69 m 1,7,-1
 2706 3514 l 1,8,-1
 1397 1792 l 1,9,-1
 2706 69 l 1,10,-1
 2706 69 l 1,7,-1
1378 1811 m 1,11,-1
 2687 3534 l 1,12,-1
 69 3534 l 1,13,-1
 1378 1811 l 1,14,-1
 1378 1811 l 1,11,-1
0 0 m 1,15,-1
 0 3584 l 1,16,-1
 2756 3584 l 1,17,-1
 2756 0 l 1,18,-1
 0 0 l 1,15,-1
EndSplineSet
Validated: 5
EndChar

StartChar: exclam
Encoding: 33 33 4
Width: 1024
GlyphClass: 1
Flags: W
LayerCount: 3
Fore
SplineSet
256 0 m 1,0,1
 150 0 150 0 74 74 c 0,2,3
 0 150 0 150 0 256 c 0,4,5
 0 361 0 361 74 437 c 0,6,7
 150 512 150 512 256 512 c 0,8,9
 361 512 361 512 437 437 c 0,10,11
 512 361 512 361 512 256 c 0,12,13
 512 150 512 150 437 74 c 0,14,15
 361 0 361 0 256 0 c 1,16,-1
 256 0 l 1,0,1
256 1024 m 1,17,18
 150 1024 150 1024 74 1098 c 0,19,20
 0 1174 0 1174 0 1280 c 0,21,22
 0 1385 0 1385 74 1461 c 0,23,24
 150 1536 150 1536 256 1536 c 0,25,26
 361 1536 361 1536 437 1461 c 0,27,28
 512 1385 512 1385 512 1280 c 0,29,30
 512 1174 512 1174 437 1098 c 0,31,32
 361 1024 361 1024 256 1024 c 1,33,-1
 256 1024 l 1,17,18
256 1536 m 1,34,35
 150 1536 150 1536 74 1610 c 0,36,37
 0 1686 0 1686 0 1792 c 0,38,39
 0 1897 0 1897 74 1973 c 0,40,41
 150 2048 150 2048 256 2048 c 0,42,43
 361 2048 361 2048 437 1973 c 0,44,45
 512 1897 512 1897 512 1792 c 0,46,47
 512 1686 512 1686 437 1610 c 0,48,49
 361 1536 361 1536 256 1536 c 1,50,-1
 256 1536 l 1,34,35
256 2048 m 1,51,52
 150 2048 150 2048 74 2122 c 0,53,54
 0 2198 0 2198 0 2304 c 0,55,56
 0 2409 0 2409 74 2485 c 0,57,58
 150 2560 150 2560 256 2560 c 0,59,60
 361 2560 361 2560 437 2485 c 0,61,62
 512 2409 512 2409 512 2304 c 0,63,64
 512 2198 512 2198 437 2122 c 0,65,66
 361 2048 361 2048 256 2048 c 1,67,-1
 256 2048 l 1,51,52
256 2560 m 1,68,69
 150 2560 150 2560 74 2634 c 0,70,71
 0 2710 0 2710 0 2816 c 0,72,73
 0 2921 0 2921 74 2997 c 0,74,75
 150 3072 150 3072 256 3072 c 0,76,77
 361 3072 361 3072 437 2997 c 0,78,79
 512 2921 512 2921 512 2816 c 0,80,81
 512 2710 512 2710 437 2634 c 0,82,83
 361 2560 361 2560 256 2560 c 1,84,-1
 256 2560 l 1,68,69
256 3072 m 1,85,86
 150 3072 150 3072 74 3146 c 0,87,88
 0 3222 0 3222 0 3328 c 0,89,90
 0 3433 0 3433 74 3509 c 0,91,92
 150 3584 150 3584 256 3584 c 0,93,94
 361 3584 361 3584 437 3509 c 0,95,96
 512 3433 512 3433 512 3328 c 0,97,98
 512 3222 512 3222 437 3146 c 0,99,100
 361 3072 361 3072 256 3072 c 1,101,-1
 256 3072 l 1,85,86
EndSplineSet
Validated: 5
EndChar

StartChar: quotedbl
Encoding: 34 34 5
Width: 2048
GlyphClass: 1
Flags: W
LayerCount: 3
Fore
SplineSet
256 2560 m 1,0,1
 150 2560 150 2560 74 2634 c 0,2,3
 0 2710 0 2710 0 2816 c 0,4,5
 0 2921 0 2921 74 2997 c 0,6,7
 150 3072 150 3072 256 3072 c 0,8,9
 361 3072 361 3072 437 2997 c 0,10,11
 512 2921 512 2921 512 2816 c 0,12,13
 512 2710 512 2710 437 2634 c 0,14,15
 361 2560 361 2560 256 2560 c 1,16,-1
 256 2560 l 1,0,1
1280 2560 m 1,17,18
 1174 2560 1174 2560 1098 2634 c 0,19,20
 1024 2710 1024 2710 1024 2816 c 0,21,22
 1024 2921 1024 2921 1098 2997 c 0,23,24
 1174 3072 1174 3072 1280 3072 c 0,25,26
 1385 3072 1385 3072 1461 2997 c 0,27,28
 1536 2921 1536 2921 1536 2816 c 0,29,30
 1536 2710 1536 2710 1461 2634 c 0,31,32
 1385 2560 1385 2560 1280 2560 c 1,33,-1
 1280 2560 l 1,17,18
256 3072 m 1,34,35
 150 3072 150 3072 74 3146 c 0,36,37
 0 3222 0 3222 0 3328 c 0,38,39
 0 3433 0 3433 74 3509 c 0,40,41
 150 3584 150 3584 256 3584 c 0,42,43
 361 3584 361 3584 437 3509 c 0,44,45
 512 3433 512 3433 512 3328 c 0,46,47
 512 3222 512 3222 437 3146 c 0,48,49
 361 3072 361 3072 256 3072 c 1,50,-1
 256 3072 l 1,34,35
1280 3072 m 1,51,52
 1174 3072 1174 3072 1098 3146 c 0,53,54
 1024 3222 1024 3222 1024 3328 c 0,55,56
 1024 3433 1024 3433 1098 3509 c 0,57,58
 1174 3584 1174 3584 1280 3584 c 0,59,60
 1385 3584 1385 3584 1461 3509 c 0,61,62
 1536 3433 1536 3433 1536 3328 c 0,63,64
 1536 3222 1536 3222 1461 3146 c 0,65,66
 1385 3072 1385 3072 1280 3072 c 1,67,-1
 1280 3072 l 1,51,52
EndSplineSet
Validated: 5
EndChar

StartChar: numbersign
Encoding: 35 35 6
Width: 3072
GlyphClass: 1
Flags: W
LayerCount: 3
Fore
SplineSet
768 0 m 1,0,1
 662 0 662 0 586 74 c 0,2,3
 512 150 512 150 512 256 c 0,4,5
 512 361 512 361 586 437 c 0,6,7
 662 512 662 512 768 512 c 0,8,9
 873 512 873 512 949 437 c 0,10,11
 1024 361 1024 361 1024 256 c 0,12,13
 1024 150 1024 150 949 74 c 0,14,15
 873 0 873 0 768 0 c 1,16,-1
 768 0 l 1,0,1
1792 0 m 1,17,18
 1686 0 1686 0 1610 74 c 0,19,20
 1536 150 1536 150 1536 256 c 0,21,22
 1536 361 1536 361 1610 437 c 0,23,24
 1686 512 1686 512 1792 512 c 0,25,26
 1897 512 1897 512 1973 437 c 0,27,28
 2048 361 2048 361 2048 256 c 0,29,30
 2048 150 2048 150 1973 74 c 0,31,32
 1897 0 1897 0 1792 0 c 1,33,-1
 1792 0 l 1,17,18
768 512 m 1,34,35
 662 512 662 512 586 586 c 0,36,37
 512 662 512 662 512 768 c 0,38,39
 512 873 512 873 586 949 c 0,40,41
 662 1024 662 1024 768 1024 c 0,42,43
 873 1024 873 1024 949 949 c 0,44,45
 1024 873 1024 873 1024 768 c 0,46,47
 1024 662 1024 662 949 586 c 0,48,49
 873 512 873 512 768 512 c 1,50,-1
 768 512 l 1,34,35
1792 512 m 1,51,52
 1686 512 1686 512 1610 586 c 0,53,54
 1536 662 1536 662 1536 768 c 0,55,56
 1536 873 1536 873 1610 949 c 0,57,58
 1686 1024 1686 1024 1792 1024 c 0,59,60
 1897 1024 1897 1024 1973 949 c 0,61,62
 2048 873 2048 873 2048 768 c 0,63,64
 2048 662 2048 662 1973 586 c 0,65,66
 1897 512 1897 512 1792 512 c 1,67,-1
 1792 512 l 1,51,52
256 1024 m 1,68,69
 150 1024 150 1024 74 1098 c 0,70,71
 0 1174 0 1174 0 1280 c 0,72,73
 0 1385 0 1385 74 1461 c 0,74,75
 150 1536 150 1536 256 1536 c 0,76,77
 361 1536 361 1536 437 1461 c 0,78,79
 512 1385 512 1385 512 1280 c 0,80,81
 512 1174 512 1174 437 1098 c 0,82,83
 361 1024 361 1024 256 1024 c 1,84,-1
 256 1024 l 1,68,69
768 1024 m 1,85,86
 662 1024 662 1024 586 1098 c 0,87,88
 512 1174 512 1174 512 1280 c 0,89,90
 512 1385 512 1385 586 1461 c 0,91,92
 662 1536 662 1536 768 1536 c 0,93,94
 873 1536 873 1536 949 1461 c 0,95,96
 1024 1385 1024 1385 1024 1280 c 0,97,98
 1024 1174 1024 1174 949 1098 c 0,99,100
 873 1024 873 1024 768 1024 c 1,101,-1
 768 1024 l 1,85,86
1280 1024 m 1,102,103
 1174 1024 1174 1024 1098 1098 c 0,104,105
 1024 1174 1024 1174 1024 1280 c 0,106,107
 1024 1385 1024 1385 1098 1461 c 0,108,109
 1174 1536 1174 1536 1280 1536 c 0,110,111
 1385 1536 1385 1536 1461 1461 c 0,112,113
 1536 1385 1536 1385 1536 1280 c 0,114,115
 1536 1174 1536 1174 1461 1098 c 0,116,117
 1385 1024 1385 1024 1280 1024 c 1,118,-1
 1280 1024 l 1,102,103
1792 1024 m 1,119,120
 1686 1024 1686 1024 1610 1098 c 0,121,122
 1536 1174 1536 1174 1536 1280 c 0,123,124
 1536 1385 1536 1385 1610 1461 c 0,125,126
 1686 1536 1686 1536 1792 1536 c 0,127,128
 1897 1536 1897 1536 1973 1461 c 0,129,130
 2048 1385 2048 1385 2048 1280 c 0,131,132
 2048 1174 2048 1174 1973 1098 c 0,133,134
 1897 1024 1897 1024 1792 1024 c 1,135,-1
 1792 1024 l 1,119,120
2304 1024 m 1,136,137
 2198 1024 2198 1024 2122 1098 c 0,138,139
 2048 1174 2048 1174 2048 1280 c 0,140,141
 2048 1385 2048 1385 2122 1461 c 0,142,143
 2198 1536 2198 1536 2304 1536 c 0,144,145
 2409 1536 2409 1536 2485 1461 c 0,146,147
 2560 1385 2560 1385 2560 1280 c 0,148,149
 2560 1174 2560 1174 2485 1098 c 0,150,151
 2409 1024 2409 1024 2304 1024 c 1,152,-1
 2304 1024 l 1,136,137
768 1536 m 1,153,154
 662 1536 662 1536 586 1610 c 0,155,156
 512 1686 512 1686 512 1792 c 0,157,158
 512 1897 512 1897 586 1973 c 0,159,160
 662 2048 662 2048 768 2048 c 0,161,162
 873 2048 873 2048 949 1973 c 0,163,164
 1024 1897 1024 1897 1024 1792 c 0,165,166
 1024 1686 1024 1686 949 1610 c 0,167,168
 873 1536 873 1536 768 1536 c 1,169,-1
 768 1536 l 1,153,154
1792 1536 m 1,170,171
 1686 1536 1686 1536 1610 1610 c 0,172,173
 1536 1686 1536 1686 1536 1792 c 0,174,175
 1536 1897 1536 1897 1610 1973 c 0,176,177
 1686 2048 1686 2048 1792 2048 c 0,178,179
 1897 2048 1897 2048 1973 1973 c 0,180,181
 2048 1897 2048 1897 2048 1792 c 0,182,183
 2048 1686 2048 1686 1973 1610 c 0,184,185
 1897 1536 1897 1536 1792 1536 c 1,186,-1
 1792 1536 l 1,170,171
256 2048 m 1,187,188
 150 2048 150 2048 74 2122 c 0,189,190
 0 2198 0 2198 0 2304 c 0,191,192
 0 2409 0 2409 74 2485 c 0,193,194
 150 2560 150 2560 256 2560 c 0,195,196
 361 2560 361 2560 437 2485 c 0,197,198
 512 2409 512 2409 512 2304 c 0,199,200
 512 2198 512 2198 437 2122 c 0,201,202
 361 2048 361 2048 256 2048 c 1,203,-1
 256 2048 l 1,187,188
768 2048 m 1,204,205
 662 2048 662 2048 586 2122 c 0,206,207
 512 2198 512 2198 512 2304 c 0,208,209
 512 2409 512 2409 586 2485 c 0,210,211
 662 2560 662 2560 768 2560 c 0,212,213
 873 2560 873 2560 949 2485 c 0,214,215
 1024 2409 1024 2409 1024 2304 c 0,216,217
 1024 2198 1024 2198 949 2122 c 0,218,219
 873 2048 873 2048 768 2048 c 1,220,-1
 768 2048 l 1,204,205
1280 2048 m 1,221,222
 1174 2048 1174 2048 1098 2122 c 0,223,224
 1024 2198 1024 2198 1024 2304 c 0,225,226
 1024 2409 1024 2409 1098 2485 c 0,227,228
 1174 2560 1174 2560 1280 2560 c 0,229,230
 1385 2560 1385 2560 1461 2485 c 0,231,232
 1536 2409 1536 2409 1536 2304 c 0,233,234
 1536 2198 1536 2198 1461 2122 c 0,235,236
 1385 2048 1385 2048 1280 2048 c 1,237,-1
 1280 2048 l 1,221,222
1792 2048 m 1,238,239
 1686 2048 1686 2048 1610 2122 c 0,240,241
 1536 2198 1536 2198 1536 2304 c 0,242,243
 1536 2409 1536 2409 1610 2485 c 0,244,245
 1686 2560 1686 2560 1792 2560 c 0,246,247
 1897 2560 1897 2560 1973 2485 c 0,248,249
 2048 2409 2048 2409 2048 2304 c 0,250,251
 2048 2198 2048 2198 1973 2122 c 0,252,253
 1897 2048 1897 2048 1792 2048 c 1,254,-1
 1792 2048 l 1,238,239
2304 2048 m 1,255,256
 2198 2048 2198 2048 2122 2122 c 0,257,258
 2048 2198 2048 2198 2048 2304 c 0,259,260
 2048 2409 2048 2409 2122 2485 c 0,261,262
 2198 2560 2198 2560 2304 2560 c 0,263,264
 2409 2560 2409 2560 2485 2485 c 0,265,266
 2560 2409 2560 2409 2560 2304 c 0,267,268
 2560 2198 2560 2198 2485 2122 c 0,269,270
 2409 2048 2409 2048 2304 2048 c 1,271,-1
 2304 2048 l 1,255,256
768 2560 m 1,272,273
 662 2560 662 2560 586 2634 c 0,274,275
 512 2710 512 2710 512 2816 c 0,276,277
 512 2921 512 2921 586 2997 c 0,278,279
 662 3072 662 3072 768 3072 c 0,280,281
 873 3072 873 3072 949 2997 c 0,282,283
 1024 2921 1024 2921 1024 2816 c 0,284,285
 1024 2710 1024 2710 949 2634 c 0,286,287
 873 2560 873 2560 768 2560 c 1,288,-1
 768 2560 l 1,272,273
1792 2560 m 1,289,290
 1686 2560 1686 2560 1610 2634 c 0,291,292
 1536 2710 1536 2710 1536 2816 c 0,293,294
 1536 2921 1536 2921 1610 2997 c 0,295,296
 1686 3072 1686 3072 1792 3072 c 0,297,298
 1897 3072 1897 3072 1973 2997 c 0,299,300
 2048 2921 2048 2921 2048 2816 c 0,301,302
 2048 2710 2048 2710 1973 2634 c 0,303,304
 1897 2560 1897 2560 1792 2560 c 1,305,-1
 1792 2560 l 1,289,290
768 3072 m 1,306,307
 662 3072 662 3072 586 3146 c 0,308,309
 512 3222 512 3222 512 3328 c 0,310,311
 512 3433 512 3433 586 3509 c 0,312,313
 662 3584 662 3584 768 3584 c 0,314,315
 873 3584 873 3584 949 3509 c 0,316,317
 1024 3433 1024 3433 1024 3328 c 0,318,319
 1024 3222 1024 3222 949 3146 c 0,320,321
 873 3072 873 3072 768 3072 c 1,322,-1
 768 3072 l 1,306,307
1792 3072 m 1,323,324
 1686 3072 1686 3072 1610 3146 c 0,325,326
 1536 3222 1536 3222 1536 3328 c 0,327,328
 1536 3433 1536 3433 1610 3509 c 0,329,330
 1686 3584 1686 3584 1792 3584 c 0,331,332
 1897 3584 1897 3584 1973 3509 c 0,333,334
 2048 3433 2048 3433 2048 3328 c 0,335,336
 2048 3222 2048 3222 1973 3146 c 0,337,338
 1897 3072 1897 3072 1792 3072 c 1,339,-1
 1792 3072 l 1,323,324
EndSplineSet
Validated: 5
EndChar

StartChar: dollar
Encoding: 36 36 7
Width: 3072
GlyphClass: 1
Flags: W
LayerCount: 3
Fore
SplineSet
1280 0 m 1,0,1
 1174 0 1174 0 1098 74 c 0,2,3
 1024 150 1024 150 1024 256 c 0,4,5
 1024 361 1024 361 1098 437 c 0,6,7
 1174 512 1174 512 1280 512 c 0,8,9
 1385 512 1385 512 1461 437 c 0,10,11
 1536 361 1536 361 1536 256 c 0,12,13
 1536 150 1536 150 1461 74 c 0,14,15
 1385 0 1385 0 1280 0 c 1,16,-1
 1280 0 l 1,0,1
256 512 m 1,17,18
 150 512 150 512 74 586 c 0,19,20
 0 662 0 662 0 768 c 0,21,22
 0 873 0 873 74 949 c 0,23,24
 150 1024 150 1024 256 1024 c 0,25,26
 361 1024 361 1024 437 949 c 0,27,28
 512 873 512 873 512 768 c 0,29,30
 512 662 512 662 437 586 c 0,31,32
 361 512 361 512 256 512 c 1,33,-1
 256 512 l 1,17,18
768 512 m 1,34,35
 662 512 662 512 586 586 c 0,36,37
 512 662 512 662 512 768 c 0,38,39
 512 873 512 873 586 949 c 0,40,41
 662 1024 662 1024 768 1024 c 0,42,43
 873 1024 873 1024 949 949 c 0,44,45
 1024 873 1024 873 1024 768 c 0,46,47
 1024 662 1024 662 949 586 c 0,48,49
 873 512 873 512 768 512 c 1,50,-1
 768 512 l 1,34,35
1280 512 m 1,51,52
 1174 512 1174 512 1098 586 c 0,53,54
 1024 662 1024 662 1024 768 c 0,55,56
 1024 873 1024 873 1098 949 c 0,57,58
 1174 1024 1174 1024 1280 1024 c 0,59,60
 1385 1024 1385 1024 1461 949 c 0,61,62
 1536 873 1536 873 1536 768 c 0,63,64
 1536 662 1536 662 1461 586 c 0,65,66
 1385 512 1385 512 1280 512 c 1,67,-1
 1280 512 l 1,51,52
1792 512 m 1,68,69
 1686 512 1686 512 1610 586 c 0,70,71
 1536 662 1536 662 1536 768 c 0,72,73
 1536 873 1536 873 1610 949 c 0,74,75
 1686 1024 1686 1024 1792 1024 c 0,76,77
 1897 1024 1897 1024 1973 949 c 0,78,79
 2048 873 2048 873 2048 768 c 0,80,81
 2048 662 2048 662 1973 586 c 0,82,83
 1897 512 1897 512 1792 512 c 1,84,-1
 1792 512 l 1,68,69
2304 1024 m 1,85,86
 2198 1024 2198 1024 2122 1098 c 0,87,88
 2048 1174 2048 1174 2048 1280 c 0,89,90
 2048 1385 2048 1385 2122 1461 c 0,91,92
 2198 1536 2198 1536 2304 1536 c 0,93,94
 2409 1536 2409 1536 2485 1461 c 0,95,96
 2560 1385 2560 1385 2560 1280 c 0,97,98
 2560 1174 2560 1174 2485 1098 c 0,99,100
 2409 1024 2409 1024 2304 1024 c 1,101,-1
 2304 1024 l 1,85,86
768 1536 m 1,102,103
 662 1536 662 1536 586 1610 c 0,104,105
 512 1686 512 1686 512 1792 c 0,106,107
 512 1897 512 1897 586 1973 c 0,108,109
 662 2048 662 2048 768 2048 c 0,110,111
 873 2048 873 2048 949 1973 c 0,112,113
 1024 1897 1024 1897 1024 1792 c 0,114,115
 1024 1686 1024 1686 949 1610 c 0,116,117
 873 1536 873 1536 768 1536 c 1,118,-1
 768 1536 l 1,102,103
1280 1536 m 1,119,120
 1174 1536 1174 1536 1098 1610 c 0,121,122
 1024 1686 1024 1686 1024 1792 c 0,123,124
 1024 1897 1024 1897 1098 1973 c 0,125,126
 1174 2048 1174 2048 1280 2048 c 0,127,128
 1385 2048 1385 2048 1461 1973 c 0,129,130
 1536 1897 1536 1897 1536 1792 c 0,131,132
 1536 1686 1536 1686 1461 1610 c 0,133,134
 1385 1536 1385 1536 1280 1536 c 1,135,-1
 1280 1536 l 1,119,120
1792 1536 m 1,136,137
 1686 1536 1686 1536 1610 1610 c 0,138,139
 1536 1686 1536 1686 1536 1792 c 0,140,141
 1536 1897 1536 1897 1610 1973 c 0,142,143
 1686 2048 1686 2048 1792 2048 c 0,144,145
 1897 2048 1897 2048 1973 1973 c 0,146,147
 2048 1897 2048 1897 2048 1792 c 0,148,149
 2048 1686 2048 1686 1973 1610 c 0,150,151
 1897 1536 1897 1536 1792 1536 c 1,152,-1
 1792 1536 l 1,136,137
256 2048 m 1,153,154
 150 2048 150 2048 74 2122 c 0,155,156
 0 2198 0 2198 0 2304 c 0,157,158
 0 2409 0 2409 74 2485 c 0,159,160
 150 2560 150 2560 256 2560 c 0,161,162
 361 2560 361 2560 437 2485 c 0,163,164
 512 2409 512 2409 512 2304 c 0,165,166
 512 2198 512 2198 437 2122 c 0,167,168
 361 2048 361 2048 256 2048 c 1,169,-1
 256 2048 l 1,153,154
768 2560 m 1,170,171
 662 2560 662 2560 586 2634 c 0,172,173
 512 2710 512 2710 512 2816 c 0,174,175
 512 2921 512 2921 586 2997 c 0,176,177
 662 3072 662 3072 768 3072 c 0,178,179
 873 3072 873 3072 949 2997 c 0,180,181
 1024 2921 1024 2921 1024 2816 c 0,182,183
 1024 2710 1024 2710 949 2634 c 0,184,185
 873 2560 873 2560 768 2560 c 1,186,-1
 768 2560 l 1,170,171
1280 2560 m 1,187,188
 1174 2560 1174 2560 1098 2634 c 0,189,190
 1024 2710 1024 2710 1024 2816 c 0,191,192
 1024 2921 1024 2921 1098 2997 c 0,193,194
 1174 3072 1174 3072 1280 3072 c 0,195,196
 1385 3072 1385 3072 1461 2997 c 0,197,198
 1536 2921 1536 2921 1536 2816 c 0,199,200
 1536 2710 1536 2710 1461 2634 c 0,201,202
 1385 2560 1385 2560 1280 2560 c 1,203,-1
 1280 2560 l 1,187,188
1792 2560 m 1,204,205
 1686 2560 1686 2560 1610 2634 c 0,206,207
 1536 2710 1536 2710 1536 2816 c 0,208,209
 1536 2921 1536 2921 1610 2997 c 0,210,211
 1686 3072 1686 3072 1792 3072 c 0,212,213
 1897 3072 1897 3072 1973 2997 c 0,214,215
 2048 2921 2048 2921 2048 2816 c 0,216,217
 2048 2710 2048 2710 1973 2634 c 0,218,219
 1897 2560 1897 2560 1792 2560 c 1,220,-1
 1792 2560 l 1,204,205
2304 2560 m 1,221,222
 2198 2560 2198 2560 2122 2634 c 0,223,224
 2048 2710 2048 2710 2048 2816 c 0,225,226
 2048 2921 2048 2921 2122 2997 c 0,227,228
 2198 3072 2198 3072 2304 3072 c 0,229,230
 2409 3072 2409 3072 2485 2997 c 0,231,232
 2560 2921 2560 2921 2560 2816 c 0,233,234
 2560 2710 2560 2710 2485 2634 c 0,235,236
 2409 2560 2409 2560 2304 2560 c 1,237,-1
 2304 2560 l 1,221,222
1280 3072 m 1,238,239
 1174 3072 1174 3072 1098 3146 c 0,240,241
 1024 3222 1024 3222 1024 3328 c 0,242,243
 1024 3433 1024 3433 1098 3509 c 0,244,245
 1174 3584 1174 3584 1280 3584 c 0,246,247
 1385 3584 1385 3584 1461 3509 c 0,248,249
 1536 3433 1536 3433 1536 3328 c 0,250,251
 1536 3222 1536 3222 1461 3146 c 0,252,253
 1385 3072 1385 3072 1280 3072 c 1,254,-1
 1280 3072 l 1,238,239
EndSplineSet
Validated: 5
EndChar

StartChar: percent
Encoding: 37 37 8
Width: 3072
GlyphClass: 1
Flags: W
LayerCount: 3
Fore
SplineSet
256 0 m 1,0,1
 150 0 150 0 74 74 c 0,2,3
 0 150 0 150 0 256 c 0,4,5
 0 361 0 361 74 437 c 0,6,7
 150 512 150 512 256 512 c 0,8,9
 361 512 361 512 437 437 c 0,10,11
 512 361 512 361 512 256 c 0,12,13
 512 150 512 150 437 74 c 0,14,15
 361 0 361 0 256 0 c 1,16,-1
 256 0 l 1,0,1
2304 0 m 1,17,18
 2198 0 2198 0 2122 74 c 0,19,20
 2048 150 2048 150 2048 256 c 0,21,22
 2048 361 2048 361 2122 437 c 0,23,24
 2198 512 2198 512 2304 512 c 0,25,26
 2409 512 2409 512 2485 437 c 0,27,28
 2560 361 2560 361 2560 256 c 0,29,30
 2560 150 2560 150 2485 74 c 0,31,32
 2409 0 2409 0 2304 0 c 1,33,-1
 2304 0 l 1,17,18
768 512 m 1,34,35
 662 512 662 512 586 586 c 0,36,37
 512 662 512 662 512 768 c 0,38,39
 512 873 512 873 586 949 c 0,40,41
 662 1024 662 1024 768 1024 c 0,42,43
 873 1024 873 1024 949 949 c 0,44,45
 1024 873 1024 873 1024 768 c 0,46,47
 1024 662 1024 662 949 586 c 0,48,49
 873 512 873 512 768 512 c 1,50,-1
 768 512 l 1,34,35
2304 512 m 1,51,52
 2198 512 2198 512 2122 586 c 0,53,54
 2048 662 2048 662 2048 768 c 0,55,56
 2048 873 2048 873 2122 949 c 0,57,58
 2198 1024 2198 1024 2304 1024 c 0,59,60
 2409 1024 2409 1024 2485 949 c 0,61,62
 2560 873 2560 873 2560 768 c 0,63,64
 2560 662 2560 662 2485 586 c 0,65,66
 2409 512 2409 512 2304 512 c 1,67,-1
 2304 512 l 1,51,52
768 1024 m 1,68,69
 662 1024 662 1024 586 1098 c 0,70,71
 512 1174 512 1174 512 1280 c 0,72,73
 512 1385 512 1385 586 1461 c 0,74,75
 662 1536 662 1536 768 1536 c 0,76,77
 873 1536 873 1536 949 1461 c 0,78,79
 1024 1385 1024 1385 1024 1280 c 0,80,81
 1024 1174 1024 1174 949 1098 c 0,82,83
 873 1024 873 1024 768 1024 c 1,84,-1
 768 1024 l 1,68,69
1280 1536 m 1,85,86
 1174 1536 1174 1536 1098 1610 c 0,87,88
 1024 1686 1024 1686 1024 1792 c 0,89,90
 1024 1897 1024 1897 1098 1973 c 0,91,92
 1174 2048 1174 2048 1280 2048 c 0,93,94
 1385 2048 1385 2048 1461 1973 c 0,95,96
 1536 1897 1536 1897 1536 1792 c 0,97,98
 1536 1686 1536 1686 1461 1610 c 0,99,100
 1385 1536 1385 1536 1280 1536 c 1,101,-1
 1280 1536 l 1,85,86
1792 2048 m 1,102,103
 1686 2048 1686 2048 1610 2122 c 0,104,105
 1536 2198 1536 2198 1536 2304 c 0,106,107
 1536 2409 1536 2409 1610 2485 c 0,108,109
 1686 2560 1686 2560 1792 2560 c 0,110,111
 1897 2560 1897 2560 1973 2485 c 0,112,113
 2048 2409 2048 2409 2048 2304 c 0,114,115
 2048 2198 2048 2198 1973 2122 c 0,116,117
 1897 2048 1897 2048 1792 2048 c 1,118,-1
 1792 2048 l 1,102,103
256 2560 m 1,119,120
 150 2560 150 2560 74 2634 c 0,121,122
 0 2710 0 2710 0 2816 c 0,123,124
 0 2921 0 2921 74 2997 c 0,125,126
 150 3072 150 3072 256 3072 c 0,127,128
 361 3072 361 3072 437 2997 c 0,129,130
 512 2921 512 2921 512 2816 c 0,131,132
 512 2710 512 2710 437 2634 c 0,133,134
 361 2560 361 2560 256 2560 c 1,135,-1
 256 2560 l 1,119,120
1792 2560 m 1,136,137
 1686 2560 1686 2560 1610 2634 c 0,138,139
 1536 2710 1536 2710 1536 2816 c 0,140,141
 1536 2921 1536 2921 1610 2997 c 0,142,143
 1686 3072 1686 3072 1792 3072 c 0,144,145
 1897 3072 1897 3072 1973 2997 c 0,146,147
 2048 2921 2048 2921 2048 2816 c 0,148,149
 2048 2710 2048 2710 1973 2634 c 0,150,151
 1897 2560 1897 2560 1792 2560 c 1,152,-1
 1792 2560 l 1,136,137
256 3072 m 1,153,154
 150 3072 150 3072 74 3146 c 0,155,156
 0 3222 0 3222 0 3328 c 0,157,158
 0 3433 0 3433 74 3509 c 0,159,160
 150 3584 150 3584 256 3584 c 0,161,162
 361 3584 361 3584 437 3509 c 0,163,164
 512 3433 512 3433 512 3328 c 0,165,166
 512 3222 512 3222 437 3146 c 0,167,168
 361 3072 361 3072 256 3072 c 1,169,-1
 256 3072 l 1,153,154
2304 3072 m 1,170,171
 2198 3072 2198 3072 2122 3146 c 0,172,173
 2048 3222 2048 3222 2048 3328 c 0,174,175
 2048 3433 2048 3433 2122 3509 c 0,176,177
 2198 3584 2198 3584 2304 3584 c 0,178,179
 2409 3584 2409 3584 2485 3509 c 0,180,181
 2560 3433 2560 3433 2560 3328 c 0,182,183
 2560 3222 2560 3222 2485 3146 c 0,184,185
 2409 3072 2409 3072 2304 3072 c 1,186,-1
 2304 3072 l 1,170,171
EndSplineSet
Validated: 5
EndChar

StartChar: ampersand
Encoding: 38 38 9
Width: 3072
GlyphClass: 1
Flags: W
LayerCount: 3
Fore
SplineSet
768 0 m 1,0,1
 662 0 662 0 586 74 c 0,2,3
 512 150 512 150 512 256 c 0,4,5
 512 361 512 361 586 437 c 0,6,7
 662 512 662 512 768 512 c 0,8,9
 873 512 873 512 949 437 c 0,10,11
 1024 361 1024 361 1024 256 c 0,12,13
 1024 150 1024 150 949 74 c 0,14,15
 873 0 873 0 768 0 c 1,16,-1
 768 0 l 1,0,1
1280 0 m 1,17,18
 1174 0 1174 0 1098 74 c 0,19,20
 1024 150 1024 150 1024 256 c 0,21,22
 1024 361 1024 361 1098 437 c 0,23,24
 1174 512 1174 512 1280 512 c 0,25,26
 1385 512 1385 512 1461 437 c 0,27,28
 1536 361 1536 361 1536 256 c 0,29,30
 1536 150 1536 150 1461 74 c 0,31,32
 1385 0 1385 0 1280 0 c 1,33,-1
 1280 0 l 1,17,18
2304 0 m 1,34,35
 2198 0 2198 0 2122 74 c 0,36,37
 2048 150 2048 150 2048 256 c 0,38,39
 2048 361 2048 361 2122 437 c 0,40,41
 2198 512 2198 512 2304 512 c 0,42,43
 2409 512 2409 512 2485 437 c 0,44,45
 2560 361 2560 361 2560 256 c 0,46,47
 2560 150 2560 150 2485 74 c 0,48,49
 2409 0 2409 0 2304 0 c 1,50,-1
 2304 0 l 1,34,35
256 512 m 1,51,52
 150 512 150 512 74 586 c 0,53,54
 0 662 0 662 0 768 c 0,55,56
 0 873 0 873 74 949 c 0,57,58
 150 1024 150 1024 256 1024 c 0,59,60
 361 1024 361 1024 437 949 c 0,61,62
 512 873 512 873 512 768 c 0,63,64
 512 662 512 662 437 586 c 0,65,66
 361 512 361 512 256 512 c 1,67,-1
 256 512 l 1,51,52
1792 512 m 1,68,69
 1686 512 1686 512 1610 586 c 0,70,71
 1536 662 1536 662 1536 768 c 0,72,73
 1536 873 1536 873 1610 949 c 0,74,75
 1686 1024 1686 1024 1792 1024 c 0,76,77
 1897 1024 1897 1024 1973 949 c 0,78,79
 2048 873 2048 873 2048 768 c 0,80,81
 2048 662 2048 662 1973 586 c 0,82,83
 1897 512 1897 512 1792 512 c 1,84,-1
 1792 512 l 1,68,69
256 1024 m 1,85,86
 150 1024 150 1024 74 1098 c 0,87,88
 0 1174 0 1174 0 1280 c 0,89,90
 0 1385 0 1385 74 1461 c 0,91,92
 150 1536 150 1536 256 1536 c 0,93,94
 361 1536 361 1536 437 1461 c 0,95,96
 512 1385 512 1385 512 1280 c 0,97,98
 512 1174 512 1174 437 1098 c 0,99,100
 361 1024 361 1024 256 1024 c 1,101,-1
 256 1024 l 1,85,86
1280 1024 m 1,102,103
 1174 1024 1174 1024 1098 1098 c 0,104,105
 1024 1174 1024 1174 1024 1280 c 0,106,107
 1024 1385 1024 1385 1098 1461 c 0,108,109
 1174 1536 1174 1536 1280 1536 c 0,110,111
 1385 1536 1385 1536 1461 1461 c 0,112,113
 1536 1385 1536 1385 1536 1280 c 0,114,115
 1536 1174 1536 1174 1461 1098 c 0,116,117
 1385 1024 1385 1024 1280 1024 c 1,118,-1
 1280 1024 l 1,102,103
1792 1024 m 1,119,120
 1686 1024 1686 1024 1610 1098 c 0,121,122
 1536 1174 1536 1174 1536 1280 c 0,123,124
 1536 1385 1536 1385 1610 1461 c 0,125,126
 1686 1536 1686 1536 1792 1536 c 0,127,128
 1897 1536 1897 1536 1973 1461 c 0,129,130
 2048 1385 2048 1385 2048 1280 c 0,131,132
 2048 1174 2048 1174 1973 1098 c 0,133,134
 1897 1024 1897 1024 1792 1024 c 1,135,-1
 1792 1024 l 1,119,120
768 1536 m 1,136,137
 662 1536 662 1536 586 1610 c 0,138,139
 512 1686 512 1686 512 1792 c 0,140,141
 512 1897 512 1897 586 1973 c 0,142,143
 662 2048 662 2048 768 2048 c 0,144,145
 873 2048 873 2048 949 1973 c 0,146,147
 1024 1897 1024 1897 1024 1792 c 0,148,149
 1024 1686 1024 1686 949 1610 c 0,150,151
 873 1536 873 1536 768 1536 c 1,152,-1
 768 1536 l 1,136,137
1280 1536 m 1,153,154
 1174 1536 1174 1536 1098 1610 c 0,155,156
 1024 1686 1024 1686 1024 1792 c 0,157,158
 1024 1897 1024 1897 1098 1973 c 0,159,160
 1174 2048 1174 2048 1280 2048 c 0,161,162
 1385 2048 1385 2048 1461 1973 c 0,163,164
 1536 1897 1536 1897 1536 1792 c 0,165,166
 1536 1686 1536 1686 1461 1610 c 0,167,168
 1385 1536 1385 1536 1280 1536 c 1,169,-1
 1280 1536 l 1,153,154
2304 1536 m 1,170,171
 2198 1536 2198 1536 2122 1610 c 0,172,173
 2048 1686 2048 1686 2048 1792 c 0,174,175
 2048 1897 2048 1897 2122 1973 c 0,176,177
 2198 2048 2198 2048 2304 2048 c 0,178,179
 2409 2048 2409 2048 2485 1973 c 0,180,181
 2560 1897 2560 1897 2560 1792 c 0,182,183
 2560 1686 2560 1686 2485 1610 c 0,184,185
 2409 1536 2409 1536 2304 1536 c 1,186,-1
 2304 1536 l 1,170,171
1280 2048 m 1,187,188
 1174 2048 1174 2048 1098 2122 c 0,189,190
 1024 2198 1024 2198 1024 2304 c 0,191,192
 1024 2409 1024 2409 1098 2485 c 0,193,194
 1174 2560 1174 2560 1280 2560 c 0,195,196
 1385 2560 1385 2560 1461 2485 c 0,197,198
 1536 2409 1536 2409 1536 2304 c 0,199,200
 1536 2198 1536 2198 1461 2122 c 0,201,202
 1385 2048 1385 2048 1280 2048 c 1,203,-1
 1280 2048 l 1,187,188
768 2560 m 1,204,205
 662 2560 662 2560 586 2634 c 0,206,207
 512 2710 512 2710 512 2816 c 0,208,209
 512 2921 512 2921 586 2997 c 0,210,211
 662 3072 662 3072 768 3072 c 0,212,213
 873 3072 873 3072 949 2997 c 0,214,215
 1024 2921 1024 2921 1024 2816 c 0,216,217
 1024 2710 1024 2710 949 2634 c 0,218,219
 873 2560 873 2560 768 2560 c 1,220,-1
 768 2560 l 1,204,205
1792 2560 m 1,221,222
 1686 2560 1686 2560 1610 2634 c 0,223,224
 1536 2710 1536 2710 1536 2816 c 0,225,226
 1536 2921 1536 2921 1610 2997 c 0,227,228
 1686 3072 1686 3072 1792 3072 c 0,229,230
 1897 3072 1897 3072 1973 2997 c 0,231,232
 2048 2921 2048 2921 2048 2816 c 0,233,234
 2048 2710 2048 2710 1973 2634 c 0,235,236
 1897 2560 1897 2560 1792 2560 c 1,237,-1
 1792 2560 l 1,221,222
1280 3072 m 1,238,239
 1174 3072 1174 3072 1098 3146 c 0,240,241
 1024 3222 1024 3222 1024 3328 c 0,242,243
 1024 3433 1024 3433 1098 3509 c 0,244,245
 1174 3584 1174 3584 1280 3584 c 0,246,247
 1385 3584 1385 3584 1461 3509 c 0,248,249
 1536 3433 1536 3433 1536 3328 c 0,250,251
 1536 3222 1536 3222 1461 3146 c 0,252,253
 1385 3072 1385 3072 1280 3072 c 1,254,-1
 1280 3072 l 1,238,239
EndSplineSet
Validated: 5
EndChar

StartChar: quotesingle
Encoding: 39 39 10
Width: 1024
GlyphClass: 1
Flags: W
LayerCount: 3
Fore
SplineSet
256 2560 m 1,0,1
 150 2560 150 2560 74 2634 c 0,2,3
 0 2710 0 2710 0 2816 c 0,4,5
 0 2921 0 2921 74 2997 c 0,6,7
 150 3072 150 3072 256 3072 c 0,8,9
 361 3072 361 3072 437 2997 c 0,10,11
 512 2921 512 2921 512 2816 c 0,12,13
 512 2710 512 2710 437 2634 c 0,14,15
 361 2560 361 2560 256 2560 c 1,16,-1
 256 2560 l 1,0,1
256 3072 m 1,17,18
 150 3072 150 3072 74 3146 c 0,19,20
 0 3222 0 3222 0 3328 c 0,21,22
 0 3433 0 3433 74 3509 c 0,23,24
 150 3584 150 3584 256 3584 c 0,25,26
 361 3584 361 3584 437 3509 c 0,27,28
 512 3433 512 3433 512 3328 c 0,29,30
 512 3222 512 3222 437 3146 c 0,31,32
 361 3072 361 3072 256 3072 c 1,33,-1
 256 3072 l 1,17,18
EndSplineSet
Validated: 5
EndChar

StartChar: parenleft
Encoding: 40 40 11
Width: 2048
GlyphClass: 1
Flags: W
LayerCount: 3
Fore
SplineSet
1280 0 m 1,0,1
 1174 0 1174 0 1098 74 c 0,2,3
 1024 150 1024 150 1024 256 c 0,4,5
 1024 361 1024 361 1098 437 c 0,6,7
 1174 512 1174 512 1280 512 c 0,8,9
 1385 512 1385 512 1461 437 c 0,10,11
 1536 361 1536 361 1536 256 c 0,12,13
 1536 150 1536 150 1461 74 c 0,14,15
 1385 0 1385 0 1280 0 c 1,16,-1
 1280 0 l 1,0,1
768 512 m 1,17,18
 662 512 662 512 586 586 c 0,19,20
 512 662 512 662 512 768 c 0,21,22
 512 873 512 873 586 949 c 0,23,24
 662 1024 662 1024 768 1024 c 0,25,26
 873 1024 873 1024 949 949 c 0,27,28
 1024 873 1024 873 1024 768 c 0,29,30
 1024 662 1024 662 949 586 c 0,31,32
 873 512 873 512 768 512 c 1,33,-1
 768 512 l 1,17,18
256 1024 m 1,34,35
 150 1024 150 1024 74 1098 c 0,36,37
 0 1174 0 1174 0 1280 c 0,38,39
 0 1385 0 1385 74 1461 c 0,40,41
 150 1536 150 1536 256 1536 c 0,42,43
 361 1536 361 1536 437 1461 c 0,44,45
 512 1385 512 1385 512 1280 c 0,46,47
 512 1174 512 1174 437 1098 c 0,48,49
 361 1024 361 1024 256 1024 c 1,50,-1
 256 1024 l 1,34,35
256 1536 m 1,51,52
 150 1536 150 1536 74 1610 c 0,53,54
 0 1686 0 1686 0 1792 c 0,55,56
 0 1897 0 1897 74 1973 c 0,57,58
 150 2048 150 2048 256 2048 c 0,59,60
 361 2048 361 2048 437 1973 c 0,61,62
 512 1897 512 1897 512 1792 c 0,63,64
 512 1686 512 1686 437 1610 c 0,65,66
 361 1536 361 1536 256 1536 c 1,67,-1
 256 1536 l 1,51,52
256 2048 m 1,68,69
 150 2048 150 2048 74 2122 c 0,70,71
 0 2198 0 2198 0 2304 c 0,72,73
 0 2409 0 2409 74 2485 c 0,74,75
 150 2560 150 2560 256 2560 c 0,76,77
 361 2560 361 2560 437 2485 c 0,78,79
 512 2409 512 2409 512 2304 c 0,80,81
 512 2198 512 2198 437 2122 c 0,82,83
 361 2048 361 2048 256 2048 c 1,84,-1
 256 2048 l 1,68,69
768 2560 m 1,85,86
 662 2560 662 2560 586 2634 c 0,87,88
 512 2710 512 2710 512 2816 c 0,89,90
 512 2921 512 2921 586 2997 c 0,91,92
 662 3072 662 3072 768 3072 c 0,93,94
 873 3072 873 3072 949 2997 c 0,95,96
 1024 2921 1024 2921 1024 2816 c 0,97,98
 1024 2710 1024 2710 949 2634 c 0,99,100
 873 2560 873 2560 768 2560 c 1,101,-1
 768 2560 l 1,85,86
1280 3072 m 1,102,103
 1174 3072 1174 3072 1098 3146 c 0,104,105
 1024 3222 1024 3222 1024 3328 c 0,106,107
 1024 3433 1024 3433 1098 3509 c 0,108,109
 1174 3584 1174 3584 1280 3584 c 0,110,111
 1385 3584 1385 3584 1461 3509 c 0,112,113
 1536 3433 1536 3433 1536 3328 c 0,114,115
 1536 3222 1536 3222 1461 3146 c 0,116,117
 1385 3072 1385 3072 1280 3072 c 1,118,-1
 1280 3072 l 1,102,103
EndSplineSet
Validated: 5
EndChar

StartChar: parenright
Encoding: 41 41 12
Width: 2048
GlyphClass: 1
Flags: W
LayerCount: 3
Fore
SplineSet
256 0 m 1,0,1
 150 0 150 0 74 74 c 0,2,3
 0 150 0 150 0 256 c 0,4,5
 0 361 0 361 74 437 c 0,6,7
 150 512 150 512 256 512 c 0,8,9
 361 512 361 512 437 437 c 0,10,11
 512 361 512 361 512 256 c 0,12,13
 512 150 512 150 437 74 c 0,14,15
 361 0 361 0 256 0 c 1,16,-1
 256 0 l 1,0,1
768 512 m 1,17,18
 662 512 662 512 586 586 c 0,19,20
 512 662 512 662 512 768 c 0,21,22
 512 873 512 873 586 949 c 0,23,24
 662 1024 662 1024 768 1024 c 0,25,26
 873 1024 873 1024 949 949 c 0,27,28
 1024 873 1024 873 1024 768 c 0,29,30
 1024 662 1024 662 949 586 c 0,31,32
 873 512 873 512 768 512 c 1,33,-1
 768 512 l 1,17,18
1280 1024 m 1,34,35
 1174 1024 1174 1024 1098 1098 c 0,36,37
 1024 1174 1024 1174 1024 1280 c 0,38,39
 1024 1385 1024 1385 1098 1461 c 0,40,41
 1174 1536 1174 1536 1280 1536 c 0,42,43
 1385 1536 1385 1536 1461 1461 c 0,44,45
 1536 1385 1536 1385 1536 1280 c 0,46,47
 1536 1174 1536 1174 1461 1098 c 0,48,49
 1385 1024 1385 1024 1280 1024 c 1,50,-1
 1280 1024 l 1,34,35
1280 1536 m 1,51,52
 1174 1536 1174 1536 1098 1610 c 0,53,54
 1024 1686 1024 1686 1024 1792 c 0,55,56
 1024 1897 1024 1897 1098 1973 c 0,57,58
 1174 2048 1174 2048 1280 2048 c 0,59,60
 1385 2048 1385 2048 1461 1973 c 0,61,62
 1536 1897 1536 1897 1536 1792 c 0,63,64
 1536 1686 1536 1686 1461 1610 c 0,65,66
 1385 1536 1385 1536 1280 1536 c 1,67,-1
 1280 1536 l 1,51,52
1280 2048 m 1,68,69
 1174 2048 1174 2048 1098 2122 c 0,70,71
 1024 2198 1024 2198 1024 2304 c 0,72,73
 1024 2409 1024 2409 1098 2485 c 0,74,75
 1174 2560 1174 2560 1280 2560 c 0,76,77
 1385 2560 1385 2560 1461 2485 c 0,78,79
 1536 2409 1536 2409 1536 2304 c 0,80,81
 1536 2198 1536 2198 1461 2122 c 0,82,83
 1385 2048 1385 2048 1280 2048 c 1,84,-1
 1280 2048 l 1,68,69
768 2560 m 1,85,86
 662 2560 662 2560 586 2634 c 0,87,88
 512 2710 512 2710 512 2816 c 0,89,90
 512 2921 512 2921 586 2997 c 0,91,92
 662 3072 662 3072 768 3072 c 0,93,94
 873 3072 873 3072 949 2997 c 0,95,96
 1024 2921 1024 2921 1024 2816 c 0,97,98
 1024 2710 1024 2710 949 2634 c 0,99,100
 873 2560 873 2560 768 2560 c 1,101,-1
 768 2560 l 1,85,86
256 3072 m 1,102,103
 150 3072 150 3072 74 3146 c 0,104,105
 0 3222 0 3222 0 3328 c 0,106,107
 0 3433 0 3433 74 3509 c 0,108,109
 150 3584 150 3584 256 3584 c 0,110,111
 361 3584 361 3584 437 3509 c 0,112,113
 512 3433 512 3433 512 3328 c 0,114,115
 512 3222 512 3222 437 3146 c 0,116,117
 361 3072 361 3072 256 3072 c 1,118,-1
 256 3072 l 1,102,103
EndSplineSet
Validated: 5
EndChar

StartChar: asterisk
Encoding: 42 42 13
Width: 2048
GlyphClass: 1
Flags: W
LayerCount: 3
Fore
SplineSet
256 2048 m 1,0,1
 150 2048 150 2048 74 2122 c 0,2,3
 0 2198 0 2198 0 2304 c 0,4,5
 0 2409 0 2409 74 2485 c 0,6,7
 150 2560 150 2560 256 2560 c 0,8,9
 361 2560 361 2560 437 2485 c 0,10,11
 512 2409 512 2409 512 2304 c 0,12,13
 512 2198 512 2198 437 2122 c 0,14,15
 361 2048 361 2048 256 2048 c 1,16,-1
 256 2048 l 1,0,1
1280 2048 m 1,17,18
 1174 2048 1174 2048 1098 2122 c 0,19,20
 1024 2198 1024 2198 1024 2304 c 0,21,22
 1024 2409 1024 2409 1098 2485 c 0,23,24
 1174 2560 1174 2560 1280 2560 c 0,25,26
 1385 2560 1385 2560 1461 2485 c 0,27,28
 1536 2409 1536 2409 1536 2304 c 0,29,30
 1536 2198 1536 2198 1461 2122 c 0,31,32
 1385 2048 1385 2048 1280 2048 c 1,33,-1
 1280 2048 l 1,17,18
768 2560 m 1,34,35
 662 2560 662 2560 586 2634 c 0,36,37
 512 2710 512 2710 512 2816 c 0,38,39
 512 2921 512 2921 586 2997 c 0,40,41
 662 3072 662 3072 768 3072 c 0,42,43
 873 3072 873 3072 949 2997 c 0,44,45
 1024 2921 1024 2921 1024 2816 c 0,46,47
 1024 2710 1024 2710 949 2634 c 0,48,49
 873 2560 873 2560 768 2560 c 1,50,-1
 768 2560 l 1,34,35
256 3072 m 1,51,52
 150 3072 150 3072 74 3146 c 0,53,54
 0 3222 0 3222 0 3328 c 0,55,56
 0 3433 0 3433 74 3509 c 0,57,58
 150 3584 150 3584 256 3584 c 0,59,60
 361 3584 361 3584 437 3509 c 0,61,62
 512 3433 512 3433 512 3328 c 0,63,64
 512 3222 512 3222 437 3146 c 0,65,66
 361 3072 361 3072 256 3072 c 1,67,-1
 256 3072 l 1,51,52
1280 3072 m 1,68,69
 1174 3072 1174 3072 1098 3146 c 0,70,71
 1024 3222 1024 3222 1024 3328 c 0,72,73
 1024 3433 1024 3433 1098 3509 c 0,74,75
 1174 3584 1174 3584 1280 3584 c 0,76,77
 1385 3584 1385 3584 1461 3509 c 0,78,79
 1536 3433 1536 3433 1536 3328 c 0,80,81
 1536 3222 1536 3222 1461 3146 c 0,82,83
 1385 3072 1385 3072 1280 3072 c 1,84,-1
 1280 3072 l 1,68,69
EndSplineSet
Validated: 5
EndChar

StartChar: plus
Encoding: 43 43 14
Width: 3072
GlyphClass: 1
Flags: W
LayerCount: 3
Fore
SplineSet
1280 0 m 1,0,1
 1174 0 1174 0 1098 74 c 0,2,3
 1024 150 1024 150 1024 256 c 0,4,5
 1024 361 1024 361 1098 437 c 0,6,7
 1174 512 1174 512 1280 512 c 0,8,9
 1385 512 1385 512 1461 437 c 0,10,11
 1536 361 1536 361 1536 256 c 0,12,13
 1536 150 1536 150 1461 74 c 0,14,15
 1385 0 1385 0 1280 0 c 1,16,-1
 1280 0 l 1,0,1
1280 512 m 1,17,18
 1174 512 1174 512 1098 586 c 0,19,20
 1024 662 1024 662 1024 768 c 0,21,22
 1024 873 1024 873 1098 949 c 0,23,24
 1174 1024 1174 1024 1280 1024 c 0,25,26
 1385 1024 1385 1024 1461 949 c 0,27,28
 1536 873 1536 873 1536 768 c 0,29,30
 1536 662 1536 662 1461 586 c 0,31,32
 1385 512 1385 512 1280 512 c 1,33,-1
 1280 512 l 1,17,18
256 1024 m 1,34,35
 150 1024 150 1024 74 1098 c 0,36,37
 0 1174 0 1174 0 1280 c 0,38,39
 0 1385 0 1385 74 1461 c 0,40,41
 150 1536 150 1536 256 1536 c 0,42,43
 361 1536 361 1536 437 1461 c 0,44,45
 512 1385 512 1385 512 1280 c 0,46,47
 512 1174 512 1174 437 1098 c 0,48,49
 361 1024 361 1024 256 1024 c 1,50,-1
 256 1024 l 1,34,35
768 1024 m 1,51,52
 662 1024 662 1024 586 1098 c 0,53,54
 512 1174 512 1174 512 1280 c 0,55,56
 512 1385 512 1385 586 1461 c 0,57,58
 662 1536 662 1536 768 1536 c 0,59,60
 873 1536 873 1536 949 1461 c 0,61,62
 1024 1385 1024 1385 1024 1280 c 0,63,64
 1024 1174 1024 1174 949 1098 c 0,65,66
 873 1024 873 1024 768 1024 c 1,67,-1
 768 1024 l 1,51,52
1280 1024 m 1,68,69
 1174 1024 1174 1024 1098 1098 c 0,70,71
 1024 1174 1024 1174 1024 1280 c 0,72,73
 1024 1385 1024 1385 1098 1461 c 0,74,75
 1174 1536 1174 1536 1280 1536 c 0,76,77
 1385 1536 1385 1536 1461 1461 c 0,78,79
 1536 1385 1536 1385 1536 1280 c 0,80,81
 1536 1174 1536 1174 1461 1098 c 0,82,83
 1385 1024 1385 1024 1280 1024 c 1,84,-1
 1280 1024 l 1,68,69
1792 1024 m 1,85,86
 1686 1024 1686 1024 1610 1098 c 0,87,88
 1536 1174 1536 1174 1536 1280 c 0,89,90
 1536 1385 1536 1385 1610 1461 c 0,91,92
 1686 1536 1686 1536 1792 1536 c 0,93,94
 1897 1536 1897 1536 1973 1461 c 0,95,96
 2048 1385 2048 1385 2048 1280 c 0,97,98
 2048 1174 2048 1174 1973 1098 c 0,99,100
 1897 1024 1897 1024 1792 1024 c 1,101,-1
 1792 1024 l 1,85,86
2304 1024 m 1,102,103
 2198 1024 2198 1024 2122 1098 c 0,104,105
 2048 1174 2048 1174 2048 1280 c 0,106,107
 2048 1385 2048 1385 2122 1461 c 0,108,109
 2198 1536 2198 1536 2304 1536 c 0,110,111
 2409 1536 2409 1536 2485 1461 c 0,112,113
 2560 1385 2560 1385 2560 1280 c 0,114,115
 2560 1174 2560 1174 2485 1098 c 0,116,117
 2409 1024 2409 1024 2304 1024 c 1,118,-1
 2304 1024 l 1,102,103
1280 1536 m 1,119,120
 1174 1536 1174 1536 1098 1610 c 0,121,122
 1024 1686 1024 1686 1024 1792 c 0,123,124
 1024 1897 1024 1897 1098 1973 c 0,125,126
 1174 2048 1174 2048 1280 2048 c 0,127,128
 1385 2048 1385 2048 1461 1973 c 0,129,130
 1536 1897 1536 1897 1536 1792 c 0,131,132
 1536 1686 1536 1686 1461 1610 c 0,133,134
 1385 1536 1385 1536 1280 1536 c 1,135,-1
 1280 1536 l 1,119,120
1280 2048 m 1,136,137
 1174 2048 1174 2048 1098 2122 c 0,138,139
 1024 2198 1024 2198 1024 2304 c 0,140,141
 1024 2409 1024 2409 1098 2485 c 0,142,143
 1174 2560 1174 2560 1280 2560 c 0,144,145
 1385 2560 1385 2560 1461 2485 c 0,146,147
 1536 2409 1536 2409 1536 2304 c 0,148,149
 1536 2198 1536 2198 1461 2122 c 0,150,151
 1385 2048 1385 2048 1280 2048 c 1,152,-1
 1280 2048 l 1,136,137
EndSplineSet
Validated: 5
EndChar

StartChar: comma
Encoding: 44 44 15
Width: 1024
GlyphClass: 1
Flags: W
LayerCount: 3
Fore
SplineSet
256 -512 m 1,0,1
 150 -512 150 -512 74 -437 c 0,2,3
 0 -361 0 -361 0 -256 c 0,4,5
 0 -150 0 -150 74 -74 c 0,6,7
 150 0 150 0 256 0 c 0,8,9
 361 0 361 0 437 -74 c 0,10,11
 512 -150 512 -150 512 -256 c 0,12,13
 512 -361 512 -361 437 -437 c 0,14,15
 361 -512 361 -512 256 -512 c 1,16,-1
 256 -512 l 1,0,1
256 0 m 1,17,18
 150 0 150 0 74 74 c 0,19,20
 0 150 0 150 0 256 c 0,21,22
 0 361 0 361 74 437 c 0,23,24
 150 512 150 512 256 512 c 0,25,26
 361 512 361 512 437 437 c 0,27,28
 512 361 512 361 512 256 c 0,29,30
 512 150 512 150 437 74 c 0,31,32
 361 0 361 0 256 0 c 1,33,-1
 256 0 l 1,17,18
EndSplineSet
Validated: 5
EndChar

StartChar: hyphen
Encoding: 45 45 16
Width: 3072
GlyphClass: 1
Flags: W
LayerCount: 3
Fore
SplineSet
256 1024 m 1,0,1
 150 1024 150 1024 74 1098 c 0,2,3
 0 1174 0 1174 0 1280 c 0,4,5
 0 1385 0 1385 74 1461 c 0,6,7
 150 1536 150 1536 256 1536 c 0,8,9
 361 1536 361 1536 437 1461 c 0,10,11
 512 1385 512 1385 512 1280 c 0,12,13
 512 1174 512 1174 437 1098 c 0,14,15
 361 1024 361 1024 256 1024 c 1,16,-1
 256 1024 l 1,0,1
768 1024 m 1,17,18
 662 1024 662 1024 586 1098 c 0,19,20
 512 1174 512 1174 512 1280 c 0,21,22
 512 1385 512 1385 586 1461 c 0,23,24
 662 1536 662 1536 768 1536 c 0,25,26
 873 1536 873 1536 949 1461 c 0,27,28
 1024 1385 1024 1385 1024 1280 c 0,29,30
 1024 1174 1024 1174 949 1098 c 0,31,32
 873 1024 873 1024 768 1024 c 1,33,-1
 768 1024 l 1,17,18
1280 1024 m 1,34,35
 1174 1024 1174 1024 1098 1098 c 0,36,37
 1024 1174 1024 1174 1024 1280 c 0,38,39
 1024 1385 1024 1385 1098 1461 c 0,40,41
 1174 1536 1174 1536 1280 1536 c 0,42,43
 1385 1536 1385 1536 1461 1461 c 0,44,45
 1536 1385 1536 1385 1536 1280 c 0,46,47
 1536 1174 1536 1174 1461 1098 c 0,48,49
 1385 1024 1385 1024 1280 1024 c 1,50,-1
 1280 1024 l 1,34,35
1792 1024 m 1,51,52
 1686 1024 1686 1024 1610 1098 c 0,53,54
 1536 1174 1536 1174 1536 1280 c 0,55,56
 1536 1385 1536 1385 1610 1461 c 0,57,58
 1686 1536 1686 1536 1792 1536 c 0,59,60
 1897 1536 1897 1536 1973 1461 c 0,61,62
 2048 1385 2048 1385 2048 1280 c 0,63,64
 2048 1174 2048 1174 1973 1098 c 0,65,66
 1897 1024 1897 1024 1792 1024 c 1,67,-1
 1792 1024 l 1,51,52
2304 1024 m 1,68,69
 2198 1024 2198 1024 2122 1098 c 0,70,71
 2048 1174 2048 1174 2048 1280 c 0,72,73
 2048 1385 2048 1385 2122 1461 c 0,74,75
 2198 1536 2198 1536 2304 1536 c 0,76,77
 2409 1536 2409 1536 2485 1461 c 0,78,79
 2560 1385 2560 1385 2560 1280 c 0,80,81
 2560 1174 2560 1174 2485 1098 c 0,82,83
 2409 1024 2409 1024 2304 1024 c 1,84,-1
 2304 1024 l 1,68,69
EndSplineSet
Validated: 5
EndChar

StartChar: period
Encoding: 46 46 17
Width: 1024
GlyphClass: 1
Flags: W
LayerCount: 3
Fore
SplineSet
256 0 m 1,0,1
 150 0 150 0 74 74 c 0,2,3
 0 150 0 150 0 256 c 0,4,5
 0 361 0 361 74 437 c 0,6,7
 150 512 150 512 256 512 c 0,8,9
 361 512 361 512 437 437 c 0,10,11
 512 361 512 361 512 256 c 0,12,13
 512 150 512 150 437 74 c 0,14,15
 361 0 361 0 256 0 c 1,16,-1
 256 0 l 1,0,1
EndSplineSet
Validated: 5
EndChar

StartChar: slash
Encoding: 47 47 18
Width: 3072
GlyphClass: 1
Flags: W
LayerCount: 3
Fore
SplineSet
256 0 m 1,0,1
 150 0 150 0 74 74 c 0,2,3
 0 150 0 150 0 256 c 0,4,5
 0 361 0 361 74 437 c 0,6,7
 150 512 150 512 256 512 c 0,8,9
 361 512 361 512 437 437 c 0,10,11
 512 361 512 361 512 256 c 0,12,13
 512 150 512 150 437 74 c 0,14,15
 361 0 361 0 256 0 c 1,16,-1
 256 0 l 1,0,1
768 512 m 1,17,18
 662 512 662 512 586 586 c 0,19,20
 512 662 512 662 512 768 c 0,21,22
 512 873 512 873 586 949 c 0,23,24
 662 1024 662 1024 768 1024 c 0,25,26
 873 1024 873 1024 949 949 c 0,27,28
 1024 873 1024 873 1024 768 c 0,29,30
 1024 662 1024 662 949 586 c 0,31,32
 873 512 873 512 768 512 c 1,33,-1
 768 512 l 1,17,18
768 1024 m 1,34,35
 662 1024 662 1024 586 1098 c 0,36,37
 512 1174 512 1174 512 1280 c 0,38,39
 512 1385 512 1385 586 1461 c 0,40,41
 662 1536 662 1536 768 1536 c 0,42,43
 873 1536 873 1536 949 1461 c 0,44,45
 1024 1385 1024 1385 1024 1280 c 0,46,47
 1024 1174 1024 1174 949 1098 c 0,48,49
 873 1024 873 1024 768 1024 c 1,50,-1
 768 1024 l 1,34,35
1280 1536 m 1,51,52
 1174 1536 1174 1536 1098 1610 c 0,53,54
 1024 1686 1024 1686 1024 1792 c 0,55,56
 1024 1897 1024 1897 1098 1973 c 0,57,58
 1174 2048 1174 2048 1280 2048 c 0,59,60
 1385 2048 1385 2048 1461 1973 c 0,61,62
 1536 1897 1536 1897 1536 1792 c 0,63,64
 1536 1686 1536 1686 1461 1610 c 0,65,66
 1385 1536 1385 1536 1280 1536 c 1,67,-1
 1280 1536 l 1,51,52
1792 2048 m 1,68,69
 1686 2048 1686 2048 1610 2122 c 0,70,71
 1536 2198 1536 2198 1536 2304 c 0,72,73
 1536 2409 1536 2409 1610 2485 c 0,74,75
 1686 2560 1686 2560 1792 2560 c 0,76,77
 1897 2560 1897 2560 1973 2485 c 0,78,79
 2048 2409 2048 2409 2048 2304 c 0,80,81
 2048 2198 2048 2198 1973 2122 c 0,82,83
 1897 2048 1897 2048 1792 2048 c 1,84,-1
 1792 2048 l 1,68,69
1792 2560 m 1,85,86
 1686 2560 1686 2560 1610 2634 c 0,87,88
 1536 2710 1536 2710 1536 2816 c 0,89,90
 1536 2921 1536 2921 1610 2997 c 0,91,92
 1686 3072 1686 3072 1792 3072 c 0,93,94
 1897 3072 1897 3072 1973 2997 c 0,95,96
 2048 2921 2048 2921 2048 2816 c 0,97,98
 2048 2710 2048 2710 1973 2634 c 0,99,100
 1897 2560 1897 2560 1792 2560 c 1,101,-1
 1792 2560 l 1,85,86
2304 3072 m 1,102,103
 2198 3072 2198 3072 2122 3146 c 0,104,105
 2048 3222 2048 3222 2048 3328 c 0,106,107
 2048 3433 2048 3433 2122 3509 c 0,108,109
 2198 3584 2198 3584 2304 3584 c 0,110,111
 2409 3584 2409 3584 2485 3509 c 0,112,113
 2560 3433 2560 3433 2560 3328 c 0,114,115
 2560 3222 2560 3222 2485 3146 c 0,116,117
 2409 3072 2409 3072 2304 3072 c 1,118,-1
 2304 3072 l 1,102,103
EndSplineSet
Validated: 5
EndChar

StartChar: zero
Encoding: 48 48 19
Width: 3072
GlyphClass: 1
Flags: W
LayerCount: 3
Fore
SplineSet
768 0 m 1,0,1
 662 0 662 0 586 74 c 0,2,3
 512 150 512 150 512 256 c 0,4,5
 512 361 512 361 586 437 c 0,6,7
 662 512 662 512 768 512 c 0,8,9
 873 512 873 512 949 437 c 0,10,11
 1024 361 1024 361 1024 256 c 0,12,13
 1024 150 1024 150 949 74 c 0,14,15
 873 0 873 0 768 0 c 1,16,-1
 768 0 l 1,0,1
1280 0 m 1,17,18
 1174 0 1174 0 1098 74 c 0,19,20
 1024 150 1024 150 1024 256 c 0,21,22
 1024 361 1024 361 1098 437 c 0,23,24
 1174 512 1174 512 1280 512 c 0,25,26
 1385 512 1385 512 1461 437 c 0,27,28
 1536 361 1536 361 1536 256 c 0,29,30
 1536 150 1536 150 1461 74 c 0,31,32
 1385 0 1385 0 1280 0 c 1,33,-1
 1280 0 l 1,17,18
1792 0 m 1,34,35
 1686 0 1686 0 1610 74 c 0,36,37
 1536 150 1536 150 1536 256 c 0,38,39
 1536 361 1536 361 1610 437 c 0,40,41
 1686 512 1686 512 1792 512 c 0,42,43
 1897 512 1897 512 1973 437 c 0,44,45
 2048 361 2048 361 2048 256 c 0,46,47
 2048 150 2048 150 1973 74 c 0,48,49
 1897 0 1897 0 1792 0 c 1,50,-1
 1792 0 l 1,34,35
256 512 m 1,51,52
 150 512 150 512 74 586 c 0,53,54
 0 662 0 662 0 768 c 0,55,56
 0 873 0 873 74 949 c 0,57,58
 150 1024 150 1024 256 1024 c 0,59,60
 361 1024 361 1024 437 949 c 0,61,62
 512 873 512 873 512 768 c 0,63,64
 512 662 512 662 437 586 c 0,65,66
 361 512 361 512 256 512 c 1,67,-1
 256 512 l 1,51,52
2304 512 m 1,68,69
 2198 512 2198 512 2122 586 c 0,70,71
 2048 662 2048 662 2048 768 c 0,72,73
 2048 873 2048 873 2122 949 c 0,74,75
 2198 1024 2198 1024 2304 1024 c 0,76,77
 2409 1024 2409 1024 2485 949 c 0,78,79
 2560 873 2560 873 2560 768 c 0,80,81
 2560 662 2560 662 2485 586 c 0,82,83
 2409 512 2409 512 2304 512 c 1,84,-1
 2304 512 l 1,68,69
256 1024 m 1,85,86
 150 1024 150 1024 74 1098 c 0,87,88
 0 1174 0 1174 0 1280 c 0,89,90
 0 1385 0 1385 74 1461 c 0,91,92
 150 1536 150 1536 256 1536 c 0,93,94
 361 1536 361 1536 437 1461 c 0,95,96
 512 1385 512 1385 512 1280 c 0,97,98
 512 1174 512 1174 437 1098 c 0,99,100
 361 1024 361 1024 256 1024 c 1,101,-1
 256 1024 l 1,85,86
768 1024 m 1,102,103
 662 1024 662 1024 586 1098 c 0,104,105
 512 1174 512 1174 512 1280 c 0,106,107
 512 1385 512 1385 586 1461 c 0,108,109
 662 1536 662 1536 768 1536 c 0,110,111
 873 1536 873 1536 949 1461 c 0,112,113
 1024 1385 1024 1385 1024 1280 c 0,114,115
 1024 1174 1024 1174 949 1098 c 0,116,117
 873 1024 873 1024 768 1024 c 1,118,-1
 768 1024 l 1,102,103
2304 1024 m 1,119,120
 2198 1024 2198 1024 2122 1098 c 0,121,122
 2048 1174 2048 1174 2048 1280 c 0,123,124
 2048 1385 2048 1385 2122 1461 c 0,125,126
 2198 1536 2198 1536 2304 1536 c 0,127,128
 2409 1536 2409 1536 2485 1461 c 0,129,130
 2560 1385 2560 1385 2560 1280 c 0,131,132
 2560 1174 2560 1174 2485 1098 c 0,133,134
 2409 1024 2409 1024 2304 1024 c 1,135,-1
 2304 1024 l 1,119,120
256 1536 m 1,136,137
 150 1536 150 1536 74 1610 c 0,138,139
 0 1686 0 1686 0 1792 c 0,140,141
 0 1897 0 1897 74 1973 c 0,142,143
 150 2048 150 2048 256 2048 c 0,144,145
 361 2048 361 2048 437 1973 c 0,146,147
 512 1897 512 1897 512 1792 c 0,148,149
 512 1686 512 1686 437 1610 c 0,150,151
 361 1536 361 1536 256 1536 c 1,152,-1
 256 1536 l 1,136,137
1280 1536 m 1,153,154
 1174 1536 1174 1536 1098 1610 c 0,155,156
 1024 1686 1024 1686 1024 1792 c 0,157,158
 1024 1897 1024 1897 1098 1973 c 0,159,160
 1174 2048 1174 2048 1280 2048 c 0,161,162
 1385 2048 1385 2048 1461 1973 c 0,163,164
 1536 1897 1536 1897 1536 1792 c 0,165,166
 1536 1686 1536 1686 1461 1610 c 0,167,168
 1385 1536 1385 1536 1280 1536 c 1,169,-1
 1280 1536 l 1,153,154
2304 1536 m 1,170,171
 2198 1536 2198 1536 2122 1610 c 0,172,173
 2048 1686 2048 1686 2048 1792 c 0,174,175
 2048 1897 2048 1897 2122 1973 c 0,176,177
 2198 2048 2198 2048 2304 2048 c 0,178,179
 2409 2048 2409 2048 2485 1973 c 0,180,181
 2560 1897 2560 1897 2560 1792 c 0,182,183
 2560 1686 2560 1686 2485 1610 c 0,184,185
 2409 1536 2409 1536 2304 1536 c 1,186,-1
 2304 1536 l 1,170,171
256 2048 m 1,187,188
 150 2048 150 2048 74 2122 c 0,189,190
 0 2198 0 2198 0 2304 c 0,191,192
 0 2409 0 2409 74 2485 c 0,193,194
 150 2560 150 2560 256 2560 c 0,195,196
 361 2560 361 2560 437 2485 c 0,197,198
 512 2409 512 2409 512 2304 c 0,199,200
 512 2198 512 2198 437 2122 c 0,201,202
 361 2048 361 2048 256 2048 c 1,203,-1
 256 2048 l 1,187,188
1792 2048 m 1,204,205
 1686 2048 1686 2048 1610 2122 c 0,206,207
 1536 2198 1536 2198 1536 2304 c 0,208,209
 1536 2409 1536 2409 1610 2485 c 0,210,211
 1686 2560 1686 2560 1792 2560 c 0,212,213
 1897 2560 1897 2560 1973 2485 c 0,214,215
 2048 2409 2048 2409 2048 2304 c 0,216,217
 2048 2198 2048 2198 1973 2122 c 0,218,219
 1897 2048 1897 2048 1792 2048 c 1,220,-1
 1792 2048 l 1,204,205
2304 2048 m 1,221,222
 2198 2048 2198 2048 2122 2122 c 0,223,224
 2048 2198 2048 2198 2048 2304 c 0,225,226
 2048 2409 2048 2409 2122 2485 c 0,227,228
 2198 2560 2198 2560 2304 2560 c 0,229,230
 2409 2560 2409 2560 2485 2485 c 0,231,232
 2560 2409 2560 2409 2560 2304 c 0,233,234
 2560 2198 2560 2198 2485 2122 c 0,235,236
 2409 2048 2409 2048 2304 2048 c 1,237,-1
 2304 2048 l 1,221,222
256 2560 m 1,238,239
 150 2560 150 2560 74 2634 c 0,240,241
 0 2710 0 2710 0 2816 c 0,242,243
 0 2921 0 2921 74 2997 c 0,244,245
 150 3072 150 3072 256 3072 c 0,246,247
 361 3072 361 3072 437 2997 c 0,248,249
 512 2921 512 2921 512 2816 c 0,250,251
 512 2710 512 2710 437 2634 c 0,252,253
 361 2560 361 2560 256 2560 c 1,254,-1
 256 2560 l 1,238,239
2304 2560 m 1,255,256
 2198 2560 2198 2560 2122 2634 c 0,257,258
 2048 2710 2048 2710 2048 2816 c 0,259,260
 2048 2921 2048 2921 2122 2997 c 0,261,262
 2198 3072 2198 3072 2304 3072 c 0,263,264
 2409 3072 2409 3072 2485 2997 c 0,265,266
 2560 2921 2560 2921 2560 2816 c 0,267,268
 2560 2710 2560 2710 2485 2634 c 0,269,270
 2409 2560 2409 2560 2304 2560 c 1,271,-1
 2304 2560 l 1,255,256
768 3072 m 1,272,273
 662 3072 662 3072 586 3146 c 0,274,275
 512 3222 512 3222 512 3328 c 0,276,277
 512 3433 512 3433 586 3509 c 0,278,279
 662 3584 662 3584 768 3584 c 0,280,281
 873 3584 873 3584 949 3509 c 0,282,283
 1024 3433 1024 3433 1024 3328 c 0,284,285
 1024 3222 1024 3222 949 3146 c 0,286,287
 873 3072 873 3072 768 3072 c 1,288,-1
 768 3072 l 1,272,273
1280 3072 m 1,289,290
 1174 3072 1174 3072 1098 3146 c 0,291,292
 1024 3222 1024 3222 1024 3328 c 0,293,294
 1024 3433 1024 3433 1098 3509 c 0,295,296
 1174 3584 1174 3584 1280 3584 c 0,297,298
 1385 3584 1385 3584 1461 3509 c 0,299,300
 1536 3433 1536 3433 1536 3328 c 0,301,302
 1536 3222 1536 3222 1461 3146 c 0,303,304
 1385 3072 1385 3072 1280 3072 c 1,305,-1
 1280 3072 l 1,289,290
1792 3072 m 1,306,307
 1686 3072 1686 3072 1610 3146 c 0,308,309
 1536 3222 1536 3222 1536 3328 c 0,310,311
 1536 3433 1536 3433 1610 3509 c 0,312,313
 1686 3584 1686 3584 1792 3584 c 0,314,315
 1897 3584 1897 3584 1973 3509 c 0,316,317
 2048 3433 2048 3433 2048 3328 c 0,318,319
 2048 3222 2048 3222 1973 3146 c 0,320,321
 1897 3072 1897 3072 1792 3072 c 1,322,-1
 1792 3072 l 1,306,307
EndSplineSet
Validated: 5
EndChar

StartChar: one
Encoding: 49 49 20
Width: 3072
GlyphClass: 1
Flags: W
LayerCount: 3
Fore
SplineSet
256 0 m 1,0,1
 150 0 150 0 74 74 c 0,2,3
 0 150 0 150 0 256 c 0,4,5
 0 361 0 361 74 437 c 0,6,7
 150 512 150 512 256 512 c 0,8,9
 361 512 361 512 437 437 c 0,10,11
 512 361 512 361 512 256 c 0,12,13
 512 150 512 150 437 74 c 0,14,15
 361 0 361 0 256 0 c 1,16,-1
 256 0 l 1,0,1
768 0 m 1,17,18
 662 0 662 0 586 74 c 0,19,20
 512 150 512 150 512 256 c 0,21,22
 512 361 512 361 586 437 c 0,23,24
 662 512 662 512 768 512 c 0,25,26
 873 512 873 512 949 437 c 0,27,28
 1024 361 1024 361 1024 256 c 0,29,30
 1024 150 1024 150 949 74 c 0,31,32
 873 0 873 0 768 0 c 1,33,-1
 768 0 l 1,17,18
1280 0 m 1,34,35
 1174 0 1174 0 1098 74 c 0,36,37
 1024 150 1024 150 1024 256 c 0,38,39
 1024 361 1024 361 1098 437 c 0,40,41
 1174 512 1174 512 1280 512 c 0,42,43
 1385 512 1385 512 1461 437 c 0,44,45
 1536 361 1536 361 1536 256 c 0,46,47
 1536 150 1536 150 1461 74 c 0,48,49
 1385 0 1385 0 1280 0 c 1,50,-1
 1280 0 l 1,34,35
1792 0 m 1,51,52
 1686 0 1686 0 1610 74 c 0,53,54
 1536 150 1536 150 1536 256 c 0,55,56
 1536 361 1536 361 1610 437 c 0,57,58
 1686 512 1686 512 1792 512 c 0,59,60
 1897 512 1897 512 1973 437 c 0,61,62
 2048 361 2048 361 2048 256 c 0,63,64
 2048 150 2048 150 1973 74 c 0,65,66
 1897 0 1897 0 1792 0 c 1,67,-1
 1792 0 l 1,51,52
2304 0 m 1,68,69
 2198 0 2198 0 2122 74 c 0,70,71
 2048 150 2048 150 2048 256 c 0,72,73
 2048 361 2048 361 2122 437 c 0,74,75
 2198 512 2198 512 2304 512 c 0,76,77
 2409 512 2409 512 2485 437 c 0,78,79
 2560 361 2560 361 2560 256 c 0,80,81
 2560 150 2560 150 2485 74 c 0,82,83
 2409 0 2409 0 2304 0 c 1,84,-1
 2304 0 l 1,68,69
1280 512 m 1,85,86
 1174 512 1174 512 1098 586 c 0,87,88
 1024 662 1024 662 1024 768 c 0,89,90
 1024 873 1024 873 1098 949 c 0,91,92
 1174 1024 1174 1024 1280 1024 c 0,93,94
 1385 1024 1385 1024 1461 949 c 0,95,96
 1536 873 1536 873 1536 768 c 0,97,98
 1536 662 1536 662 1461 586 c 0,99,100
 1385 512 1385 512 1280 512 c 1,101,-1
 1280 512 l 1,85,86
1280 1024 m 1,102,103
 1174 1024 1174 1024 1098 1098 c 0,104,105
 1024 1174 1024 1174 1024 1280 c 0,106,107
 1024 1385 1024 1385 1098 1461 c 0,108,109
 1174 1536 1174 1536 1280 1536 c 0,110,111
 1385 1536 1385 1536 1461 1461 c 0,112,113
 1536 1385 1536 1385 1536 1280 c 0,114,115
 1536 1174 1536 1174 1461 1098 c 0,116,117
 1385 1024 1385 1024 1280 1024 c 1,118,-1
 1280 1024 l 1,102,103
1280 1536 m 1,119,120
 1174 1536 1174 1536 1098 1610 c 0,121,122
 1024 1686 1024 1686 1024 1792 c 0,123,124
 1024 1897 1024 1897 1098 1973 c 0,125,126
 1174 2048 1174 2048 1280 2048 c 0,127,128
 1385 2048 1385 2048 1461 1973 c 0,129,130
 1536 1897 1536 1897 1536 1792 c 0,131,132
 1536 1686 1536 1686 1461 1610 c 0,133,134
 1385 1536 1385 1536 1280 1536 c 1,135,-1
 1280 1536 l 1,119,120
1280 2048 m 1,136,137
 1174 2048 1174 2048 1098 2122 c 0,138,139
 1024 2198 1024 2198 1024 2304 c 0,140,141
 1024 2409 1024 2409 1098 2485 c 0,142,143
 1174 2560 1174 2560 1280 2560 c 0,144,145
 1385 2560 1385 2560 1461 2485 c 0,146,147
 1536 2409 1536 2409 1536 2304 c 0,148,149
 1536 2198 1536 2198 1461 2122 c 0,150,151
 1385 2048 1385 2048 1280 2048 c 1,152,-1
 1280 2048 l 1,136,137
768 2560 m 1,153,154
 662 2560 662 2560 586 2634 c 0,155,156
 512 2710 512 2710 512 2816 c 0,157,158
 512 2921 512 2921 586 2997 c 0,159,160
 662 3072 662 3072 768 3072 c 0,161,162
 873 3072 873 3072 949 2997 c 0,163,164
 1024 2921 1024 2921 1024 2816 c 0,165,166
 1024 2710 1024 2710 949 2634 c 0,167,168
 873 2560 873 2560 768 2560 c 1,169,-1
 768 2560 l 1,153,154
1280 2560 m 1,170,171
 1174 2560 1174 2560 1098 2634 c 0,172,173
 1024 2710 1024 2710 1024 2816 c 0,174,175
 1024 2921 1024 2921 1098 2997 c 0,176,177
 1174 3072 1174 3072 1280 3072 c 0,178,179
 1385 3072 1385 3072 1461 2997 c 0,180,181
 1536 2921 1536 2921 1536 2816 c 0,182,183
 1536 2710 1536 2710 1461 2634 c 0,184,185
 1385 2560 1385 2560 1280 2560 c 1,186,-1
 1280 2560 l 1,170,171
1280 3072 m 1,187,188
 1174 3072 1174 3072 1098 3146 c 0,189,190
 1024 3222 1024 3222 1024 3328 c 0,191,192
 1024 3433 1024 3433 1098 3509 c 0,193,194
 1174 3584 1174 3584 1280 3584 c 0,195,196
 1385 3584 1385 3584 1461 3509 c 0,197,198
 1536 3433 1536 3433 1536 3328 c 0,199,200
 1536 3222 1536 3222 1461 3146 c 0,201,202
 1385 3072 1385 3072 1280 3072 c 1,203,-1
 1280 3072 l 1,187,188
EndSplineSet
Validated: 5
EndChar

StartChar: two
Encoding: 50 50 21
Width: 3072
GlyphClass: 1
Flags: W
LayerCount: 3
Fore
SplineSet
256 0 m 1,0,1
 150 0 150 0 74 74 c 0,2,3
 0 150 0 150 0 256 c 0,4,5
 0 361 0 361 74 437 c 0,6,7
 150 512 150 512 256 512 c 0,8,9
 361 512 361 512 437 437 c 0,10,11
 512 361 512 361 512 256 c 0,12,13
 512 150 512 150 437 74 c 0,14,15
 361 0 361 0 256 0 c 1,16,-1
 256 0 l 1,0,1
768 0 m 1,17,18
 662 0 662 0 586 74 c 0,19,20
 512 150 512 150 512 256 c 0,21,22
 512 361 512 361 586 437 c 0,23,24
 662 512 662 512 768 512 c 0,25,26
 873 512 873 512 949 437 c 0,27,28
 1024 361 1024 361 1024 256 c 0,29,30
 1024 150 1024 150 949 74 c 0,31,32
 873 0 873 0 768 0 c 1,33,-1
 768 0 l 1,17,18
1280 0 m 1,34,35
 1174 0 1174 0 1098 74 c 0,36,37
 1024 150 1024 150 1024 256 c 0,38,39
 1024 361 1024 361 1098 437 c 0,40,41
 1174 512 1174 512 1280 512 c 0,42,43
 1385 512 1385 512 1461 437 c 0,44,45
 1536 361 1536 361 1536 256 c 0,46,47
 1536 150 1536 150 1461 74 c 0,48,49
 1385 0 1385 0 1280 0 c 1,50,-1
 1280 0 l 1,34,35
1792 0 m 1,51,52
 1686 0 1686 0 1610 74 c 0,53,54
 1536 150 1536 150 1536 256 c 0,55,56
 1536 361 1536 361 1610 437 c 0,57,58
 1686 512 1686 512 1792 512 c 0,59,60
 1897 512 1897 512 1973 437 c 0,61,62
 2048 361 2048 361 2048 256 c 0,63,64
 2048 150 2048 150 1973 74 c 0,65,66
 1897 0 1897 0 1792 0 c 1,67,-1
 1792 0 l 1,51,52
2304 0 m 1,68,69
 2198 0 2198 0 2122 74 c 0,70,71
 2048 150 2048 150 2048 256 c 0,72,73
 2048 361 2048 361 2122 437 c 0,74,75
 2198 512 2198 512 2304 512 c 0,76,77
 2409 512 2409 512 2485 437 c 0,78,79
 2560 361 2560 361 2560 256 c 0,80,81
 2560 150 2560 150 2485 74 c 0,82,83
 2409 0 2409 0 2304 0 c 1,84,-1
 2304 0 l 1,68,69
256 512 m 1,85,86
 150 512 150 512 74 586 c 0,87,88
 0 662 0 662 0 768 c 0,89,90
 0 873 0 873 74 949 c 0,91,92
 150 1024 150 1024 256 1024 c 0,93,94
 361 1024 361 1024 437 949 c 0,95,96
 512 873 512 873 512 768 c 0,97,98
 512 662 512 662 437 586 c 0,99,100
 361 512 361 512 256 512 c 1,101,-1
 256 512 l 1,85,86
2304 512 m 1,102,103
 2198 512 2198 512 2122 586 c 0,104,105
 2048 662 2048 662 2048 768 c 0,106,107
 2048 873 2048 873 2122 949 c 0,108,109
 2198 1024 2198 1024 2304 1024 c 0,110,111
 2409 1024 2409 1024 2485 949 c 0,112,113
 2560 873 2560 873 2560 768 c 0,114,115
 2560 662 2560 662 2485 586 c 0,116,117
 2409 512 2409 512 2304 512 c 1,118,-1
 2304 512 l 1,102,103
768 1024 m 1,119,120
 662 1024 662 1024 586 1098 c 0,121,122
 512 1174 512 1174 512 1280 c 0,123,124
 512 1385 512 1385 586 1461 c 0,125,126
 662 1536 662 1536 768 1536 c 0,127,128
 873 1536 873 1536 949 1461 c 0,129,130
 1024 1385 1024 1385 1024 1280 c 0,131,132
 1024 1174 1024 1174 949 1098 c 0,133,134
 873 1024 873 1024 768 1024 c 1,135,-1
 768 1024 l 1,119,120
1280 1536 m 1,136,137
 1174 1536 1174 1536 1098 1610 c 0,138,139
 1024 1686 1024 1686 1024 1792 c 0,140,141
 1024 1897 1024 1897 1098 1973 c 0,142,143
 1174 2048 1174 2048 1280 2048 c 0,144,145
 1385 2048 1385 2048 1461 1973 c 0,146,147
 1536 1897 1536 1897 1536 1792 c 0,148,149
 1536 1686 1536 1686 1461 1610 c 0,150,151
 1385 1536 1385 1536 1280 1536 c 1,152,-1
 1280 1536 l 1,136,137
1792 1536 m 1,153,154
 1686 1536 1686 1536 1610 1610 c 0,155,156
 1536 1686 1536 1686 1536 1792 c 0,157,158
 1536 1897 1536 1897 1610 1973 c 0,159,160
 1686 2048 1686 2048 1792 2048 c 0,161,162
 1897 2048 1897 2048 1973 1973 c 0,163,164
 2048 1897 2048 1897 2048 1792 c 0,165,166
 2048 1686 2048 1686 1973 1610 c 0,167,168
 1897 1536 1897 1536 1792 1536 c 1,169,-1
 1792 1536 l 1,153,154
2304 2048 m 1,170,171
 2198 2048 2198 2048 2122 2122 c 0,172,173
 2048 2198 2048 2198 2048 2304 c 0,174,175
 2048 2409 2048 2409 2122 2485 c 0,176,177
 2198 2560 2198 2560 2304 2560 c 0,178,179
 2409 2560 2409 2560 2485 2485 c 0,180,181
 2560 2409 2560 2409 2560 2304 c 0,182,183
 2560 2198 2560 2198 2485 2122 c 0,184,185
 2409 2048 2409 2048 2304 2048 c 1,186,-1
 2304 2048 l 1,170,171
256 2560 m 1,187,188
 150 2560 150 2560 74 2634 c 0,189,190
 0 2710 0 2710 0 2816 c 0,191,192
 0 2921 0 2921 74 2997 c 0,193,194
 150 3072 150 3072 256 3072 c 0,195,196
 361 3072 361 3072 437 2997 c 0,197,198
 512 2921 512 2921 512 2816 c 0,199,200
 512 2710 512 2710 437 2634 c 0,201,202
 361 2560 361 2560 256 2560 c 1,203,-1
 256 2560 l 1,187,188
2304 2560 m 1,204,205
 2198 2560 2198 2560 2122 2634 c 0,206,207
 2048 2710 2048 2710 2048 2816 c 0,208,209
 2048 2921 2048 2921 2122 2997 c 0,210,211
 2198 3072 2198 3072 2304 3072 c 0,212,213
 2409 3072 2409 3072 2485 2997 c 0,214,215
 2560 2921 2560 2921 2560 2816 c 0,216,217
 2560 2710 2560 2710 2485 2634 c 0,218,219
 2409 2560 2409 2560 2304 2560 c 1,220,-1
 2304 2560 l 1,204,205
768 3072 m 1,221,222
 662 3072 662 3072 586 3146 c 0,223,224
 512 3222 512 3222 512 3328 c 0,225,226
 512 3433 512 3433 586 3509 c 0,227,228
 662 3584 662 3584 768 3584 c 0,229,230
 873 3584 873 3584 949 3509 c 0,231,232
 1024 3433 1024 3433 1024 3328 c 0,233,234
 1024 3222 1024 3222 949 3146 c 0,235,236
 873 3072 873 3072 768 3072 c 1,237,-1
 768 3072 l 1,221,222
1280 3072 m 1,238,239
 1174 3072 1174 3072 1098 3146 c 0,240,241
 1024 3222 1024 3222 1024 3328 c 0,242,243
 1024 3433 1024 3433 1098 3509 c 0,244,245
 1174 3584 1174 3584 1280 3584 c 0,246,247
 1385 3584 1385 3584 1461 3509 c 0,248,249
 1536 3433 1536 3433 1536 3328 c 0,250,251
 1536 3222 1536 3222 1461 3146 c 0,252,253
 1385 3072 1385 3072 1280 3072 c 1,254,-1
 1280 3072 l 1,238,239
1792 3072 m 1,255,256
 1686 3072 1686 3072 1610 3146 c 0,257,258
 1536 3222 1536 3222 1536 3328 c 0,259,260
 1536 3433 1536 3433 1610 3509 c 0,261,262
 1686 3584 1686 3584 1792 3584 c 0,263,264
 1897 3584 1897 3584 1973 3509 c 0,265,266
 2048 3433 2048 3433 2048 3328 c 0,267,268
 2048 3222 2048 3222 1973 3146 c 0,269,270
 1897 3072 1897 3072 1792 3072 c 1,271,-1
 1792 3072 l 1,255,256
EndSplineSet
Validated: 5
EndChar

StartChar: three
Encoding: 51 51 22
Width: 3072
GlyphClass: 1
Flags: W
LayerCount: 3
Fore
SplineSet
768 0 m 1,0,1
 662 0 662 0 586 74 c 0,2,3
 512 150 512 150 512 256 c 0,4,5
 512 361 512 361 586 437 c 0,6,7
 662 512 662 512 768 512 c 0,8,9
 873 512 873 512 949 437 c 0,10,11
 1024 361 1024 361 1024 256 c 0,12,13
 1024 150 1024 150 949 74 c 0,14,15
 873 0 873 0 768 0 c 1,16,-1
 768 0 l 1,0,1
1280 0 m 1,17,18
 1174 0 1174 0 1098 74 c 0,19,20
 1024 150 1024 150 1024 256 c 0,21,22
 1024 361 1024 361 1098 437 c 0,23,24
 1174 512 1174 512 1280 512 c 0,25,26
 1385 512 1385 512 1461 437 c 0,27,28
 1536 361 1536 361 1536 256 c 0,29,30
 1536 150 1536 150 1461 74 c 0,31,32
 1385 0 1385 0 1280 0 c 1,33,-1
 1280 0 l 1,17,18
1792 0 m 1,34,35
 1686 0 1686 0 1610 74 c 0,36,37
 1536 150 1536 150 1536 256 c 0,38,39
 1536 361 1536 361 1610 437 c 0,40,41
 1686 512 1686 512 1792 512 c 0,42,43
 1897 512 1897 512 1973 437 c 0,44,45
 2048 361 2048 361 2048 256 c 0,46,47
 2048 150 2048 150 1973 74 c 0,48,49
 1897 0 1897 0 1792 0 c 1,50,-1
 1792 0 l 1,34,35
256 512 m 1,51,52
 150 512 150 512 74 586 c 0,53,54
 0 662 0 662 0 768 c 0,55,56
 0 873 0 873 74 949 c 0,57,58
 150 1024 150 1024 256 1024 c 0,59,60
 361 1024 361 1024 437 949 c 0,61,62
 512 873 512 873 512 768 c 0,63,64
 512 662 512 662 437 586 c 0,65,66
 361 512 361 512 256 512 c 1,67,-1
 256 512 l 1,51,52
2304 512 m 1,68,69
 2198 512 2198 512 2122 586 c 0,70,71
 2048 662 2048 662 2048 768 c 0,72,73
 2048 873 2048 873 2122 949 c 0,74,75
 2198 1024 2198 1024 2304 1024 c 0,76,77
 2409 1024 2409 1024 2485 949 c 0,78,79
 2560 873 2560 873 2560 768 c 0,80,81
 2560 662 2560 662 2485 586 c 0,82,83
 2409 512 2409 512 2304 512 c 1,84,-1
 2304 512 l 1,68,69
2304 1024 m 1,85,86
 2198 1024 2198 1024 2122 1098 c 0,87,88
 2048 1174 2048 1174 2048 1280 c 0,89,90
 2048 1385 2048 1385 2122 1461 c 0,91,92
 2198 1536 2198 1536 2304 1536 c 0,93,94
 2409 1536 2409 1536 2485 1461 c 0,95,96
 2560 1385 2560 1385 2560 1280 c 0,97,98
 2560 1174 2560 1174 2485 1098 c 0,99,100
 2409 1024 2409 1024 2304 1024 c 1,101,-1
 2304 1024 l 1,85,86
1280 1536 m 1,102,103
 1174 1536 1174 1536 1098 1610 c 0,104,105
 1024 1686 1024 1686 1024 1792 c 0,106,107
 1024 1897 1024 1897 1098 1973 c 0,108,109
 1174 2048 1174 2048 1280 2048 c 0,110,111
 1385 2048 1385 2048 1461 1973 c 0,112,113
 1536 1897 1536 1897 1536 1792 c 0,114,115
 1536 1686 1536 1686 1461 1610 c 0,116,117
 1385 1536 1385 1536 1280 1536 c 1,118,-1
 1280 1536 l 1,102,103
1792 1536 m 1,119,120
 1686 1536 1686 1536 1610 1610 c 0,121,122
 1536 1686 1536 1686 1536 1792 c 0,123,124
 1536 1897 1536 1897 1610 1973 c 0,125,126
 1686 2048 1686 2048 1792 2048 c 0,127,128
 1897 2048 1897 2048 1973 1973 c 0,129,130
 2048 1897 2048 1897 2048 1792 c 0,131,132
 2048 1686 2048 1686 1973 1610 c 0,133,134
 1897 1536 1897 1536 1792 1536 c 1,135,-1
 1792 1536 l 1,119,120
2304 2048 m 1,136,137
 2198 2048 2198 2048 2122 2122 c 0,138,139
 2048 2198 2048 2198 2048 2304 c 0,140,141
 2048 2409 2048 2409 2122 2485 c 0,142,143
 2198 2560 2198 2560 2304 2560 c 0,144,145
 2409 2560 2409 2560 2485 2485 c 0,146,147
 2560 2409 2560 2409 2560 2304 c 0,148,149
 2560 2198 2560 2198 2485 2122 c 0,150,151
 2409 2048 2409 2048 2304 2048 c 1,152,-1
 2304 2048 l 1,136,137
256 2560 m 1,153,154
 150 2560 150 2560 74 2634 c 0,155,156
 0 2710 0 2710 0 2816 c 0,157,158
 0 2921 0 2921 74 2997 c 0,159,160
 150 3072 150 3072 256 3072 c 0,161,162
 361 3072 361 3072 437 2997 c 0,163,164
 512 2921 512 2921 512 2816 c 0,165,166
 512 2710 512 2710 437 2634 c 0,167,168
 361 2560 361 2560 256 2560 c 1,169,-1
 256 2560 l 1,153,154
2304 2560 m 1,170,171
 2198 2560 2198 2560 2122 2634 c 0,172,173
 2048 2710 2048 2710 2048 2816 c 0,174,175
 2048 2921 2048 2921 2122 2997 c 0,176,177
 2198 3072 2198 3072 2304 3072 c 0,178,179
 2409 3072 2409 3072 2485 2997 c 0,180,181
 2560 2921 2560 2921 2560 2816 c 0,182,183
 2560 2710 2560 2710 2485 2634 c 0,184,185
 2409 2560 2409 2560 2304 2560 c 1,186,-1
 2304 2560 l 1,170,171
768 3072 m 1,187,188
 662 3072 662 3072 586 3146 c 0,189,190
 512 3222 512 3222 512 3328 c 0,191,192
 512 3433 512 3433 586 3509 c 0,193,194
 662 3584 662 3584 768 3584 c 0,195,196
 873 3584 873 3584 949 3509 c 0,197,198
 1024 3433 1024 3433 1024 3328 c 0,199,200
 1024 3222 1024 3222 949 3146 c 0,201,202
 873 3072 873 3072 768 3072 c 1,203,-1
 768 3072 l 1,187,188
1280 3072 m 1,204,205
 1174 3072 1174 3072 1098 3146 c 0,206,207
 1024 3222 1024 3222 1024 3328 c 0,208,209
 1024 3433 1024 3433 1098 3509 c 0,210,211
 1174 3584 1174 3584 1280 3584 c 0,212,213
 1385 3584 1385 3584 1461 3509 c 0,214,215
 1536 3433 1536 3433 1536 3328 c 0,216,217
 1536 3222 1536 3222 1461 3146 c 0,218,219
 1385 3072 1385 3072 1280 3072 c 1,220,-1
 1280 3072 l 1,204,205
1792 3072 m 1,221,222
 1686 3072 1686 3072 1610 3146 c 0,223,224
 1536 3222 1536 3222 1536 3328 c 0,225,226
 1536 3433 1536 3433 1610 3509 c 0,227,228
 1686 3584 1686 3584 1792 3584 c 0,229,230
 1897 3584 1897 3584 1973 3509 c 0,231,232
 2048 3433 2048 3433 2048 3328 c 0,233,234
 2048 3222 2048 3222 1973 3146 c 0,235,236
 1897 3072 1897 3072 1792 3072 c 1,237,-1
 1792 3072 l 1,221,222
EndSplineSet
Validated: 5
EndChar

StartChar: four
Encoding: 52 52 23
Width: 3072
GlyphClass: 1
Flags: W
LayerCount: 3
Fore
SplineSet
2304 0 m 1,0,1
 2198 0 2198 0 2122 74 c 0,2,3
 2048 150 2048 150 2048 256 c 0,4,5
 2048 361 2048 361 2122 437 c 0,6,7
 2198 512 2198 512 2304 512 c 0,8,9
 2409 512 2409 512 2485 437 c 0,10,11
 2560 361 2560 361 2560 256 c 0,12,13
 2560 150 2560 150 2485 74 c 0,14,15
 2409 0 2409 0 2304 0 c 1,16,-1
 2304 0 l 1,0,1
2304 512 m 1,17,18
 2198 512 2198 512 2122 586 c 0,19,20
 2048 662 2048 662 2048 768 c 0,21,22
 2048 873 2048 873 2122 949 c 0,23,24
 2198 1024 2198 1024 2304 1024 c 0,25,26
 2409 1024 2409 1024 2485 949 c 0,27,28
 2560 873 2560 873 2560 768 c 0,29,30
 2560 662 2560 662 2485 586 c 0,31,32
 2409 512 2409 512 2304 512 c 1,33,-1
 2304 512 l 1,17,18
256 1024 m 1,34,35
 150 1024 150 1024 74 1098 c 0,36,37
 0 1174 0 1174 0 1280 c 0,38,39
 0 1385 0 1385 74 1461 c 0,40,41
 150 1536 150 1536 256 1536 c 0,42,43
 361 1536 361 1536 437 1461 c 0,44,45
 512 1385 512 1385 512 1280 c 0,46,47
 512 1174 512 1174 437 1098 c 0,48,49
 361 1024 361 1024 256 1024 c 1,50,-1
 256 1024 l 1,34,35
768 1024 m 1,51,52
 662 1024 662 1024 586 1098 c 0,53,54
 512 1174 512 1174 512 1280 c 0,55,56
 512 1385 512 1385 586 1461 c 0,57,58
 662 1536 662 1536 768 1536 c 0,59,60
 873 1536 873 1536 949 1461 c 0,61,62
 1024 1385 1024 1385 1024 1280 c 0,63,64
 1024 1174 1024 1174 949 1098 c 0,65,66
 873 1024 873 1024 768 1024 c 1,67,-1
 768 1024 l 1,51,52
1280 1024 m 1,68,69
 1174 1024 1174 1024 1098 1098 c 0,70,71
 1024 1174 1024 1174 1024 1280 c 0,72,73
 1024 1385 1024 1385 1098 1461 c 0,74,75
 1174 1536 1174 1536 1280 1536 c 0,76,77
 1385 1536 1385 1536 1461 1461 c 0,78,79
 1536 1385 1536 1385 1536 1280 c 0,80,81
 1536 1174 1536 1174 1461 1098 c 0,82,83
 1385 1024 1385 1024 1280 1024 c 1,84,-1
 1280 1024 l 1,68,69
1792 1024 m 1,85,86
 1686 1024 1686 1024 1610 1098 c 0,87,88
 1536 1174 1536 1174 1536 1280 c 0,89,90
 1536 1385 1536 1385 1610 1461 c 0,91,92
 1686 1536 1686 1536 1792 1536 c 0,93,94
 1897 1536 1897 1536 1973 1461 c 0,95,96
 2048 1385 2048 1385 2048 1280 c 0,97,98
 2048 1174 2048 1174 1973 1098 c 0,99,100
 1897 1024 1897 1024 1792 1024 c 1,101,-1
 1792 1024 l 1,85,86
2304 1024 m 1,102,103
 2198 1024 2198 1024 2122 1098 c 0,104,105
 2048 1174 2048 1174 2048 1280 c 0,106,107
 2048 1385 2048 1385 2122 1461 c 0,108,109
 2198 1536 2198 1536 2304 1536 c 0,110,111
 2409 1536 2409 1536 2485 1461 c 0,112,113
 2560 1385 2560 1385 2560 1280 c 0,114,115
 2560 1174 2560 1174 2485 1098 c 0,116,117
 2409 1024 2409 1024 2304 1024 c 1,118,-1
 2304 1024 l 1,102,103
256 1536 m 1,119,120
 150 1536 150 1536 74 1610 c 0,121,122
 0 1686 0 1686 0 1792 c 0,123,124
 0 1897 0 1897 74 1973 c 0,125,126
 150 2048 150 2048 256 2048 c 0,127,128
 361 2048 361 2048 437 1973 c 0,129,130
 512 1897 512 1897 512 1792 c 0,131,132
 512 1686 512 1686 437 1610 c 0,133,134
 361 1536 361 1536 256 1536 c 1,135,-1
 256 1536 l 1,119,120
2304 1536 m 1,136,137
 2198 1536 2198 1536 2122 1610 c 0,138,139
 2048 1686 2048 1686 2048 1792 c 0,140,141
 2048 1897 2048 1897 2122 1973 c 0,142,143
 2198 2048 2198 2048 2304 2048 c 0,144,145
 2409 2048 2409 2048 2485 1973 c 0,146,147
 2560 1897 2560 1897 2560 1792 c 0,148,149
 2560 1686 2560 1686 2485 1610 c 0,150,151
 2409 1536 2409 1536 2304 1536 c 1,152,-1
 2304 1536 l 1,136,137
768 2048 m 1,153,154
 662 2048 662 2048 586 2122 c 0,155,156
 512 2198 512 2198 512 2304 c 0,157,158
 512 2409 512 2409 586 2485 c 0,159,160
 662 2560 662 2560 768 2560 c 0,161,162
 873 2560 873 2560 949 2485 c 0,163,164
 1024 2409 1024 2409 1024 2304 c 0,165,166
 1024 2198 1024 2198 949 2122 c 0,167,168
 873 2048 873 2048 768 2048 c 1,169,-1
 768 2048 l 1,153,154
2304 2048 m 1,170,171
 2198 2048 2198 2048 2122 2122 c 0,172,173
 2048 2198 2048 2198 2048 2304 c 0,174,175
 2048 2409 2048 2409 2122 2485 c 0,176,177
 2198 2560 2198 2560 2304 2560 c 0,178,179
 2409 2560 2409 2560 2485 2485 c 0,180,181
 2560 2409 2560 2409 2560 2304 c 0,182,183
 2560 2198 2560 2198 2485 2122 c 0,184,185
 2409 2048 2409 2048 2304 2048 c 1,186,-1
 2304 2048 l 1,170,171
1280 2560 m 1,187,188
 1174 2560 1174 2560 1098 2634 c 0,189,190
 1024 2710 1024 2710 1024 2816 c 0,191,192
 1024 2921 1024 2921 1098 2997 c 0,193,194
 1174 3072 1174 3072 1280 3072 c 0,195,196
 1385 3072 1385 3072 1461 2997 c 0,197,198
 1536 2921 1536 2921 1536 2816 c 0,199,200
 1536 2710 1536 2710 1461 2634 c 0,201,202
 1385 2560 1385 2560 1280 2560 c 1,203,-1
 1280 2560 l 1,187,188
2304 2560 m 1,204,205
 2198 2560 2198 2560 2122 2634 c 0,206,207
 2048 2710 2048 2710 2048 2816 c 0,208,209
 2048 2921 2048 2921 2122 2997 c 0,210,211
 2198 3072 2198 3072 2304 3072 c 0,212,213
 2409 3072 2409 3072 2485 2997 c 0,214,215
 2560 2921 2560 2921 2560 2816 c 0,216,217
 2560 2710 2560 2710 2485 2634 c 0,218,219
 2409 2560 2409 2560 2304 2560 c 1,220,-1
 2304 2560 l 1,204,205
1792 3072 m 1,221,222
 1686 3072 1686 3072 1610 3146 c 0,223,224
 1536 3222 1536 3222 1536 3328 c 0,225,226
 1536 3433 1536 3433 1610 3509 c 0,227,228
 1686 3584 1686 3584 1792 3584 c 0,229,230
 1897 3584 1897 3584 1973 3509 c 0,231,232
 2048 3433 2048 3433 2048 3328 c 0,233,234
 2048 3222 2048 3222 1973 3146 c 0,235,236
 1897 3072 1897 3072 1792 3072 c 1,237,-1
 1792 3072 l 1,221,222
2304 3072 m 1,238,239
 2198 3072 2198 3072 2122 3146 c 0,240,241
 2048 3222 2048 3222 2048 3328 c 0,242,243
 2048 3433 2048 3433 2122 3509 c 0,244,245
 2198 3584 2198 3584 2304 3584 c 0,246,247
 2409 3584 2409 3584 2485 3509 c 0,248,249
 2560 3433 2560 3433 2560 3328 c 0,250,251
 2560 3222 2560 3222 2485 3146 c 0,252,253
 2409 3072 2409 3072 2304 3072 c 1,254,-1
 2304 3072 l 1,238,239
EndSplineSet
Validated: 5
EndChar

StartChar: five
Encoding: 53 53 24
Width: 3072
GlyphClass: 1
Flags: W
LayerCount: 3
Fore
SplineSet
768 0 m 1,0,1
 662 0 662 0 586 74 c 0,2,3
 512 150 512 150 512 256 c 0,4,5
 512 361 512 361 586 437 c 0,6,7
 662 512 662 512 768 512 c 0,8,9
 873 512 873 512 949 437 c 0,10,11
 1024 361 1024 361 1024 256 c 0,12,13
 1024 150 1024 150 949 74 c 0,14,15
 873 0 873 0 768 0 c 1,16,-1
 768 0 l 1,0,1
1280 0 m 1,17,18
 1174 0 1174 0 1098 74 c 0,19,20
 1024 150 1024 150 1024 256 c 0,21,22
 1024 361 1024 361 1098 437 c 0,23,24
 1174 512 1174 512 1280 512 c 0,25,26
 1385 512 1385 512 1461 437 c 0,27,28
 1536 361 1536 361 1536 256 c 0,29,30
 1536 150 1536 150 1461 74 c 0,31,32
 1385 0 1385 0 1280 0 c 1,33,-1
 1280 0 l 1,17,18
1792 0 m 1,34,35
 1686 0 1686 0 1610 74 c 0,36,37
 1536 150 1536 150 1536 256 c 0,38,39
 1536 361 1536 361 1610 437 c 0,40,41
 1686 512 1686 512 1792 512 c 0,42,43
 1897 512 1897 512 1973 437 c 0,44,45
 2048 361 2048 361 2048 256 c 0,46,47
 2048 150 2048 150 1973 74 c 0,48,49
 1897 0 1897 0 1792 0 c 1,50,-1
 1792 0 l 1,34,35
256 512 m 1,51,52
 150 512 150 512 74 586 c 0,53,54
 0 662 0 662 0 768 c 0,55,56
 0 873 0 873 74 949 c 0,57,58
 150 1024 150 1024 256 1024 c 0,59,60
 361 1024 361 1024 437 949 c 0,61,62
 512 873 512 873 512 768 c 0,63,64
 512 662 512 662 437 586 c 0,65,66
 361 512 361 512 256 512 c 1,67,-1
 256 512 l 1,51,52
2304 512 m 1,68,69
 2198 512 2198 512 2122 586 c 0,70,71
 2048 662 2048 662 2048 768 c 0,72,73
 2048 873 2048 873 2122 949 c 0,74,75
 2198 1024 2198 1024 2304 1024 c 0,76,77
 2409 1024 2409 1024 2485 949 c 0,78,79
 2560 873 2560 873 2560 768 c 0,80,81
 2560 662 2560 662 2485 586 c 0,82,83
 2409 512 2409 512 2304 512 c 1,84,-1
 2304 512 l 1,68,69
2304 1024 m 1,85,86
 2198 1024 2198 1024 2122 1098 c 0,87,88
 2048 1174 2048 1174 2048 1280 c 0,89,90
 2048 1385 2048 1385 2122 1461 c 0,91,92
 2198 1536 2198 1536 2304 1536 c 0,93,94
 2409 1536 2409 1536 2485 1461 c 0,95,96
 2560 1385 2560 1385 2560 1280 c 0,97,98
 2560 1174 2560 1174 2485 1098 c 0,99,100
 2409 1024 2409 1024 2304 1024 c 1,101,-1
 2304 1024 l 1,85,86
2304 1536 m 1,102,103
 2198 1536 2198 1536 2122 1610 c 0,104,105
 2048 1686 2048 1686 2048 1792 c 0,106,107
 2048 1897 2048 1897 2122 1973 c 0,108,109
 2198 2048 2198 2048 2304 2048 c 0,110,111
 2409 2048 2409 2048 2485 1973 c 0,112,113
 2560 1897 2560 1897 2560 1792 c 0,114,115
 2560 1686 2560 1686 2485 1610 c 0,116,117
 2409 1536 2409 1536 2304 1536 c 1,118,-1
 2304 1536 l 1,102,103
256 2048 m 1,119,120
 150 2048 150 2048 74 2122 c 0,121,122
 0 2198 0 2198 0 2304 c 0,123,124
 0 2409 0 2409 74 2485 c 0,125,126
 150 2560 150 2560 256 2560 c 0,127,128
 361 2560 361 2560 437 2485 c 0,129,130
 512 2409 512 2409 512 2304 c 0,131,132
 512 2198 512 2198 437 2122 c 0,133,134
 361 2048 361 2048 256 2048 c 1,135,-1
 256 2048 l 1,119,120
768 2048 m 1,136,137
 662 2048 662 2048 586 2122 c 0,138,139
 512 2198 512 2198 512 2304 c 0,140,141
 512 2409 512 2409 586 2485 c 0,142,143
 662 2560 662 2560 768 2560 c 0,144,145
 873 2560 873 2560 949 2485 c 0,146,147
 1024 2409 1024 2409 1024 2304 c 0,148,149
 1024 2198 1024 2198 949 2122 c 0,150,151
 873 2048 873 2048 768 2048 c 1,152,-1
 768 2048 l 1,136,137
1280 2048 m 1,153,154
 1174 2048 1174 2048 1098 2122 c 0,155,156
 1024 2198 1024 2198 1024 2304 c 0,157,158
 1024 2409 1024 2409 1098 2485 c 0,159,160
 1174 2560 1174 2560 1280 2560 c 0,161,162
 1385 2560 1385 2560 1461 2485 c 0,163,164
 1536 2409 1536 2409 1536 2304 c 0,165,166
 1536 2198 1536 2198 1461 2122 c 0,167,168
 1385 2048 1385 2048 1280 2048 c 1,169,-1
 1280 2048 l 1,153,154
1792 2048 m 1,170,171
 1686 2048 1686 2048 1610 2122 c 0,172,173
 1536 2198 1536 2198 1536 2304 c 0,174,175
 1536 2409 1536 2409 1610 2485 c 0,176,177
 1686 2560 1686 2560 1792 2560 c 0,178,179
 1897 2560 1897 2560 1973 2485 c 0,180,181
 2048 2409 2048 2409 2048 2304 c 0,182,183
 2048 2198 2048 2198 1973 2122 c 0,184,185
 1897 2048 1897 2048 1792 2048 c 1,186,-1
 1792 2048 l 1,170,171
256 2560 m 1,187,188
 150 2560 150 2560 74 2634 c 0,189,190
 0 2710 0 2710 0 2816 c 0,191,192
 0 2921 0 2921 74 2997 c 0,193,194
 150 3072 150 3072 256 3072 c 0,195,196
 361 3072 361 3072 437 2997 c 0,197,198
 512 2921 512 2921 512 2816 c 0,199,200
 512 2710 512 2710 437 2634 c 0,201,202
 361 2560 361 2560 256 2560 c 1,203,-1
 256 2560 l 1,187,188
256 3072 m 1,204,205
 150 3072 150 3072 74 3146 c 0,206,207
 0 3222 0 3222 0 3328 c 0,208,209
 0 3433 0 3433 74 3509 c 0,210,211
 150 3584 150 3584 256 3584 c 0,212,213
 361 3584 361 3584 437 3509 c 0,214,215
 512 3433 512 3433 512 3328 c 0,216,217
 512 3222 512 3222 437 3146 c 0,218,219
 361 3072 361 3072 256 3072 c 1,220,-1
 256 3072 l 1,204,205
768 3072 m 1,221,222
 662 3072 662 3072 586 3146 c 0,223,224
 512 3222 512 3222 512 3328 c 0,225,226
 512 3433 512 3433 586 3509 c 0,227,228
 662 3584 662 3584 768 3584 c 0,229,230
 873 3584 873 3584 949 3509 c 0,231,232
 1024 3433 1024 3433 1024 3328 c 0,233,234
 1024 3222 1024 3222 949 3146 c 0,235,236
 873 3072 873 3072 768 3072 c 1,237,-1
 768 3072 l 1,221,222
1280 3072 m 1,238,239
 1174 3072 1174 3072 1098 3146 c 0,240,241
 1024 3222 1024 3222 1024 3328 c 0,242,243
 1024 3433 1024 3433 1098 3509 c 0,244,245
 1174 3584 1174 3584 1280 3584 c 0,246,247
 1385 3584 1385 3584 1461 3509 c 0,248,249
 1536 3433 1536 3433 1536 3328 c 0,250,251
 1536 3222 1536 3222 1461 3146 c 0,252,253
 1385 3072 1385 3072 1280 3072 c 1,254,-1
 1280 3072 l 1,238,239
1792 3072 m 1,255,256
 1686 3072 1686 3072 1610 3146 c 0,257,258
 1536 3222 1536 3222 1536 3328 c 0,259,260
 1536 3433 1536 3433 1610 3509 c 0,261,262
 1686 3584 1686 3584 1792 3584 c 0,263,264
 1897 3584 1897 3584 1973 3509 c 0,265,266
 2048 3433 2048 3433 2048 3328 c 0,267,268
 2048 3222 2048 3222 1973 3146 c 0,269,270
 1897 3072 1897 3072 1792 3072 c 1,271,-1
 1792 3072 l 1,255,256
2304 3072 m 1,272,273
 2198 3072 2198 3072 2122 3146 c 0,274,275
 2048 3222 2048 3222 2048 3328 c 0,276,277
 2048 3433 2048 3433 2122 3509 c 0,278,279
 2198 3584 2198 3584 2304 3584 c 0,280,281
 2409 3584 2409 3584 2485 3509 c 0,282,283
 2560 3433 2560 3433 2560 3328 c 0,284,285
 2560 3222 2560 3222 2485 3146 c 0,286,287
 2409 3072 2409 3072 2304 3072 c 1,288,-1
 2304 3072 l 1,272,273
EndSplineSet
Validated: 5
EndChar

StartChar: six
Encoding: 54 54 25
Width: 3072
GlyphClass: 1
Flags: W
LayerCount: 3
Fore
SplineSet
768 0 m 1,0,1
 662 0 662 0 586 74 c 0,2,3
 512 150 512 150 512 256 c 0,4,5
 512 361 512 361 586 437 c 0,6,7
 662 512 662 512 768 512 c 0,8,9
 873 512 873 512 949 437 c 0,10,11
 1024 361 1024 361 1024 256 c 0,12,13
 1024 150 1024 150 949 74 c 0,14,15
 873 0 873 0 768 0 c 1,16,-1
 768 0 l 1,0,1
1280 0 m 1,17,18
 1174 0 1174 0 1098 74 c 0,19,20
 1024 150 1024 150 1024 256 c 0,21,22
 1024 361 1024 361 1098 437 c 0,23,24
 1174 512 1174 512 1280 512 c 0,25,26
 1385 512 1385 512 1461 437 c 0,27,28
 1536 361 1536 361 1536 256 c 0,29,30
 1536 150 1536 150 1461 74 c 0,31,32
 1385 0 1385 0 1280 0 c 1,33,-1
 1280 0 l 1,17,18
1792 0 m 1,34,35
 1686 0 1686 0 1610 74 c 0,36,37
 1536 150 1536 150 1536 256 c 0,38,39
 1536 361 1536 361 1610 437 c 0,40,41
 1686 512 1686 512 1792 512 c 0,42,43
 1897 512 1897 512 1973 437 c 0,44,45
 2048 361 2048 361 2048 256 c 0,46,47
 2048 150 2048 150 1973 74 c 0,48,49
 1897 0 1897 0 1792 0 c 1,50,-1
 1792 0 l 1,34,35
256 512 m 1,51,52
 150 512 150 512 74 586 c 0,53,54
 0 662 0 662 0 768 c 0,55,56
 0 873 0 873 74 949 c 0,57,58
 150 1024 150 1024 256 1024 c 0,59,60
 361 1024 361 1024 437 949 c 0,61,62
 512 873 512 873 512 768 c 0,63,64
 512 662 512 662 437 586 c 0,65,66
 361 512 361 512 256 512 c 1,67,-1
 256 512 l 1,51,52
2304 512 m 1,68,69
 2198 512 2198 512 2122 586 c 0,70,71
 2048 662 2048 662 2048 768 c 0,72,73
 2048 873 2048 873 2122 949 c 0,74,75
 2198 1024 2198 1024 2304 1024 c 0,76,77
 2409 1024 2409 1024 2485 949 c 0,78,79
 2560 873 2560 873 2560 768 c 0,80,81
 2560 662 2560 662 2485 586 c 0,82,83
 2409 512 2409 512 2304 512 c 1,84,-1
 2304 512 l 1,68,69
256 1024 m 1,85,86
 150 1024 150 1024 74 1098 c 0,87,88
 0 1174 0 1174 0 1280 c 0,89,90
 0 1385 0 1385 74 1461 c 0,91,92
 150 1536 150 1536 256 1536 c 0,93,94
 361 1536 361 1536 437 1461 c 0,95,96
 512 1385 512 1385 512 1280 c 0,97,98
 512 1174 512 1174 437 1098 c 0,99,100
 361 1024 361 1024 256 1024 c 1,101,-1
 256 1024 l 1,85,86
2304 1024 m 1,102,103
 2198 1024 2198 1024 2122 1098 c 0,104,105
 2048 1174 2048 1174 2048 1280 c 0,106,107
 2048 1385 2048 1385 2122 1461 c 0,108,109
 2198 1536 2198 1536 2304 1536 c 0,110,111
 2409 1536 2409 1536 2485 1461 c 0,112,113
 2560 1385 2560 1385 2560 1280 c 0,114,115
 2560 1174 2560 1174 2485 1098 c 0,116,117
 2409 1024 2409 1024 2304 1024 c 1,118,-1
 2304 1024 l 1,102,103
256 1536 m 1,119,120
 150 1536 150 1536 74 1610 c 0,121,122
 0 1686 0 1686 0 1792 c 0,123,124
 0 1897 0 1897 74 1973 c 0,125,126
 150 2048 150 2048 256 2048 c 0,127,128
 361 2048 361 2048 437 1973 c 0,129,130
 512 1897 512 1897 512 1792 c 0,131,132
 512 1686 512 1686 437 1610 c 0,133,134
 361 1536 361 1536 256 1536 c 1,135,-1
 256 1536 l 1,119,120
768 1536 m 1,136,137
 662 1536 662 1536 586 1610 c 0,138,139
 512 1686 512 1686 512 1792 c 0,140,141
 512 1897 512 1897 586 1973 c 0,142,143
 662 2048 662 2048 768 2048 c 0,144,145
 873 2048 873 2048 949 1973 c 0,146,147
 1024 1897 1024 1897 1024 1792 c 0,148,149
 1024 1686 1024 1686 949 1610 c 0,150,151
 873 1536 873 1536 768 1536 c 1,152,-1
 768 1536 l 1,136,137
1280 1536 m 1,153,154
 1174 1536 1174 1536 1098 1610 c 0,155,156
 1024 1686 1024 1686 1024 1792 c 0,157,158
 1024 1897 1024 1897 1098 1973 c 0,159,160
 1174 2048 1174 2048 1280 2048 c 0,161,162
 1385 2048 1385 2048 1461 1973 c 0,163,164
 1536 1897 1536 1897 1536 1792 c 0,165,166
 1536 1686 1536 1686 1461 1610 c 0,167,168
 1385 1536 1385 1536 1280 1536 c 1,169,-1
 1280 1536 l 1,153,154
1792 1536 m 1,170,171
 1686 1536 1686 1536 1610 1610 c 0,172,173
 1536 1686 1536 1686 1536 1792 c 0,174,175
 1536 1897 1536 1897 1610 1973 c 0,176,177
 1686 2048 1686 2048 1792 2048 c 0,178,179
 1897 2048 1897 2048 1973 1973 c 0,180,181
 2048 1897 2048 1897 2048 1792 c 0,182,183
 2048 1686 2048 1686 1973 1610 c 0,184,185
 1897 1536 1897 1536 1792 1536 c 1,186,-1
 1792 1536 l 1,170,171
256 2048 m 1,187,188
 150 2048 150 2048 74 2122 c 0,189,190
 0 2198 0 2198 0 2304 c 0,191,192
 0 2409 0 2409 74 2485 c 0,193,194
 150 2560 150 2560 256 2560 c 0,195,196
 361 2560 361 2560 437 2485 c 0,197,198
 512 2409 512 2409 512 2304 c 0,199,200
 512 2198 512 2198 437 2122 c 0,201,202
 361 2048 361 2048 256 2048 c 1,203,-1
 256 2048 l 1,187,188
768 2560 m 1,204,205
 662 2560 662 2560 586 2634 c 0,206,207
 512 2710 512 2710 512 2816 c 0,208,209
 512 2921 512 2921 586 2997 c 0,210,211
 662 3072 662 3072 768 3072 c 0,212,213
 873 3072 873 3072 949 2997 c 0,214,215
 1024 2921 1024 2921 1024 2816 c 0,216,217
 1024 2710 1024 2710 949 2634 c 0,218,219
 873 2560 873 2560 768 2560 c 1,220,-1
 768 2560 l 1,204,205
1280 3072 m 1,221,222
 1174 3072 1174 3072 1098 3146 c 0,223,224
 1024 3222 1024 3222 1024 3328 c 0,225,226
 1024 3433 1024 3433 1098 3509 c 0,227,228
 1174 3584 1174 3584 1280 3584 c 0,229,230
 1385 3584 1385 3584 1461 3509 c 0,231,232
 1536 3433 1536 3433 1536 3328 c 0,233,234
 1536 3222 1536 3222 1461 3146 c 0,235,236
 1385 3072 1385 3072 1280 3072 c 1,237,-1
 1280 3072 l 1,221,222
1792 3072 m 1,238,239
 1686 3072 1686 3072 1610 3146 c 0,240,241
 1536 3222 1536 3222 1536 3328 c 0,242,243
 1536 3433 1536 3433 1610 3509 c 0,244,245
 1686 3584 1686 3584 1792 3584 c 0,246,247
 1897 3584 1897 3584 1973 3509 c 0,248,249
 2048 3433 2048 3433 2048 3328 c 0,250,251
 2048 3222 2048 3222 1973 3146 c 0,252,253
 1897 3072 1897 3072 1792 3072 c 1,254,-1
 1792 3072 l 1,238,239
EndSplineSet
Validated: 5
EndChar

StartChar: seven
Encoding: 55 55 26
Width: 3072
GlyphClass: 1
Flags: W
LayerCount: 3
Fore
SplineSet
1280 0 m 1,0,1
 1174 0 1174 0 1098 74 c 0,2,3
 1024 150 1024 150 1024 256 c 0,4,5
 1024 361 1024 361 1098 437 c 0,6,7
 1174 512 1174 512 1280 512 c 0,8,9
 1385 512 1385 512 1461 437 c 0,10,11
 1536 361 1536 361 1536 256 c 0,12,13
 1536 150 1536 150 1461 74 c 0,14,15
 1385 0 1385 0 1280 0 c 1,16,-1
 1280 0 l 1,0,1
1280 512 m 1,17,18
 1174 512 1174 512 1098 586 c 0,19,20
 1024 662 1024 662 1024 768 c 0,21,22
 1024 873 1024 873 1098 949 c 0,23,24
 1174 1024 1174 1024 1280 1024 c 0,25,26
 1385 1024 1385 1024 1461 949 c 0,27,28
 1536 873 1536 873 1536 768 c 0,29,30
 1536 662 1536 662 1461 586 c 0,31,32
 1385 512 1385 512 1280 512 c 1,33,-1
 1280 512 l 1,17,18
1280 1024 m 1,34,35
 1174 1024 1174 1024 1098 1098 c 0,36,37
 1024 1174 1024 1174 1024 1280 c 0,38,39
 1024 1385 1024 1385 1098 1461 c 0,40,41
 1174 1536 1174 1536 1280 1536 c 0,42,43
 1385 1536 1385 1536 1461 1461 c 0,44,45
 1536 1385 1536 1385 1536 1280 c 0,46,47
 1536 1174 1536 1174 1461 1098 c 0,48,49
 1385 1024 1385 1024 1280 1024 c 1,50,-1
 1280 1024 l 1,34,35
1792 1536 m 1,51,52
 1686 1536 1686 1536 1610 1610 c 0,53,54
 1536 1686 1536 1686 1536 1792 c 0,55,56
 1536 1897 1536 1897 1610 1973 c 0,57,58
 1686 2048 1686 2048 1792 2048 c 0,59,60
 1897 2048 1897 2048 1973 1973 c 0,61,62
 2048 1897 2048 1897 2048 1792 c 0,63,64
 2048 1686 2048 1686 1973 1610 c 0,65,66
 1897 1536 1897 1536 1792 1536 c 1,67,-1
 1792 1536 l 1,51,52
2304 2048 m 1,68,69
 2198 2048 2198 2048 2122 2122 c 0,70,71
 2048 2198 2048 2198 2048 2304 c 0,72,73
 2048 2409 2048 2409 2122 2485 c 0,74,75
 2198 2560 2198 2560 2304 2560 c 0,76,77
 2409 2560 2409 2560 2485 2485 c 0,78,79
 2560 2409 2560 2409 2560 2304 c 0,80,81
 2560 2198 2560 2198 2485 2122 c 0,82,83
 2409 2048 2409 2048 2304 2048 c 1,84,-1
 2304 2048 l 1,68,69
256 2560 m 1,85,86
 150 2560 150 2560 74 2634 c 0,87,88
 0 2710 0 2710 0 2816 c 0,89,90
 0 2921 0 2921 74 2997 c 0,91,92
 150 3072 150 3072 256 3072 c 0,93,94
 361 3072 361 3072 437 2997 c 0,95,96
 512 2921 512 2921 512 2816 c 0,97,98
 512 2710 512 2710 437 2634 c 0,99,100
 361 2560 361 2560 256 2560 c 1,101,-1
 256 2560 l 1,85,86
2304 2560 m 1,102,103
 2198 2560 2198 2560 2122 2634 c 0,104,105
 2048 2710 2048 2710 2048 2816 c 0,106,107
 2048 2921 2048 2921 2122 2997 c 0,108,109
 2198 3072 2198 3072 2304 3072 c 0,110,111
 2409 3072 2409 3072 2485 2997 c 0,112,113
 2560 2921 2560 2921 2560 2816 c 0,114,115
 2560 2710 2560 2710 2485 2634 c 0,116,117
 2409 2560 2409 2560 2304 2560 c 1,118,-1
 2304 2560 l 1,102,103
256 3072 m 1,119,120
 150 3072 150 3072 74 3146 c 0,121,122
 0 3222 0 3222 0 3328 c 0,123,124
 0 3433 0 3433 74 3509 c 0,125,126
 150 3584 150 3584 256 3584 c 0,127,128
 361 3584 361 3584 437 3509 c 0,129,130
 512 3433 512 3433 512 3328 c 0,131,132
 512 3222 512 3222 437 3146 c 0,133,134
 361 3072 361 3072 256 3072 c 1,135,-1
 256 3072 l 1,119,120
768 3072 m 1,136,137
 662 3072 662 3072 586 3146 c 0,138,139
 512 3222 512 3222 512 3328 c 0,140,141
 512 3433 512 3433 586 3509 c 0,142,143
 662 3584 662 3584 768 3584 c 0,144,145
 873 3584 873 3584 949 3509 c 0,146,147
 1024 3433 1024 3433 1024 3328 c 0,148,149
 1024 3222 1024 3222 949 3146 c 0,150,151
 873 3072 873 3072 768 3072 c 1,152,-1
 768 3072 l 1,136,137
1280 3072 m 1,153,154
 1174 3072 1174 3072 1098 3146 c 0,155,156
 1024 3222 1024 3222 1024 3328 c 0,157,158
 1024 3433 1024 3433 1098 3509 c 0,159,160
 1174 3584 1174 3584 1280 3584 c 0,161,162
 1385 3584 1385 3584 1461 3509 c 0,163,164
 1536 3433 1536 3433 1536 3328 c 0,165,166
 1536 3222 1536 3222 1461 3146 c 0,167,168
 1385 3072 1385 3072 1280 3072 c 1,169,-1
 1280 3072 l 1,153,154
1792 3072 m 1,170,171
 1686 3072 1686 3072 1610 3146 c 0,172,173
 1536 3222 1536 3222 1536 3328 c 0,174,175
 1536 3433 1536 3433 1610 3509 c 0,176,177
 1686 3584 1686 3584 1792 3584 c 0,178,179
 1897 3584 1897 3584 1973 3509 c 0,180,181
 2048 3433 2048 3433 2048 3328 c 0,182,183
 2048 3222 2048 3222 1973 3146 c 0,184,185
 1897 3072 1897 3072 1792 3072 c 1,186,-1
 1792 3072 l 1,170,171
2304 3072 m 1,187,188
 2198 3072 2198 3072 2122 3146 c 0,189,190
 2048 3222 2048 3222 2048 3328 c 0,191,192
 2048 3433 2048 3433 2122 3509 c 0,193,194
 2198 3584 2198 3584 2304 3584 c 0,195,196
 2409 3584 2409 3584 2485 3509 c 0,197,198
 2560 3433 2560 3433 2560 3328 c 0,199,200
 2560 3222 2560 3222 2485 3146 c 0,201,202
 2409 3072 2409 3072 2304 3072 c 1,203,-1
 2304 3072 l 1,187,188
EndSplineSet
Validated: 5
EndChar

StartChar: eight
Encoding: 56 56 27
Width: 3072
GlyphClass: 1
Flags: W
LayerCount: 3
Fore
SplineSet
768 0 m 1,0,1
 662 0 662 0 586 74 c 0,2,3
 512 150 512 150 512 256 c 0,4,5
 512 361 512 361 586 437 c 0,6,7
 662 512 662 512 768 512 c 0,8,9
 873 512 873 512 949 437 c 0,10,11
 1024 361 1024 361 1024 256 c 0,12,13
 1024 150 1024 150 949 74 c 0,14,15
 873 0 873 0 768 0 c 1,16,-1
 768 0 l 1,0,1
1280 0 m 1,17,18
 1174 0 1174 0 1098 74 c 0,19,20
 1024 150 1024 150 1024 256 c 0,21,22
 1024 361 1024 361 1098 437 c 0,23,24
 1174 512 1174 512 1280 512 c 0,25,26
 1385 512 1385 512 1461 437 c 0,27,28
 1536 361 1536 361 1536 256 c 0,29,30
 1536 150 1536 150 1461 74 c 0,31,32
 1385 0 1385 0 1280 0 c 1,33,-1
 1280 0 l 1,17,18
1792 0 m 1,34,35
 1686 0 1686 0 1610 74 c 0,36,37
 1536 150 1536 150 1536 256 c 0,38,39
 1536 361 1536 361 1610 437 c 0,40,41
 1686 512 1686 512 1792 512 c 0,42,43
 1897 512 1897 512 1973 437 c 0,44,45
 2048 361 2048 361 2048 256 c 0,46,47
 2048 150 2048 150 1973 74 c 0,48,49
 1897 0 1897 0 1792 0 c 1,50,-1
 1792 0 l 1,34,35
256 512 m 1,51,52
 150 512 150 512 74 586 c 0,53,54
 0 662 0 662 0 768 c 0,55,56
 0 873 0 873 74 949 c 0,57,58
 150 1024 150 1024 256 1024 c 0,59,60
 361 1024 361 1024 437 949 c 0,61,62
 512 873 512 873 512 768 c 0,63,64
 512 662 512 662 437 586 c 0,65,66
 361 512 361 512 256 512 c 1,67,-1
 256 512 l 1,51,52
2304 512 m 1,68,69
 2198 512 2198 512 2122 586 c 0,70,71
 2048 662 2048 662 2048 768 c 0,72,73
 2048 873 2048 873 2122 949 c 0,74,75
 2198 1024 2198 1024 2304 1024 c 0,76,77
 2409 1024 2409 1024 2485 949 c 0,78,79
 2560 873 2560 873 2560 768 c 0,80,81
 2560 662 2560 662 2485 586 c 0,82,83
 2409 512 2409 512 2304 512 c 1,84,-1
 2304 512 l 1,68,69
256 1024 m 1,85,86
 150 1024 150 1024 74 1098 c 0,87,88
 0 1174 0 1174 0 1280 c 0,89,90
 0 1385 0 1385 74 1461 c 0,91,92
 150 1536 150 1536 256 1536 c 0,93,94
 361 1536 361 1536 437 1461 c 0,95,96
 512 1385 512 1385 512 1280 c 0,97,98
 512 1174 512 1174 437 1098 c 0,99,100
 361 1024 361 1024 256 1024 c 1,101,-1
 256 1024 l 1,85,86
2304 1024 m 1,102,103
 2198 1024 2198 1024 2122 1098 c 0,104,105
 2048 1174 2048 1174 2048 1280 c 0,106,107
 2048 1385 2048 1385 2122 1461 c 0,108,109
 2198 1536 2198 1536 2304 1536 c 0,110,111
 2409 1536 2409 1536 2485 1461 c 0,112,113
 2560 1385 2560 1385 2560 1280 c 0,114,115
 2560 1174 2560 1174 2485 1098 c 0,116,117
 2409 1024 2409 1024 2304 1024 c 1,118,-1
 2304 1024 l 1,102,103
768 1536 m 1,119,120
 662 1536 662 1536 586 1610 c 0,121,122
 512 1686 512 1686 512 1792 c 0,123,124
 512 1897 512 1897 586 1973 c 0,125,126
 662 2048 662 2048 768 2048 c 0,127,128
 873 2048 873 2048 949 1973 c 0,129,130
 1024 1897 1024 1897 1024 1792 c 0,131,132
 1024 1686 1024 1686 949 1610 c 0,133,134
 873 1536 873 1536 768 1536 c 1,135,-1
 768 1536 l 1,119,120
1280 1536 m 1,136,137
 1174 1536 1174 1536 1098 1610 c 0,138,139
 1024 1686 1024 1686 1024 1792 c 0,140,141
 1024 1897 1024 1897 1098 1973 c 0,142,143
 1174 2048 1174 2048 1280 2048 c 0,144,145
 1385 2048 1385 2048 1461 1973 c 0,146,147
 1536 1897 1536 1897 1536 1792 c 0,148,149
 1536 1686 1536 1686 1461 1610 c 0,150,151
 1385 1536 1385 1536 1280 1536 c 1,152,-1
 1280 1536 l 1,136,137
1792 1536 m 1,153,154
 1686 1536 1686 1536 1610 1610 c 0,155,156
 1536 1686 1536 1686 1536 1792 c 0,157,158
 1536 1897 1536 1897 1610 1973 c 0,159,160
 1686 2048 1686 2048 1792 2048 c 0,161,162
 1897 2048 1897 2048 1973 1973 c 0,163,164
 2048 1897 2048 1897 2048 1792 c 0,165,166
 2048 1686 2048 1686 1973 1610 c 0,167,168
 1897 1536 1897 1536 1792 1536 c 1,169,-1
 1792 1536 l 1,153,154
256 2048 m 1,170,171
 150 2048 150 2048 74 2122 c 0,172,173
 0 2198 0 2198 0 2304 c 0,174,175
 0 2409 0 2409 74 2485 c 0,176,177
 150 2560 150 2560 256 2560 c 0,178,179
 361 2560 361 2560 437 2485 c 0,180,181
 512 2409 512 2409 512 2304 c 0,182,183
 512 2198 512 2198 437 2122 c 0,184,185
 361 2048 361 2048 256 2048 c 1,186,-1
 256 2048 l 1,170,171
2304 2048 m 1,187,188
 2198 2048 2198 2048 2122 2122 c 0,189,190
 2048 2198 2048 2198 2048 2304 c 0,191,192
 2048 2409 2048 2409 2122 2485 c 0,193,194
 2198 2560 2198 2560 2304 2560 c 0,195,196
 2409 2560 2409 2560 2485 2485 c 0,197,198
 2560 2409 2560 2409 2560 2304 c 0,199,200
 2560 2198 2560 2198 2485 2122 c 0,201,202
 2409 2048 2409 2048 2304 2048 c 1,203,-1
 2304 2048 l 1,187,188
256 2560 m 1,204,205
 150 2560 150 2560 74 2634 c 0,206,207
 0 2710 0 2710 0 2816 c 0,208,209
 0 2921 0 2921 74 2997 c 0,210,211
 150 3072 150 3072 256 3072 c 0,212,213
 361 3072 361 3072 437 2997 c 0,214,215
 512 2921 512 2921 512 2816 c 0,216,217
 512 2710 512 2710 437 2634 c 0,218,219
 361 2560 361 2560 256 2560 c 1,220,-1
 256 2560 l 1,204,205
2304 2560 m 1,221,222
 2198 2560 2198 2560 2122 2634 c 0,223,224
 2048 2710 2048 2710 2048 2816 c 0,225,226
 2048 2921 2048 2921 2122 2997 c 0,227,228
 2198 3072 2198 3072 2304 3072 c 0,229,230
 2409 3072 2409 3072 2485 2997 c 0,231,232
 2560 2921 2560 2921 2560 2816 c 0,233,234
 2560 2710 2560 2710 2485 2634 c 0,235,236
 2409 2560 2409 2560 2304 2560 c 1,237,-1
 2304 2560 l 1,221,222
768 3072 m 1,238,239
 662 3072 662 3072 586 3146 c 0,240,241
 512 3222 512 3222 512 3328 c 0,242,243
 512 3433 512 3433 586 3509 c 0,244,245
 662 3584 662 3584 768 3584 c 0,246,247
 873 3584 873 3584 949 3509 c 0,248,249
 1024 3433 1024 3433 1024 3328 c 0,250,251
 1024 3222 1024 3222 949 3146 c 0,252,253
 873 3072 873 3072 768 3072 c 1,254,-1
 768 3072 l 1,238,239
1280 3072 m 1,255,256
 1174 3072 1174 3072 1098 3146 c 0,257,258
 1024 3222 1024 3222 1024 3328 c 0,259,260
 1024 3433 1024 3433 1098 3509 c 0,261,262
 1174 3584 1174 3584 1280 3584 c 0,263,264
 1385 3584 1385 3584 1461 3509 c 0,265,266
 1536 3433 1536 3433 1536 3328 c 0,267,268
 1536 3222 1536 3222 1461 3146 c 0,269,270
 1385 3072 1385 3072 1280 3072 c 1,271,-1
 1280 3072 l 1,255,256
1792 3072 m 1,272,273
 1686 3072 1686 3072 1610 3146 c 0,274,275
 1536 3222 1536 3222 1536 3328 c 0,276,277
 1536 3433 1536 3433 1610 3509 c 0,278,279
 1686 3584 1686 3584 1792 3584 c 0,280,281
 1897 3584 1897 3584 1973 3509 c 0,282,283
 2048 3433 2048 3433 2048 3328 c 0,284,285
 2048 3222 2048 3222 1973 3146 c 0,286,287
 1897 3072 1897 3072 1792 3072 c 1,288,-1
 1792 3072 l 1,272,273
EndSplineSet
Validated: 5
EndChar

StartChar: nine
Encoding: 57 57 28
Width: 3072
GlyphClass: 1
Flags: W
LayerCount: 3
Fore
SplineSet
768 0 m 1,0,1
 662 0 662 0 586 74 c 0,2,3
 512 150 512 150 512 256 c 0,4,5
 512 361 512 361 586 437 c 0,6,7
 662 512 662 512 768 512 c 0,8,9
 873 512 873 512 949 437 c 0,10,11
 1024 361 1024 361 1024 256 c 0,12,13
 1024 150 1024 150 949 74 c 0,14,15
 873 0 873 0 768 0 c 1,16,-1
 768 0 l 1,0,1
1280 0 m 1,17,18
 1174 0 1174 0 1098 74 c 0,19,20
 1024 150 1024 150 1024 256 c 0,21,22
 1024 361 1024 361 1098 437 c 0,23,24
 1174 512 1174 512 1280 512 c 0,25,26
 1385 512 1385 512 1461 437 c 0,27,28
 1536 361 1536 361 1536 256 c 0,29,30
 1536 150 1536 150 1461 74 c 0,31,32
 1385 0 1385 0 1280 0 c 1,33,-1
 1280 0 l 1,17,18
1792 512 m 1,34,35
 1686 512 1686 512 1610 586 c 0,36,37
 1536 662 1536 662 1536 768 c 0,38,39
 1536 873 1536 873 1610 949 c 0,40,41
 1686 1024 1686 1024 1792 1024 c 0,42,43
 1897 1024 1897 1024 1973 949 c 0,44,45
 2048 873 2048 873 2048 768 c 0,46,47
 2048 662 2048 662 1973 586 c 0,48,49
 1897 512 1897 512 1792 512 c 1,50,-1
 1792 512 l 1,34,35
2304 1024 m 1,51,52
 2198 1024 2198 1024 2122 1098 c 0,53,54
 2048 1174 2048 1174 2048 1280 c 0,55,56
 2048 1385 2048 1385 2122 1461 c 0,57,58
 2198 1536 2198 1536 2304 1536 c 0,59,60
 2409 1536 2409 1536 2485 1461 c 0,61,62
 2560 1385 2560 1385 2560 1280 c 0,63,64
 2560 1174 2560 1174 2485 1098 c 0,65,66
 2409 1024 2409 1024 2304 1024 c 1,67,-1
 2304 1024 l 1,51,52
768 1536 m 1,68,69
 662 1536 662 1536 586 1610 c 0,70,71
 512 1686 512 1686 512 1792 c 0,72,73
 512 1897 512 1897 586 1973 c 0,74,75
 662 2048 662 2048 768 2048 c 0,76,77
 873 2048 873 2048 949 1973 c 0,78,79
 1024 1897 1024 1897 1024 1792 c 0,80,81
 1024 1686 1024 1686 949 1610 c 0,82,83
 873 1536 873 1536 768 1536 c 1,84,-1
 768 1536 l 1,68,69
1280 1536 m 1,85,86
 1174 1536 1174 1536 1098 1610 c 0,87,88
 1024 1686 1024 1686 1024 1792 c 0,89,90
 1024 1897 1024 1897 1098 1973 c 0,91,92
 1174 2048 1174 2048 1280 2048 c 0,93,94
 1385 2048 1385 2048 1461 1973 c 0,95,96
 1536 1897 1536 1897 1536 1792 c 0,97,98
 1536 1686 1536 1686 1461 1610 c 0,99,100
 1385 1536 1385 1536 1280 1536 c 1,101,-1
 1280 1536 l 1,85,86
1792 1536 m 1,102,103
 1686 1536 1686 1536 1610 1610 c 0,104,105
 1536 1686 1536 1686 1536 1792 c 0,106,107
 1536 1897 1536 1897 1610 1973 c 0,108,109
 1686 2048 1686 2048 1792 2048 c 0,110,111
 1897 2048 1897 2048 1973 1973 c 0,112,113
 2048 1897 2048 1897 2048 1792 c 0,114,115
 2048 1686 2048 1686 1973 1610 c 0,116,117
 1897 1536 1897 1536 1792 1536 c 1,118,-1
 1792 1536 l 1,102,103
2304 1536 m 1,119,120
 2198 1536 2198 1536 2122 1610 c 0,121,122
 2048 1686 2048 1686 2048 1792 c 0,123,124
 2048 1897 2048 1897 2122 1973 c 0,125,126
 2198 2048 2198 2048 2304 2048 c 0,127,128
 2409 2048 2409 2048 2485 1973 c 0,129,130
 2560 1897 2560 1897 2560 1792 c 0,131,132
 2560 1686 2560 1686 2485 1610 c 0,133,134
 2409 1536 2409 1536 2304 1536 c 1,135,-1
 2304 1536 l 1,119,120
256 2048 m 1,136,137
 150 2048 150 2048 74 2122 c 0,138,139
 0 2198 0 2198 0 2304 c 0,140,141
 0 2409 0 2409 74 2485 c 0,142,143
 150 2560 150 2560 256 2560 c 0,144,145
 361 2560 361 2560 437 2485 c 0,146,147
 512 2409 512 2409 512 2304 c 0,148,149
 512 2198 512 2198 437 2122 c 0,150,151
 361 2048 361 2048 256 2048 c 1,152,-1
 256 2048 l 1,136,137
2304 2048 m 1,153,154
 2198 2048 2198 2048 2122 2122 c 0,155,156
 2048 2198 2048 2198 2048 2304 c 0,157,158
 2048 2409 2048 2409 2122 2485 c 0,159,160
 2198 2560 2198 2560 2304 2560 c 0,161,162
 2409 2560 2409 2560 2485 2485 c 0,163,164
 2560 2409 2560 2409 2560 2304 c 0,165,166
 2560 2198 2560 2198 2485 2122 c 0,167,168
 2409 2048 2409 2048 2304 2048 c 1,169,-1
 2304 2048 l 1,153,154
256 2560 m 1,170,171
 150 2560 150 2560 74 2634 c 0,172,173
 0 2710 0 2710 0 2816 c 0,174,175
 0 2921 0 2921 74 2997 c 0,176,177
 150 3072 150 3072 256 3072 c 0,178,179
 361 3072 361 3072 437 2997 c 0,180,181
 512 2921 512 2921 512 2816 c 0,182,183
 512 2710 512 2710 437 2634 c 0,184,185
 361 2560 361 2560 256 2560 c 1,186,-1
 256 2560 l 1,170,171
2304 2560 m 1,187,188
 2198 2560 2198 2560 2122 2634 c 0,189,190
 2048 2710 2048 2710 2048 2816 c 0,191,192
 2048 2921 2048 2921 2122 2997 c 0,193,194
 2198 3072 2198 3072 2304 3072 c 0,195,196
 2409 3072 2409 3072 2485 2997 c 0,197,198
 2560 2921 2560 2921 2560 2816 c 0,199,200
 2560 2710 2560 2710 2485 2634 c 0,201,202
 2409 2560 2409 2560 2304 2560 c 1,203,-1
 2304 2560 l 1,187,188
768 3072 m 1,204,205
 662 3072 662 3072 586 3146 c 0,206,207
 512 3222 512 3222 512 3328 c 0,208,209
 512 3433 512 3433 586 3509 c 0,210,211
 662 3584 662 3584 768 3584 c 0,212,213
 873 3584 873 3584 949 3509 c 0,214,215
 1024 3433 1024 3433 1024 3328 c 0,216,217
 1024 3222 1024 3222 949 3146 c 0,218,219
 873 3072 873 3072 768 3072 c 1,220,-1
 768 3072 l 1,204,205
1280 3072 m 1,221,222
 1174 3072 1174 3072 1098 3146 c 0,223,224
 1024 3222 1024 3222 1024 3328 c 0,225,226
 1024 3433 1024 3433 1098 3509 c 0,227,228
 1174 3584 1174 3584 1280 3584 c 0,229,230
 1385 3584 1385 3584 1461 3509 c 0,231,232
 1536 3433 1536 3433 1536 3328 c 0,233,234
 1536 3222 1536 3222 1461 3146 c 0,235,236
 1385 3072 1385 3072 1280 3072 c 1,237,-1
 1280 3072 l 1,221,222
1792 3072 m 1,238,239
 1686 3072 1686 3072 1610 3146 c 0,240,241
 1536 3222 1536 3222 1536 3328 c 0,242,243
 1536 3433 1536 3433 1610 3509 c 0,244,245
 1686 3584 1686 3584 1792 3584 c 0,246,247
 1897 3584 1897 3584 1973 3509 c 0,248,249
 2048 3433 2048 3433 2048 3328 c 0,250,251
 2048 3222 2048 3222 1973 3146 c 0,252,253
 1897 3072 1897 3072 1792 3072 c 1,254,-1
 1792 3072 l 1,238,239
EndSplineSet
Validated: 5
EndChar

StartChar: colon
Encoding: 58 58 29
Width: 1024
GlyphClass: 1
Flags: W
LayerCount: 3
Fore
SplineSet
256 0 m 1,0,1
 150 0 150 0 74 74 c 0,2,3
 0 150 0 150 0 256 c 0,4,5
 0 361 0 361 74 437 c 0,6,7
 150 512 150 512 256 512 c 0,8,9
 361 512 361 512 437 437 c 0,10,11
 512 361 512 361 512 256 c 0,12,13
 512 150 512 150 437 74 c 0,14,15
 361 0 361 0 256 0 c 1,16,-1
 256 0 l 1,0,1
256 2048 m 1,17,18
 150 2048 150 2048 74 2122 c 0,19,20
 0 2198 0 2198 0 2304 c 0,21,22
 0 2409 0 2409 74 2485 c 0,23,24
 150 2560 150 2560 256 2560 c 0,25,26
 361 2560 361 2560 437 2485 c 0,27,28
 512 2409 512 2409 512 2304 c 0,29,30
 512 2198 512 2198 437 2122 c 0,31,32
 361 2048 361 2048 256 2048 c 1,33,-1
 256 2048 l 1,17,18
EndSplineSet
Validated: 5
EndChar

StartChar: semicolon
Encoding: 59 59 30
Width: 1024
GlyphClass: 1
Flags: W
LayerCount: 3
Fore
SplineSet
256 -512 m 1,0,1
 150 -512 150 -512 74 -437 c 0,2,3
 0 -361 0 -361 0 -256 c 0,4,5
 0 -150 0 -150 74 -74 c 0,6,7
 150 0 150 0 256 0 c 0,8,9
 361 0 361 0 437 -74 c 0,10,11
 512 -150 512 -150 512 -256 c 0,12,13
 512 -361 512 -361 437 -437 c 0,14,15
 361 -512 361 -512 256 -512 c 1,16,-1
 256 -512 l 1,0,1
256 0 m 1,17,18
 150 0 150 0 74 74 c 0,19,20
 0 150 0 150 0 256 c 0,21,22
 0 361 0 361 74 437 c 0,23,24
 150 512 150 512 256 512 c 0,25,26
 361 512 361 512 437 437 c 0,27,28
 512 361 512 361 512 256 c 0,29,30
 512 150 512 150 437 74 c 0,31,32
 361 0 361 0 256 0 c 1,33,-1
 256 0 l 1,17,18
256 2048 m 1,34,35
 150 2048 150 2048 74 2122 c 0,36,37
 0 2198 0 2198 0 2304 c 0,38,39
 0 2409 0 2409 74 2485 c 0,40,41
 150 2560 150 2560 256 2560 c 0,42,43
 361 2560 361 2560 437 2485 c 0,44,45
 512 2409 512 2409 512 2304 c 0,46,47
 512 2198 512 2198 437 2122 c 0,48,49
 361 2048 361 2048 256 2048 c 1,50,-1
 256 2048 l 1,34,35
EndSplineSet
Validated: 5
EndChar

StartChar: less
Encoding: 60 60 31
Width: 2560
GlyphClass: 1
Flags: W
LayerCount: 3
Fore
SplineSet
1792 0 m 1,0,1
 1686 0 1686 0 1610 74 c 0,2,3
 1536 150 1536 150 1536 256 c 0,4,5
 1536 361 1536 361 1610 437 c 0,6,7
 1686 512 1686 512 1792 512 c 0,8,9
 1897 512 1897 512 1973 437 c 0,10,11
 2048 361 2048 361 2048 256 c 0,12,13
 2048 150 2048 150 1973 74 c 0,14,15
 1897 0 1897 0 1792 0 c 1,16,-1
 1792 0 l 1,0,1
1280 512 m 1,17,18
 1174 512 1174 512 1098 586 c 0,19,20
 1024 662 1024 662 1024 768 c 0,21,22
 1024 873 1024 873 1098 949 c 0,23,24
 1174 1024 1174 1024 1280 1024 c 0,25,26
 1385 1024 1385 1024 1461 949 c 0,27,28
 1536 873 1536 873 1536 768 c 0,29,30
 1536 662 1536 662 1461 586 c 0,31,32
 1385 512 1385 512 1280 512 c 1,33,-1
 1280 512 l 1,17,18
768 1024 m 1,34,35
 662 1024 662 1024 586 1098 c 0,36,37
 512 1174 512 1174 512 1280 c 0,38,39
 512 1385 512 1385 586 1461 c 0,40,41
 662 1536 662 1536 768 1536 c 0,42,43
 873 1536 873 1536 949 1461 c 0,44,45
 1024 1385 1024 1385 1024 1280 c 0,46,47
 1024 1174 1024 1174 949 1098 c 0,48,49
 873 1024 873 1024 768 1024 c 1,50,-1
 768 1024 l 1,34,35
256 1536 m 1,51,52
 150 1536 150 1536 74 1610 c 0,53,54
 0 1686 0 1686 0 1792 c 0,55,56
 0 1897 0 1897 74 1973 c 0,57,58
 150 2048 150 2048 256 2048 c 0,59,60
 361 2048 361 2048 437 1973 c 0,61,62
 512 1897 512 1897 512 1792 c 0,63,64
 512 1686 512 1686 437 1610 c 0,65,66
 361 1536 361 1536 256 1536 c 1,67,-1
 256 1536 l 1,51,52
768 2048 m 1,68,69
 662 2048 662 2048 586 2122 c 0,70,71
 512 2198 512 2198 512 2304 c 0,72,73
 512 2409 512 2409 586 2485 c 0,74,75
 662 2560 662 2560 768 2560 c 0,76,77
 873 2560 873 2560 949 2485 c 0,78,79
 1024 2409 1024 2409 1024 2304 c 0,80,81
 1024 2198 1024 2198 949 2122 c 0,82,83
 873 2048 873 2048 768 2048 c 1,84,-1
 768 2048 l 1,68,69
1280 2560 m 1,85,86
 1174 2560 1174 2560 1098 2634 c 0,87,88
 1024 2710 1024 2710 1024 2816 c 0,89,90
 1024 2921 1024 2921 1098 2997 c 0,91,92
 1174 3072 1174 3072 1280 3072 c 0,93,94
 1385 3072 1385 3072 1461 2997 c 0,95,96
 1536 2921 1536 2921 1536 2816 c 0,97,98
 1536 2710 1536 2710 1461 2634 c 0,99,100
 1385 2560 1385 2560 1280 2560 c 1,101,-1
 1280 2560 l 1,85,86
1792 3072 m 1,102,103
 1686 3072 1686 3072 1610 3146 c 0,104,105
 1536 3222 1536 3222 1536 3328 c 0,106,107
 1536 3433 1536 3433 1610 3509 c 0,108,109
 1686 3584 1686 3584 1792 3584 c 0,110,111
 1897 3584 1897 3584 1973 3509 c 0,112,113
 2048 3433 2048 3433 2048 3328 c 0,114,115
 2048 3222 2048 3222 1973 3146 c 0,116,117
 1897 3072 1897 3072 1792 3072 c 1,118,-1
 1792 3072 l 1,102,103
EndSplineSet
Validated: 5
EndChar

StartChar: equal
Encoding: 61 61 32
Width: 3072
GlyphClass: 1
Flags: W
LayerCount: 3
Fore
SplineSet
256 512 m 1,0,1
 150 512 150 512 74 586 c 0,2,3
 0 662 0 662 0 768 c 0,4,5
 0 873 0 873 74 949 c 0,6,7
 150 1024 150 1024 256 1024 c 0,8,9
 361 1024 361 1024 437 949 c 0,10,11
 512 873 512 873 512 768 c 0,12,13
 512 662 512 662 437 586 c 0,14,15
 361 512 361 512 256 512 c 1,16,-1
 256 512 l 1,0,1
768 512 m 1,17,18
 662 512 662 512 586 586 c 0,19,20
 512 662 512 662 512 768 c 0,21,22
 512 873 512 873 586 949 c 0,23,24
 662 1024 662 1024 768 1024 c 0,25,26
 873 1024 873 1024 949 949 c 0,27,28
 1024 873 1024 873 1024 768 c 0,29,30
 1024 662 1024 662 949 586 c 0,31,32
 873 512 873 512 768 512 c 1,33,-1
 768 512 l 1,17,18
1280 512 m 1,34,35
 1174 512 1174 512 1098 586 c 0,36,37
 1024 662 1024 662 1024 768 c 0,38,39
 1024 873 1024 873 1098 949 c 0,40,41
 1174 1024 1174 1024 1280 1024 c 0,42,43
 1385 1024 1385 1024 1461 949 c 0,44,45
 1536 873 1536 873 1536 768 c 0,46,47
 1536 662 1536 662 1461 586 c 0,48,49
 1385 512 1385 512 1280 512 c 1,50,-1
 1280 512 l 1,34,35
1792 512 m 1,51,52
 1686 512 1686 512 1610 586 c 0,53,54
 1536 662 1536 662 1536 768 c 0,55,56
 1536 873 1536 873 1610 949 c 0,57,58
 1686 1024 1686 1024 1792 1024 c 0,59,60
 1897 1024 1897 1024 1973 949 c 0,61,62
 2048 873 2048 873 2048 768 c 0,63,64
 2048 662 2048 662 1973 586 c 0,65,66
 1897 512 1897 512 1792 512 c 1,67,-1
 1792 512 l 1,51,52
2304 512 m 1,68,69
 2198 512 2198 512 2122 586 c 0,70,71
 2048 662 2048 662 2048 768 c 0,72,73
 2048 873 2048 873 2122 949 c 0,74,75
 2198 1024 2198 1024 2304 1024 c 0,76,77
 2409 1024 2409 1024 2485 949 c 0,78,79
 2560 873 2560 873 2560 768 c 0,80,81
 2560 662 2560 662 2485 586 c 0,82,83
 2409 512 2409 512 2304 512 c 1,84,-1
 2304 512 l 1,68,69
256 1536 m 1,85,86
 150 1536 150 1536 74 1610 c 0,87,88
 0 1686 0 1686 0 1792 c 0,89,90
 0 1897 0 1897 74 1973 c 0,91,92
 150 2048 150 2048 256 2048 c 0,93,94
 361 2048 361 2048 437 1973 c 0,95,96
 512 1897 512 1897 512 1792 c 0,97,98
 512 1686 512 1686 437 1610 c 0,99,100
 361 1536 361 1536 256 1536 c 1,101,-1
 256 1536 l 1,85,86
768 1536 m 1,102,103
 662 1536 662 1536 586 1610 c 0,104,105
 512 1686 512 1686 512 1792 c 0,106,107
 512 1897 512 1897 586 1973 c 0,108,109
 662 2048 662 2048 768 2048 c 0,110,111
 873 2048 873 2048 949 1973 c 0,112,113
 1024 1897 1024 1897 1024 1792 c 0,114,115
 1024 1686 1024 1686 949 1610 c 0,116,117
 873 1536 873 1536 768 1536 c 1,118,-1
 768 1536 l 1,102,103
1280 1536 m 1,119,120
 1174 1536 1174 1536 1098 1610 c 0,121,122
 1024 1686 1024 1686 1024 1792 c 0,123,124
 1024 1897 1024 1897 1098 1973 c 0,125,126
 1174 2048 1174 2048 1280 2048 c 0,127,128
 1385 2048 1385 2048 1461 1973 c 0,129,130
 1536 1897 1536 1897 1536 1792 c 0,131,132
 1536 1686 1536 1686 1461 1610 c 0,133,134
 1385 1536 1385 1536 1280 1536 c 1,135,-1
 1280 1536 l 1,119,120
1792 1536 m 1,136,137
 1686 1536 1686 1536 1610 1610 c 0,138,139
 1536 1686 1536 1686 1536 1792 c 0,140,141
 1536 1897 1536 1897 1610 1973 c 0,142,143
 1686 2048 1686 2048 1792 2048 c 0,144,145
 1897 2048 1897 2048 1973 1973 c 0,146,147
 2048 1897 2048 1897 2048 1792 c 0,148,149
 2048 1686 2048 1686 1973 1610 c 0,150,151
 1897 1536 1897 1536 1792 1536 c 1,152,-1
 1792 1536 l 1,136,137
2304 1536 m 1,153,154
 2198 1536 2198 1536 2122 1610 c 0,155,156
 2048 1686 2048 1686 2048 1792 c 0,157,158
 2048 1897 2048 1897 2122 1973 c 0,159,160
 2198 2048 2198 2048 2304 2048 c 0,161,162
 2409 2048 2409 2048 2485 1973 c 0,163,164
 2560 1897 2560 1897 2560 1792 c 0,165,166
 2560 1686 2560 1686 2485 1610 c 0,167,168
 2409 1536 2409 1536 2304 1536 c 1,169,-1
 2304 1536 l 1,153,154
EndSplineSet
Validated: 5
EndChar

StartChar: greater
Encoding: 62 62 33
Width: 2560
GlyphClass: 1
Flags: W
LayerCount: 3
Fore
SplineSet
256 0 m 1,0,1
 150 0 150 0 74 74 c 0,2,3
 0 150 0 150 0 256 c 0,4,5
 0 361 0 361 74 437 c 0,6,7
 150 512 150 512 256 512 c 0,8,9
 361 512 361 512 437 437 c 0,10,11
 512 361 512 361 512 256 c 0,12,13
 512 150 512 150 437 74 c 0,14,15
 361 0 361 0 256 0 c 1,16,-1
 256 0 l 1,0,1
768 512 m 1,17,18
 662 512 662 512 586 586 c 0,19,20
 512 662 512 662 512 768 c 0,21,22
 512 873 512 873 586 949 c 0,23,24
 662 1024 662 1024 768 1024 c 0,25,26
 873 1024 873 1024 949 949 c 0,27,28
 1024 873 1024 873 1024 768 c 0,29,30
 1024 662 1024 662 949 586 c 0,31,32
 873 512 873 512 768 512 c 1,33,-1
 768 512 l 1,17,18
1280 1024 m 1,34,35
 1174 1024 1174 1024 1098 1098 c 0,36,37
 1024 1174 1024 1174 1024 1280 c 0,38,39
 1024 1385 1024 1385 1098 1461 c 0,40,41
 1174 1536 1174 1536 1280 1536 c 0,42,43
 1385 1536 1385 1536 1461 1461 c 0,44,45
 1536 1385 1536 1385 1536 1280 c 0,46,47
 1536 1174 1536 1174 1461 1098 c 0,48,49
 1385 1024 1385 1024 1280 1024 c 1,50,-1
 1280 1024 l 1,34,35
1792 1536 m 1,51,52
 1686 1536 1686 1536 1610 1610 c 0,53,54
 1536 1686 1536 1686 1536 1792 c 0,55,56
 1536 1897 1536 1897 1610 1973 c 0,57,58
 1686 2048 1686 2048 1792 2048 c 0,59,60
 1897 2048 1897 2048 1973 1973 c 0,61,62
 2048 1897 2048 1897 2048 1792 c 0,63,64
 2048 1686 2048 1686 1973 1610 c 0,65,66
 1897 1536 1897 1536 1792 1536 c 1,67,-1
 1792 1536 l 1,51,52
1280 2048 m 1,68,69
 1174 2048 1174 2048 1098 2122 c 0,70,71
 1024 2198 1024 2198 1024 2304 c 0,72,73
 1024 2409 1024 2409 1098 2485 c 0,74,75
 1174 2560 1174 2560 1280 2560 c 0,76,77
 1385 2560 1385 2560 1461 2485 c 0,78,79
 1536 2409 1536 2409 1536 2304 c 0,80,81
 1536 2198 1536 2198 1461 2122 c 0,82,83
 1385 2048 1385 2048 1280 2048 c 1,84,-1
 1280 2048 l 1,68,69
768 2560 m 1,85,86
 662 2560 662 2560 586 2634 c 0,87,88
 512 2710 512 2710 512 2816 c 0,89,90
 512 2921 512 2921 586 2997 c 0,91,92
 662 3072 662 3072 768 3072 c 0,93,94
 873 3072 873 3072 949 2997 c 0,95,96
 1024 2921 1024 2921 1024 2816 c 0,97,98
 1024 2710 1024 2710 949 2634 c 0,99,100
 873 2560 873 2560 768 2560 c 1,101,-1
 768 2560 l 1,85,86
256 3072 m 1,102,103
 150 3072 150 3072 74 3146 c 0,104,105
 0 3222 0 3222 0 3328 c 0,106,107
 0 3433 0 3433 74 3509 c 0,108,109
 150 3584 150 3584 256 3584 c 0,110,111
 361 3584 361 3584 437 3509 c 0,112,113
 512 3433 512 3433 512 3328 c 0,114,115
 512 3222 512 3222 437 3146 c 0,116,117
 361 3072 361 3072 256 3072 c 1,118,-1
 256 3072 l 1,102,103
EndSplineSet
Validated: 5
EndChar

StartChar: question
Encoding: 63 63 34
Width: 3072
GlyphClass: 1
Flags: W
LayerCount: 3
Fore
SplineSet
1280 0 m 1,0,1
 1174 0 1174 0 1098 74 c 0,2,3
 1024 150 1024 150 1024 256 c 0,4,5
 1024 361 1024 361 1098 437 c 0,6,7
 1174 512 1174 512 1280 512 c 0,8,9
 1385 512 1385 512 1461 437 c 0,10,11
 1536 361 1536 361 1536 256 c 0,12,13
 1536 150 1536 150 1461 74 c 0,14,15
 1385 0 1385 0 1280 0 c 1,16,-1
 1280 0 l 1,0,1
1280 1024 m 1,17,18
 1174 1024 1174 1024 1098 1098 c 0,19,20
 1024 1174 1024 1174 1024 1280 c 0,21,22
 1024 1385 1024 1385 1098 1461 c 0,23,24
 1174 1536 1174 1536 1280 1536 c 0,25,26
 1385 1536 1385 1536 1461 1461 c 0,27,28
 1536 1385 1536 1385 1536 1280 c 0,29,30
 1536 1174 1536 1174 1461 1098 c 0,31,32
 1385 1024 1385 1024 1280 1024 c 1,33,-1
 1280 1024 l 1,17,18
1792 1536 m 1,34,35
 1686 1536 1686 1536 1610 1610 c 0,36,37
 1536 1686 1536 1686 1536 1792 c 0,38,39
 1536 1897 1536 1897 1610 1973 c 0,40,41
 1686 2048 1686 2048 1792 2048 c 0,42,43
 1897 2048 1897 2048 1973 1973 c 0,44,45
 2048 1897 2048 1897 2048 1792 c 0,46,47
 2048 1686 2048 1686 1973 1610 c 0,48,49
 1897 1536 1897 1536 1792 1536 c 1,50,-1
 1792 1536 l 1,34,35
2304 2048 m 1,51,52
 2198 2048 2198 2048 2122 2122 c 0,53,54
 2048 2198 2048 2198 2048 2304 c 0,55,56
 2048 2409 2048 2409 2122 2485 c 0,57,58
 2198 2560 2198 2560 2304 2560 c 0,59,60
 2409 2560 2409 2560 2485 2485 c 0,61,62
 2560 2409 2560 2409 2560 2304 c 0,63,64
 2560 2198 2560 2198 2485 2122 c 0,65,66
 2409 2048 2409 2048 2304 2048 c 1,67,-1
 2304 2048 l 1,51,52
256 2560 m 1,68,69
 150 2560 150 2560 74 2634 c 0,70,71
 0 2710 0 2710 0 2816 c 0,72,73
 0 2921 0 2921 74 2997 c 0,74,75
 150 3072 150 3072 256 3072 c 0,76,77
 361 3072 361 3072 437 2997 c 0,78,79
 512 2921 512 2921 512 2816 c 0,80,81
 512 2710 512 2710 437 2634 c 0,82,83
 361 2560 361 2560 256 2560 c 1,84,-1
 256 2560 l 1,68,69
2304 2560 m 1,85,86
 2198 2560 2198 2560 2122 2634 c 0,87,88
 2048 2710 2048 2710 2048 2816 c 0,89,90
 2048 2921 2048 2921 2122 2997 c 0,91,92
 2198 3072 2198 3072 2304 3072 c 0,93,94
 2409 3072 2409 3072 2485 2997 c 0,95,96
 2560 2921 2560 2921 2560 2816 c 0,97,98
 2560 2710 2560 2710 2485 2634 c 0,99,100
 2409 2560 2409 2560 2304 2560 c 1,101,-1
 2304 2560 l 1,85,86
768 3072 m 1,102,103
 662 3072 662 3072 586 3146 c 0,104,105
 512 3222 512 3222 512 3328 c 0,106,107
 512 3433 512 3433 586 3509 c 0,108,109
 662 3584 662 3584 768 3584 c 0,110,111
 873 3584 873 3584 949 3509 c 0,112,113
 1024 3433 1024 3433 1024 3328 c 0,114,115
 1024 3222 1024 3222 949 3146 c 0,116,117
 873 3072 873 3072 768 3072 c 1,118,-1
 768 3072 l 1,102,103
1280 3072 m 1,119,120
 1174 3072 1174 3072 1098 3146 c 0,121,122
 1024 3222 1024 3222 1024 3328 c 0,123,124
 1024 3433 1024 3433 1098 3509 c 0,125,126
 1174 3584 1174 3584 1280 3584 c 0,127,128
 1385 3584 1385 3584 1461 3509 c 0,129,130
 1536 3433 1536 3433 1536 3328 c 0,131,132
 1536 3222 1536 3222 1461 3146 c 0,133,134
 1385 3072 1385 3072 1280 3072 c 1,135,-1
 1280 3072 l 1,119,120
1792 3072 m 1,136,137
 1686 3072 1686 3072 1610 3146 c 0,138,139
 1536 3222 1536 3222 1536 3328 c 0,140,141
 1536 3433 1536 3433 1610 3509 c 0,142,143
 1686 3584 1686 3584 1792 3584 c 0,144,145
 1897 3584 1897 3584 1973 3509 c 0,146,147
 2048 3433 2048 3433 2048 3328 c 0,148,149
 2048 3222 2048 3222 1973 3146 c 0,150,151
 1897 3072 1897 3072 1792 3072 c 1,152,-1
 1792 3072 l 1,136,137
EndSplineSet
Validated: 5
EndChar

StartChar: at
Encoding: 64 64 35
Width: 3584
GlyphClass: 1
Flags: W
LayerCount: 3
Fore
SplineSet
768 0 m 1,0,1
 662 0 662 0 586 74 c 0,2,3
 512 150 512 150 512 256 c 0,4,5
 512 361 512 361 586 437 c 0,6,7
 662 512 662 512 768 512 c 0,8,9
 873 512 873 512 949 437 c 0,10,11
 1024 361 1024 361 1024 256 c 0,12,13
 1024 150 1024 150 949 74 c 0,14,15
 873 0 873 0 768 0 c 1,16,-1
 768 0 l 1,0,1
1280 0 m 1,17,18
 1174 0 1174 0 1098 74 c 0,19,20
 1024 150 1024 150 1024 256 c 0,21,22
 1024 361 1024 361 1098 437 c 0,23,24
 1174 512 1174 512 1280 512 c 0,25,26
 1385 512 1385 512 1461 437 c 0,27,28
 1536 361 1536 361 1536 256 c 0,29,30
 1536 150 1536 150 1461 74 c 0,31,32
 1385 0 1385 0 1280 0 c 1,33,-1
 1280 0 l 1,17,18
1792 0 m 1,34,35
 1686 0 1686 0 1610 74 c 0,36,37
 1536 150 1536 150 1536 256 c 0,38,39
 1536 361 1536 361 1610 437 c 0,40,41
 1686 512 1686 512 1792 512 c 0,42,43
 1897 512 1897 512 1973 437 c 0,44,45
 2048 361 2048 361 2048 256 c 0,46,47
 2048 150 2048 150 1973 74 c 0,48,49
 1897 0 1897 0 1792 0 c 1,50,-1
 1792 0 l 1,34,35
2304 0 m 1,51,52
 2198 0 2198 0 2122 74 c 0,53,54
 2048 150 2048 150 2048 256 c 0,55,56
 2048 361 2048 361 2122 437 c 0,57,58
 2198 512 2198 512 2304 512 c 0,59,60
 2409 512 2409 512 2485 437 c 0,61,62
 2560 361 2560 361 2560 256 c 0,63,64
 2560 150 2560 150 2485 74 c 0,65,66
 2409 0 2409 0 2304 0 c 1,67,-1
 2304 0 l 1,51,52
256 512 m 1,68,69
 150 512 150 512 74 586 c 0,70,71
 0 662 0 662 0 768 c 0,72,73
 0 873 0 873 74 949 c 0,74,75
 150 1024 150 1024 256 1024 c 0,76,77
 361 1024 361 1024 437 949 c 0,78,79
 512 873 512 873 512 768 c 0,80,81
 512 662 512 662 437 586 c 0,82,83
 361 512 361 512 256 512 c 1,84,-1
 256 512 l 1,68,69
256 1024 m 1,85,86
 150 1024 150 1024 74 1098 c 0,87,88
 0 1174 0 1174 0 1280 c 0,89,90
 0 1385 0 1385 74 1461 c 0,91,92
 150 1536 150 1536 256 1536 c 0,93,94
 361 1536 361 1536 437 1461 c 0,95,96
 512 1385 512 1385 512 1280 c 0,97,98
 512 1174 512 1174 437 1098 c 0,99,100
 361 1024 361 1024 256 1024 c 1,101,-1
 256 1024 l 1,85,86
1280 1024 m 1,102,103
 1174 1024 1174 1024 1098 1098 c 0,104,105
 1024 1174 1024 1174 1024 1280 c 0,106,107
 1024 1385 1024 1385 1098 1461 c 0,108,109
 1174 1536 1174 1536 1280 1536 c 0,110,111
 1385 1536 1385 1536 1461 1461 c 0,112,113
 1536 1385 1536 1385 1536 1280 c 0,114,115
 1536 1174 1536 1174 1461 1098 c 0,116,117
 1385 1024 1385 1024 1280 1024 c 1,118,-1
 1280 1024 l 1,102,103
1792 1024 m 1,119,120
 1686 1024 1686 1024 1610 1098 c 0,121,122
 1536 1174 1536 1174 1536 1280 c 0,123,124
 1536 1385 1536 1385 1610 1461 c 0,125,126
 1686 1536 1686 1536 1792 1536 c 0,127,128
 1897 1536 1897 1536 1973 1461 c 0,129,130
 2048 1385 2048 1385 2048 1280 c 0,131,132
 2048 1174 2048 1174 1973 1098 c 0,133,134
 1897 1024 1897 1024 1792 1024 c 1,135,-1
 1792 1024 l 1,119,120
2304 1024 m 1,136,137
 2198 1024 2198 1024 2122 1098 c 0,138,139
 2048 1174 2048 1174 2048 1280 c 0,140,141
 2048 1385 2048 1385 2122 1461 c 0,142,143
 2198 1536 2198 1536 2304 1536 c 0,144,145
 2409 1536 2409 1536 2485 1461 c 0,146,147
 2560 1385 2560 1385 2560 1280 c 0,148,149
 2560 1174 2560 1174 2485 1098 c 0,150,151
 2409 1024 2409 1024 2304 1024 c 1,152,-1
 2304 1024 l 1,136,137
2816 1024 m 1,153,154
 2710 1024 2710 1024 2634 1098 c 0,155,156
 2560 1174 2560 1174 2560 1280 c 0,157,158
 2560 1385 2560 1385 2634 1461 c 0,159,160
 2710 1536 2710 1536 2816 1536 c 0,161,162
 2921 1536 2921 1536 2997 1461 c 0,163,164
 3072 1385 3072 1385 3072 1280 c 0,165,166
 3072 1174 3072 1174 2997 1098 c 0,167,168
 2921 1024 2921 1024 2816 1024 c 1,169,-1
 2816 1024 l 1,153,154
256 1536 m 1,170,171
 150 1536 150 1536 74 1610 c 0,172,173
 0 1686 0 1686 0 1792 c 0,174,175
 0 1897 0 1897 74 1973 c 0,176,177
 150 2048 150 2048 256 2048 c 0,178,179
 361 2048 361 2048 437 1973 c 0,180,181
 512 1897 512 1897 512 1792 c 0,182,183
 512 1686 512 1686 437 1610 c 0,184,185
 361 1536 361 1536 256 1536 c 1,186,-1
 256 1536 l 1,170,171
1280 1536 m 1,187,188
 1174 1536 1174 1536 1098 1610 c 0,189,190
 1024 1686 1024 1686 1024 1792 c 0,191,192
 1024 1897 1024 1897 1098 1973 c 0,193,194
 1174 2048 1174 2048 1280 2048 c 0,195,196
 1385 2048 1385 2048 1461 1973 c 0,197,198
 1536 1897 1536 1897 1536 1792 c 0,199,200
 1536 1686 1536 1686 1461 1610 c 0,201,202
 1385 1536 1385 1536 1280 1536 c 1,203,-1
 1280 1536 l 1,187,188
2816 1536 m 1,204,205
 2710 1536 2710 1536 2634 1610 c 0,206,207
 2560 1686 2560 1686 2560 1792 c 0,208,209
 2560 1897 2560 1897 2634 1973 c 0,210,211
 2710 2048 2710 2048 2816 2048 c 0,212,213
 2921 2048 2921 2048 2997 1973 c 0,214,215
 3072 1897 3072 1897 3072 1792 c 0,216,217
 3072 1686 3072 1686 2997 1610 c 0,218,219
 2921 1536 2921 1536 2816 1536 c 1,220,-1
 2816 1536 l 1,204,205
256 2048 m 1,221,222
 150 2048 150 2048 74 2122 c 0,223,224
 0 2198 0 2198 0 2304 c 0,225,226
 0 2409 0 2409 74 2485 c 0,227,228
 150 2560 150 2560 256 2560 c 0,229,230
 361 2560 361 2560 437 2485 c 0,231,232
 512 2409 512 2409 512 2304 c 0,233,234
 512 2198 512 2198 437 2122 c 0,235,236
 361 2048 361 2048 256 2048 c 1,237,-1
 256 2048 l 1,221,222
1280 2048 m 1,238,239
 1174 2048 1174 2048 1098 2122 c 0,240,241
 1024 2198 1024 2198 1024 2304 c 0,242,243
 1024 2409 1024 2409 1098 2485 c 0,244,245
 1174 2560 1174 2560 1280 2560 c 0,246,247
 1385 2560 1385 2560 1461 2485 c 0,248,249
 1536 2409 1536 2409 1536 2304 c 0,250,251
 1536 2198 1536 2198 1461 2122 c 0,252,253
 1385 2048 1385 2048 1280 2048 c 1,254,-1
 1280 2048 l 1,238,239
1792 2048 m 1,255,256
 1686 2048 1686 2048 1610 2122 c 0,257,258
 1536 2198 1536 2198 1536 2304 c 0,259,260
 1536 2409 1536 2409 1610 2485 c 0,261,262
 1686 2560 1686 2560 1792 2560 c 0,263,264
 1897 2560 1897 2560 1973 2485 c 0,265,266
 2048 2409 2048 2409 2048 2304 c 0,267,268
 2048 2198 2048 2198 1973 2122 c 0,269,270
 1897 2048 1897 2048 1792 2048 c 1,271,-1
 1792 2048 l 1,255,256
2816 2048 m 1,272,273
 2710 2048 2710 2048 2634 2122 c 0,274,275
 2560 2198 2560 2198 2560 2304 c 0,276,277
 2560 2409 2560 2409 2634 2485 c 0,278,279
 2710 2560 2710 2560 2816 2560 c 0,280,281
 2921 2560 2921 2560 2997 2485 c 0,282,283
 3072 2409 3072 2409 3072 2304 c 0,284,285
 3072 2198 3072 2198 2997 2122 c 0,286,287
 2921 2048 2921 2048 2816 2048 c 1,288,-1
 2816 2048 l 1,272,273
256 2560 m 1,289,290
 150 2560 150 2560 74 2634 c 0,291,292
 0 2710 0 2710 0 2816 c 0,293,294
 0 2921 0 2921 74 2997 c 0,295,296
 150 3072 150 3072 256 3072 c 0,297,298
 361 3072 361 3072 437 2997 c 0,299,300
 512 2921 512 2921 512 2816 c 0,301,302
 512 2710 512 2710 437 2634 c 0,303,304
 361 2560 361 2560 256 2560 c 1,305,-1
 256 2560 l 1,289,290
2816 2560 m 1,306,307
 2710 2560 2710 2560 2634 2634 c 0,308,309
 2560 2710 2560 2710 2560 2816 c 0,310,311
 2560 2921 2560 2921 2634 2997 c 0,312,313
 2710 3072 2710 3072 2816 3072 c 0,314,315
 2921 3072 2921 3072 2997 2997 c 0,316,317
 3072 2921 3072 2921 3072 2816 c 0,318,319
 3072 2710 3072 2710 2997 2634 c 0,320,321
 2921 2560 2921 2560 2816 2560 c 1,322,-1
 2816 2560 l 1,306,307
768 3072 m 1,323,324
 662 3072 662 3072 586 3146 c 0,325,326
 512 3222 512 3222 512 3328 c 0,327,328
 512 3433 512 3433 586 3509 c 0,329,330
 662 3584 662 3584 768 3584 c 0,331,332
 873 3584 873 3584 949 3509 c 0,333,334
 1024 3433 1024 3433 1024 3328 c 0,335,336
 1024 3222 1024 3222 949 3146 c 0,337,338
 873 3072 873 3072 768 3072 c 1,339,-1
 768 3072 l 1,323,324
1280 3072 m 1,340,341
 1174 3072 1174 3072 1098 3146 c 0,342,343
 1024 3222 1024 3222 1024 3328 c 0,344,345
 1024 3433 1024 3433 1098 3509 c 0,346,347
 1174 3584 1174 3584 1280 3584 c 0,348,349
 1385 3584 1385 3584 1461 3509 c 0,350,351
 1536 3433 1536 3433 1536 3328 c 0,352,353
 1536 3222 1536 3222 1461 3146 c 0,354,355
 1385 3072 1385 3072 1280 3072 c 1,356,-1
 1280 3072 l 1,340,341
1792 3072 m 1,357,358
 1686 3072 1686 3072 1610 3146 c 0,359,360
 1536 3222 1536 3222 1536 3328 c 0,361,362
 1536 3433 1536 3433 1610 3509 c 0,363,364
 1686 3584 1686 3584 1792 3584 c 0,365,366
 1897 3584 1897 3584 1973 3509 c 0,367,368
 2048 3433 2048 3433 2048 3328 c 0,369,370
 2048 3222 2048 3222 1973 3146 c 0,371,372
 1897 3072 1897 3072 1792 3072 c 1,373,-1
 1792 3072 l 1,357,358
2304 3072 m 1,374,375
 2198 3072 2198 3072 2122 3146 c 0,376,377
 2048 3222 2048 3222 2048 3328 c 0,378,379
 2048 3433 2048 3433 2122 3509 c 0,380,381
 2198 3584 2198 3584 2304 3584 c 0,382,383
 2409 3584 2409 3584 2485 3509 c 0,384,385
 2560 3433 2560 3433 2560 3328 c 0,386,387
 2560 3222 2560 3222 2485 3146 c 0,388,389
 2409 3072 2409 3072 2304 3072 c 1,390,-1
 2304 3072 l 1,374,375
EndSplineSet
Validated: 5
EndChar

StartChar: A
Encoding: 65 65 36
Width: 3072
GlyphClass: 1
Flags: W
LayerCount: 3
Fore
SplineSet
256 0 m 1,0,1
 150 0 150 0 74 74 c 0,2,3
 0 150 0 150 0 256 c 0,4,5
 0 361 0 361 74 437 c 0,6,7
 150 512 150 512 256 512 c 0,8,9
 361 512 361 512 437 437 c 0,10,11
 512 361 512 361 512 256 c 0,12,13
 512 150 512 150 437 74 c 0,14,15
 361 0 361 0 256 0 c 1,16,-1
 256 0 l 1,0,1
2304 0 m 1,17,18
 2198 0 2198 0 2122 74 c 0,19,20
 2048 150 2048 150 2048 256 c 0,21,22
 2048 361 2048 361 2122 437 c 0,23,24
 2198 512 2198 512 2304 512 c 0,25,26
 2409 512 2409 512 2485 437 c 0,27,28
 2560 361 2560 361 2560 256 c 0,29,30
 2560 150 2560 150 2485 74 c 0,31,32
 2409 0 2409 0 2304 0 c 1,33,-1
 2304 0 l 1,17,18
256 512 m 1,34,35
 150 512 150 512 74 586 c 0,36,37
 0 662 0 662 0 768 c 0,38,39
 0 873 0 873 74 949 c 0,40,41
 150 1024 150 1024 256 1024 c 0,42,43
 361 1024 361 1024 437 949 c 0,44,45
 512 873 512 873 512 768 c 0,46,47
 512 662 512 662 437 586 c 0,48,49
 361 512 361 512 256 512 c 1,50,-1
 256 512 l 1,34,35
2304 512 m 1,51,52
 2198 512 2198 512 2122 586 c 0,53,54
 2048 662 2048 662 2048 768 c 0,55,56
 2048 873 2048 873 2122 949 c 0,57,58
 2198 1024 2198 1024 2304 1024 c 0,59,60
 2409 1024 2409 1024 2485 949 c 0,61,62
 2560 873 2560 873 2560 768 c 0,63,64
 2560 662 2560 662 2485 586 c 0,65,66
 2409 512 2409 512 2304 512 c 1,67,-1
 2304 512 l 1,51,52
256 1024 m 1,68,69
 150 1024 150 1024 74 1098 c 0,70,71
 0 1174 0 1174 0 1280 c 0,72,73
 0 1385 0 1385 74 1461 c 0,74,75
 150 1536 150 1536 256 1536 c 0,76,77
 361 1536 361 1536 437 1461 c 0,78,79
 512 1385 512 1385 512 1280 c 0,80,81
 512 1174 512 1174 437 1098 c 0,82,83
 361 1024 361 1024 256 1024 c 1,84,-1
 256 1024 l 1,68,69
2304 1024 m 1,85,86
 2198 1024 2198 1024 2122 1098 c 0,87,88
 2048 1174 2048 1174 2048 1280 c 0,89,90
 2048 1385 2048 1385 2122 1461 c 0,91,92
 2198 1536 2198 1536 2304 1536 c 0,93,94
 2409 1536 2409 1536 2485 1461 c 0,95,96
 2560 1385 2560 1385 2560 1280 c 0,97,98
 2560 1174 2560 1174 2485 1098 c 0,99,100
 2409 1024 2409 1024 2304 1024 c 1,101,-1
 2304 1024 l 1,85,86
256 1536 m 1,102,103
 150 1536 150 1536 74 1610 c 0,104,105
 0 1686 0 1686 0 1792 c 0,106,107
 0 1897 0 1897 74 1973 c 0,108,109
 150 2048 150 2048 256 2048 c 0,110,111
 361 2048 361 2048 437 1973 c 0,112,113
 512 1897 512 1897 512 1792 c 0,114,115
 512 1686 512 1686 437 1610 c 0,116,117
 361 1536 361 1536 256 1536 c 1,118,-1
 256 1536 l 1,102,103
2304 1536 m 1,119,120
 2198 1536 2198 1536 2122 1610 c 0,121,122
 2048 1686 2048 1686 2048 1792 c 0,123,124
 2048 1897 2048 1897 2122 1973 c 0,125,126
 2198 2048 2198 2048 2304 2048 c 0,127,128
 2409 2048 2409 2048 2485 1973 c 0,129,130
 2560 1897 2560 1897 2560 1792 c 0,131,132
 2560 1686 2560 1686 2485 1610 c 0,133,134
 2409 1536 2409 1536 2304 1536 c 1,135,-1
 2304 1536 l 1,119,120
256 2048 m 1,136,137
 150 2048 150 2048 74 2122 c 0,138,139
 0 2198 0 2198 0 2304 c 0,140,141
 0 2409 0 2409 74 2485 c 0,142,143
 150 2560 150 2560 256 2560 c 0,144,145
 361 2560 361 2560 437 2485 c 0,146,147
 512 2409 512 2409 512 2304 c 0,148,149
 512 2198 512 2198 437 2122 c 0,150,151
 361 2048 361 2048 256 2048 c 1,152,-1
 256 2048 l 1,136,137
768 2048 m 1,153,154
 662 2048 662 2048 586 2122 c 0,155,156
 512 2198 512 2198 512 2304 c 0,157,158
 512 2409 512 2409 586 2485 c 0,159,160
 662 2560 662 2560 768 2560 c 0,161,162
 873 2560 873 2560 949 2485 c 0,163,164
 1024 2409 1024 2409 1024 2304 c 0,165,166
 1024 2198 1024 2198 949 2122 c 0,167,168
 873 2048 873 2048 768 2048 c 1,169,-1
 768 2048 l 1,153,154
1280 2048 m 1,170,171
 1174 2048 1174 2048 1098 2122 c 0,172,173
 1024 2198 1024 2198 1024 2304 c 0,174,175
 1024 2409 1024 2409 1098 2485 c 0,176,177
 1174 2560 1174 2560 1280 2560 c 0,178,179
 1385 2560 1385 2560 1461 2485 c 0,180,181
 1536 2409 1536 2409 1536 2304 c 0,182,183
 1536 2198 1536 2198 1461 2122 c 0,184,185
 1385 2048 1385 2048 1280 2048 c 1,186,-1
 1280 2048 l 1,170,171
1792 2048 m 1,187,188
 1686 2048 1686 2048 1610 2122 c 0,189,190
 1536 2198 1536 2198 1536 2304 c 0,191,192
 1536 2409 1536 2409 1610 2485 c 0,193,194
 1686 2560 1686 2560 1792 2560 c 0,195,196
 1897 2560 1897 2560 1973 2485 c 0,197,198
 2048 2409 2048 2409 2048 2304 c 0,199,200
 2048 2198 2048 2198 1973 2122 c 0,201,202
 1897 2048 1897 2048 1792 2048 c 1,203,-1
 1792 2048 l 1,187,188
2304 2048 m 1,204,205
 2198 2048 2198 2048 2122 2122 c 0,206,207
 2048 2198 2048 2198 2048 2304 c 0,208,209
 2048 2409 2048 2409 2122 2485 c 0,210,211
 2198 2560 2198 2560 2304 2560 c 0,212,213
 2409 2560 2409 2560 2485 2485 c 0,214,215
 2560 2409 2560 2409 2560 2304 c 0,216,217
 2560 2198 2560 2198 2485 2122 c 0,218,219
 2409 2048 2409 2048 2304 2048 c 1,220,-1
 2304 2048 l 1,204,205
256 2560 m 1,221,222
 150 2560 150 2560 74 2634 c 0,223,224
 0 2710 0 2710 0 2816 c 0,225,226
 0 2921 0 2921 74 2997 c 0,227,228
 150 3072 150 3072 256 3072 c 0,229,230
 361 3072 361 3072 437 2997 c 0,231,232
 512 2921 512 2921 512 2816 c 0,233,234
 512 2710 512 2710 437 2634 c 0,235,236
 361 2560 361 2560 256 2560 c 1,237,-1
 256 2560 l 1,221,222
2304 2560 m 1,238,239
 2198 2560 2198 2560 2122 2634 c 0,240,241
 2048 2710 2048 2710 2048 2816 c 0,242,243
 2048 2921 2048 2921 2122 2997 c 0,244,245
 2198 3072 2198 3072 2304 3072 c 0,246,247
 2409 3072 2409 3072 2485 2997 c 0,248,249
 2560 2921 2560 2921 2560 2816 c 0,250,251
 2560 2710 2560 2710 2485 2634 c 0,252,253
 2409 2560 2409 2560 2304 2560 c 1,254,-1
 2304 2560 l 1,238,239
768 3072 m 1,255,256
 662 3072 662 3072 586 3146 c 0,257,258
 512 3222 512 3222 512 3328 c 0,259,260
 512 3433 512 3433 586 3509 c 0,261,262
 662 3584 662 3584 768 3584 c 0,263,264
 873 3584 873 3584 949 3509 c 0,265,266
 1024 3433 1024 3433 1024 3328 c 0,267,268
 1024 3222 1024 3222 949 3146 c 0,269,270
 873 3072 873 3072 768 3072 c 1,271,-1
 768 3072 l 1,255,256
1280 3072 m 1,272,273
 1174 3072 1174 3072 1098 3146 c 0,274,275
 1024 3222 1024 3222 1024 3328 c 0,276,277
 1024 3433 1024 3433 1098 3509 c 0,278,279
 1174 3584 1174 3584 1280 3584 c 0,280,281
 1385 3584 1385 3584 1461 3509 c 0,282,283
 1536 3433 1536 3433 1536 3328 c 0,284,285
 1536 3222 1536 3222 1461 3146 c 0,286,287
 1385 3072 1385 3072 1280 3072 c 1,288,-1
 1280 3072 l 1,272,273
1792 3072 m 1,289,290
 1686 3072 1686 3072 1610 3146 c 0,291,292
 1536 3222 1536 3222 1536 3328 c 0,293,294
 1536 3433 1536 3433 1610 3509 c 0,295,296
 1686 3584 1686 3584 1792 3584 c 0,297,298
 1897 3584 1897 3584 1973 3509 c 0,299,300
 2048 3433 2048 3433 2048 3328 c 0,301,302
 2048 3222 2048 3222 1973 3146 c 0,303,304
 1897 3072 1897 3072 1792 3072 c 1,305,-1
 1792 3072 l 1,289,290
EndSplineSet
Validated: 5
EndChar

StartChar: B
Encoding: 66 66 37
Width: 3072
GlyphClass: 1
Flags: W
LayerCount: 3
Fore
SplineSet
256 0 m 1,0,1
 150 0 150 0 74 74 c 0,2,3
 0 150 0 150 0 256 c 0,4,5
 0 361 0 361 74 437 c 0,6,7
 150 512 150 512 256 512 c 0,8,9
 361 512 361 512 437 437 c 0,10,11
 512 361 512 361 512 256 c 0,12,13
 512 150 512 150 437 74 c 0,14,15
 361 0 361 0 256 0 c 1,16,-1
 256 0 l 1,0,1
768 0 m 1,17,18
 662 0 662 0 586 74 c 0,19,20
 512 150 512 150 512 256 c 0,21,22
 512 361 512 361 586 437 c 0,23,24
 662 512 662 512 768 512 c 0,25,26
 873 512 873 512 949 437 c 0,27,28
 1024 361 1024 361 1024 256 c 0,29,30
 1024 150 1024 150 949 74 c 0,31,32
 873 0 873 0 768 0 c 1,33,-1
 768 0 l 1,17,18
1280 0 m 1,34,35
 1174 0 1174 0 1098 74 c 0,36,37
 1024 150 1024 150 1024 256 c 0,38,39
 1024 361 1024 361 1098 437 c 0,40,41
 1174 512 1174 512 1280 512 c 0,42,43
 1385 512 1385 512 1461 437 c 0,44,45
 1536 361 1536 361 1536 256 c 0,46,47
 1536 150 1536 150 1461 74 c 0,48,49
 1385 0 1385 0 1280 0 c 1,50,-1
 1280 0 l 1,34,35
1792 0 m 1,51,52
 1686 0 1686 0 1610 74 c 0,53,54
 1536 150 1536 150 1536 256 c 0,55,56
 1536 361 1536 361 1610 437 c 0,57,58
 1686 512 1686 512 1792 512 c 0,59,60
 1897 512 1897 512 1973 437 c 0,61,62
 2048 361 2048 361 2048 256 c 0,63,64
 2048 150 2048 150 1973 74 c 0,65,66
 1897 0 1897 0 1792 0 c 1,67,-1
 1792 0 l 1,51,52
256 512 m 1,68,69
 150 512 150 512 74 586 c 0,70,71
 0 662 0 662 0 768 c 0,72,73
 0 873 0 873 74 949 c 0,74,75
 150 1024 150 1024 256 1024 c 0,76,77
 361 1024 361 1024 437 949 c 0,78,79
 512 873 512 873 512 768 c 0,80,81
 512 662 512 662 437 586 c 0,82,83
 361 512 361 512 256 512 c 1,84,-1
 256 512 l 1,68,69
2304 512 m 1,85,86
 2198 512 2198 512 2122 586 c 0,87,88
 2048 662 2048 662 2048 768 c 0,89,90
 2048 873 2048 873 2122 949 c 0,91,92
 2198 1024 2198 1024 2304 1024 c 0,93,94
 2409 1024 2409 1024 2485 949 c 0,95,96
 2560 873 2560 873 2560 768 c 0,97,98
 2560 662 2560 662 2485 586 c 0,99,100
 2409 512 2409 512 2304 512 c 1,101,-1
 2304 512 l 1,85,86
256 1024 m 1,102,103
 150 1024 150 1024 74 1098 c 0,104,105
 0 1174 0 1174 0 1280 c 0,106,107
 0 1385 0 1385 74 1461 c 0,108,109
 150 1536 150 1536 256 1536 c 0,110,111
 361 1536 361 1536 437 1461 c 0,112,113
 512 1385 512 1385 512 1280 c 0,114,115
 512 1174 512 1174 437 1098 c 0,116,117
 361 1024 361 1024 256 1024 c 1,118,-1
 256 1024 l 1,102,103
2304 1024 m 1,119,120
 2198 1024 2198 1024 2122 1098 c 0,121,122
 2048 1174 2048 1174 2048 1280 c 0,123,124
 2048 1385 2048 1385 2122 1461 c 0,125,126
 2198 1536 2198 1536 2304 1536 c 0,127,128
 2409 1536 2409 1536 2485 1461 c 0,129,130
 2560 1385 2560 1385 2560 1280 c 0,131,132
 2560 1174 2560 1174 2485 1098 c 0,133,134
 2409 1024 2409 1024 2304 1024 c 1,135,-1
 2304 1024 l 1,119,120
256 1536 m 1,136,137
 150 1536 150 1536 74 1610 c 0,138,139
 0 1686 0 1686 0 1792 c 0,140,141
 0 1897 0 1897 74 1973 c 0,142,143
 150 2048 150 2048 256 2048 c 0,144,145
 361 2048 361 2048 437 1973 c 0,146,147
 512 1897 512 1897 512 1792 c 0,148,149
 512 1686 512 1686 437 1610 c 0,150,151
 361 1536 361 1536 256 1536 c 1,152,-1
 256 1536 l 1,136,137
2304 1536 m 1,153,154
 2198 1536 2198 1536 2122 1610 c 0,155,156
 2048 1686 2048 1686 2048 1792 c 0,157,158
 2048 1897 2048 1897 2122 1973 c 0,159,160
 2198 2048 2198 2048 2304 2048 c 0,161,162
 2409 2048 2409 2048 2485 1973 c 0,163,164
 2560 1897 2560 1897 2560 1792 c 0,165,166
 2560 1686 2560 1686 2485 1610 c 0,167,168
 2409 1536 2409 1536 2304 1536 c 1,169,-1
 2304 1536 l 1,153,154
256 2048 m 1,170,171
 150 2048 150 2048 74 2122 c 0,172,173
 0 2198 0 2198 0 2304 c 0,174,175
 0 2409 0 2409 74 2485 c 0,176,177
 150 2560 150 2560 256 2560 c 0,178,179
 361 2560 361 2560 437 2485 c 0,180,181
 512 2409 512 2409 512 2304 c 0,182,183
 512 2198 512 2198 437 2122 c 0,184,185
 361 2048 361 2048 256 2048 c 1,186,-1
 256 2048 l 1,170,171
768 2048 m 1,187,188
 662 2048 662 2048 586 2122 c 0,189,190
 512 2198 512 2198 512 2304 c 0,191,192
 512 2409 512 2409 586 2485 c 0,193,194
 662 2560 662 2560 768 2560 c 0,195,196
 873 2560 873 2560 949 2485 c 0,197,198
 1024 2409 1024 2409 1024 2304 c 0,199,200
 1024 2198 1024 2198 949 2122 c 0,201,202
 873 2048 873 2048 768 2048 c 1,203,-1
 768 2048 l 1,187,188
1280 2048 m 1,204,205
 1174 2048 1174 2048 1098 2122 c 0,206,207
 1024 2198 1024 2198 1024 2304 c 0,208,209
 1024 2409 1024 2409 1098 2485 c 0,210,211
 1174 2560 1174 2560 1280 2560 c 0,212,213
 1385 2560 1385 2560 1461 2485 c 0,214,215
 1536 2409 1536 2409 1536 2304 c 0,216,217
 1536 2198 1536 2198 1461 2122 c 0,218,219
 1385 2048 1385 2048 1280 2048 c 1,220,-1
 1280 2048 l 1,204,205
1792 2048 m 1,221,222
 1686 2048 1686 2048 1610 2122 c 0,223,224
 1536 2198 1536 2198 1536 2304 c 0,225,226
 1536 2409 1536 2409 1610 2485 c 0,227,228
 1686 2560 1686 2560 1792 2560 c 0,229,230
 1897 2560 1897 2560 1973 2485 c 0,231,232
 2048 2409 2048 2409 2048 2304 c 0,233,234
 2048 2198 2048 2198 1973 2122 c 0,235,236
 1897 2048 1897 2048 1792 2048 c 1,237,-1
 1792 2048 l 1,221,222
256 2560 m 1,238,239
 150 2560 150 2560 74 2634 c 0,240,241
 0 2710 0 2710 0 2816 c 0,242,243
 0 2921 0 2921 74 2997 c 0,244,245
 150 3072 150 3072 256 3072 c 0,246,247
 361 3072 361 3072 437 2997 c 0,248,249
 512 2921 512 2921 512 2816 c 0,250,251
 512 2710 512 2710 437 2634 c 0,252,253
 361 2560 361 2560 256 2560 c 1,254,-1
 256 2560 l 1,238,239
2304 2560 m 1,255,256
 2198 2560 2198 2560 2122 2634 c 0,257,258
 2048 2710 2048 2710 2048 2816 c 0,259,260
 2048 2921 2048 2921 2122 2997 c 0,261,262
 2198 3072 2198 3072 2304 3072 c 0,263,264
 2409 3072 2409 3072 2485 2997 c 0,265,266
 2560 2921 2560 2921 2560 2816 c 0,267,268
 2560 2710 2560 2710 2485 2634 c 0,269,270
 2409 2560 2409 2560 2304 2560 c 1,271,-1
 2304 2560 l 1,255,256
256 3072 m 1,272,273
 150 3072 150 3072 74 3146 c 0,274,275
 0 3222 0 3222 0 3328 c 0,276,277
 0 3433 0 3433 74 3509 c 0,278,279
 150 3584 150 3584 256 3584 c 0,280,281
 361 3584 361 3584 437 3509 c 0,282,283
 512 3433 512 3433 512 3328 c 0,284,285
 512 3222 512 3222 437 3146 c 0,286,287
 361 3072 361 3072 256 3072 c 1,288,-1
 256 3072 l 1,272,273
768 3072 m 1,289,290
 662 3072 662 3072 586 3146 c 0,291,292
 512 3222 512 3222 512 3328 c 0,293,294
 512 3433 512 3433 586 3509 c 0,295,296
 662 3584 662 3584 768 3584 c 0,297,298
 873 3584 873 3584 949 3509 c 0,299,300
 1024 3433 1024 3433 1024 3328 c 0,301,302
 1024 3222 1024 3222 949 3146 c 0,303,304
 873 3072 873 3072 768 3072 c 1,305,-1
 768 3072 l 1,289,290
1280 3072 m 1,306,307
 1174 3072 1174 3072 1098 3146 c 0,308,309
 1024 3222 1024 3222 1024 3328 c 0,310,311
 1024 3433 1024 3433 1098 3509 c 0,312,313
 1174 3584 1174 3584 1280 3584 c 0,314,315
 1385 3584 1385 3584 1461 3509 c 0,316,317
 1536 3433 1536 3433 1536 3328 c 0,318,319
 1536 3222 1536 3222 1461 3146 c 0,320,321
 1385 3072 1385 3072 1280 3072 c 1,322,-1
 1280 3072 l 1,306,307
1792 3072 m 1,323,324
 1686 3072 1686 3072 1610 3146 c 0,325,326
 1536 3222 1536 3222 1536 3328 c 0,327,328
 1536 3433 1536 3433 1610 3509 c 0,329,330
 1686 3584 1686 3584 1792 3584 c 0,331,332
 1897 3584 1897 3584 1973 3509 c 0,333,334
 2048 3433 2048 3433 2048 3328 c 0,335,336
 2048 3222 2048 3222 1973 3146 c 0,337,338
 1897 3072 1897 3072 1792 3072 c 1,339,-1
 1792 3072 l 1,323,324
EndSplineSet
Validated: 5
EndChar

StartChar: C
Encoding: 67 67 38
Width: 3072
GlyphClass: 1
Flags: W
LayerCount: 3
Fore
SplineSet
768 0 m 1,0,1
 662 0 662 0 586 74 c 0,2,3
 512 150 512 150 512 256 c 0,4,5
 512 361 512 361 586 437 c 0,6,7
 662 512 662 512 768 512 c 0,8,9
 873 512 873 512 949 437 c 0,10,11
 1024 361 1024 361 1024 256 c 0,12,13
 1024 150 1024 150 949 74 c 0,14,15
 873 0 873 0 768 0 c 1,16,-1
 768 0 l 1,0,1
1280 0 m 1,17,18
 1174 0 1174 0 1098 74 c 0,19,20
 1024 150 1024 150 1024 256 c 0,21,22
 1024 361 1024 361 1098 437 c 0,23,24
 1174 512 1174 512 1280 512 c 0,25,26
 1385 512 1385 512 1461 437 c 0,27,28
 1536 361 1536 361 1536 256 c 0,29,30
 1536 150 1536 150 1461 74 c 0,31,32
 1385 0 1385 0 1280 0 c 1,33,-1
 1280 0 l 1,17,18
1792 0 m 1,34,35
 1686 0 1686 0 1610 74 c 0,36,37
 1536 150 1536 150 1536 256 c 0,38,39
 1536 361 1536 361 1610 437 c 0,40,41
 1686 512 1686 512 1792 512 c 0,42,43
 1897 512 1897 512 1973 437 c 0,44,45
 2048 361 2048 361 2048 256 c 0,46,47
 2048 150 2048 150 1973 74 c 0,48,49
 1897 0 1897 0 1792 0 c 1,50,-1
 1792 0 l 1,34,35
256 512 m 1,51,52
 150 512 150 512 74 586 c 0,53,54
 0 662 0 662 0 768 c 0,55,56
 0 873 0 873 74 949 c 0,57,58
 150 1024 150 1024 256 1024 c 0,59,60
 361 1024 361 1024 437 949 c 0,61,62
 512 873 512 873 512 768 c 0,63,64
 512 662 512 662 437 586 c 0,65,66
 361 512 361 512 256 512 c 1,67,-1
 256 512 l 1,51,52
2304 512 m 1,68,69
 2198 512 2198 512 2122 586 c 0,70,71
 2048 662 2048 662 2048 768 c 0,72,73
 2048 873 2048 873 2122 949 c 0,74,75
 2198 1024 2198 1024 2304 1024 c 0,76,77
 2409 1024 2409 1024 2485 949 c 0,78,79
 2560 873 2560 873 2560 768 c 0,80,81
 2560 662 2560 662 2485 586 c 0,82,83
 2409 512 2409 512 2304 512 c 1,84,-1
 2304 512 l 1,68,69
256 1024 m 1,85,86
 150 1024 150 1024 74 1098 c 0,87,88
 0 1174 0 1174 0 1280 c 0,89,90
 0 1385 0 1385 74 1461 c 0,91,92
 150 1536 150 1536 256 1536 c 0,93,94
 361 1536 361 1536 437 1461 c 0,95,96
 512 1385 512 1385 512 1280 c 0,97,98
 512 1174 512 1174 437 1098 c 0,99,100
 361 1024 361 1024 256 1024 c 1,101,-1
 256 1024 l 1,85,86
256 1536 m 1,102,103
 150 1536 150 1536 74 1610 c 0,104,105
 0 1686 0 1686 0 1792 c 0,106,107
 0 1897 0 1897 74 1973 c 0,108,109
 150 2048 150 2048 256 2048 c 0,110,111
 361 2048 361 2048 437 1973 c 0,112,113
 512 1897 512 1897 512 1792 c 0,114,115
 512 1686 512 1686 437 1610 c 0,116,117
 361 1536 361 1536 256 1536 c 1,118,-1
 256 1536 l 1,102,103
256 2048 m 1,119,120
 150 2048 150 2048 74 2122 c 0,121,122
 0 2198 0 2198 0 2304 c 0,123,124
 0 2409 0 2409 74 2485 c 0,125,126
 150 2560 150 2560 256 2560 c 0,127,128
 361 2560 361 2560 437 2485 c 0,129,130
 512 2409 512 2409 512 2304 c 0,131,132
 512 2198 512 2198 437 2122 c 0,133,134
 361 2048 361 2048 256 2048 c 1,135,-1
 256 2048 l 1,119,120
256 2560 m 1,136,137
 150 2560 150 2560 74 2634 c 0,138,139
 0 2710 0 2710 0 2816 c 0,140,141
 0 2921 0 2921 74 2997 c 0,142,143
 150 3072 150 3072 256 3072 c 0,144,145
 361 3072 361 3072 437 2997 c 0,146,147
 512 2921 512 2921 512 2816 c 0,148,149
 512 2710 512 2710 437 2634 c 0,150,151
 361 2560 361 2560 256 2560 c 1,152,-1
 256 2560 l 1,136,137
2304 2560 m 1,153,154
 2198 2560 2198 2560 2122 2634 c 0,155,156
 2048 2710 2048 2710 2048 2816 c 0,157,158
 2048 2921 2048 2921 2122 2997 c 0,159,160
 2198 3072 2198 3072 2304 3072 c 0,161,162
 2409 3072 2409 3072 2485 2997 c 0,163,164
 2560 2921 2560 2921 2560 2816 c 0,165,166
 2560 2710 2560 2710 2485 2634 c 0,167,168
 2409 2560 2409 2560 2304 2560 c 1,169,-1
 2304 2560 l 1,153,154
768 3072 m 1,170,171
 662 3072 662 3072 586 3146 c 0,172,173
 512 3222 512 3222 512 3328 c 0,174,175
 512 3433 512 3433 586 3509 c 0,176,177
 662 3584 662 3584 768 3584 c 0,178,179
 873 3584 873 3584 949 3509 c 0,180,181
 1024 3433 1024 3433 1024 3328 c 0,182,183
 1024 3222 1024 3222 949 3146 c 0,184,185
 873 3072 873 3072 768 3072 c 1,186,-1
 768 3072 l 1,170,171
1280 3072 m 1,187,188
 1174 3072 1174 3072 1098 3146 c 0,189,190
 1024 3222 1024 3222 1024 3328 c 0,191,192
 1024 3433 1024 3433 1098 3509 c 0,193,194
 1174 3584 1174 3584 1280 3584 c 0,195,196
 1385 3584 1385 3584 1461 3509 c 0,197,198
 1536 3433 1536 3433 1536 3328 c 0,199,200
 1536 3222 1536 3222 1461 3146 c 0,201,202
 1385 3072 1385 3072 1280 3072 c 1,203,-1
 1280 3072 l 1,187,188
1792 3072 m 1,204,205
 1686 3072 1686 3072 1610 3146 c 0,206,207
 1536 3222 1536 3222 1536 3328 c 0,208,209
 1536 3433 1536 3433 1610 3509 c 0,210,211
 1686 3584 1686 3584 1792 3584 c 0,212,213
 1897 3584 1897 3584 1973 3509 c 0,214,215
 2048 3433 2048 3433 2048 3328 c 0,216,217
 2048 3222 2048 3222 1973 3146 c 0,218,219
 1897 3072 1897 3072 1792 3072 c 1,220,-1
 1792 3072 l 1,204,205
EndSplineSet
Validated: 5
EndChar

StartChar: D
Encoding: 68 68 39
Width: 3072
GlyphClass: 1
Flags: W
LayerCount: 3
Fore
SplineSet
256 0 m 1,0,1
 150 0 150 0 74 74 c 0,2,3
 0 150 0 150 0 256 c 0,4,5
 0 361 0 361 74 437 c 0,6,7
 150 512 150 512 256 512 c 0,8,9
 361 512 361 512 437 437 c 0,10,11
 512 361 512 361 512 256 c 0,12,13
 512 150 512 150 437 74 c 0,14,15
 361 0 361 0 256 0 c 1,16,-1
 256 0 l 1,0,1
768 0 m 1,17,18
 662 0 662 0 586 74 c 0,19,20
 512 150 512 150 512 256 c 0,21,22
 512 361 512 361 586 437 c 0,23,24
 662 512 662 512 768 512 c 0,25,26
 873 512 873 512 949 437 c 0,27,28
 1024 361 1024 361 1024 256 c 0,29,30
 1024 150 1024 150 949 74 c 0,31,32
 873 0 873 0 768 0 c 1,33,-1
 768 0 l 1,17,18
1280 0 m 1,34,35
 1174 0 1174 0 1098 74 c 0,36,37
 1024 150 1024 150 1024 256 c 0,38,39
 1024 361 1024 361 1098 437 c 0,40,41
 1174 512 1174 512 1280 512 c 0,42,43
 1385 512 1385 512 1461 437 c 0,44,45
 1536 361 1536 361 1536 256 c 0,46,47
 1536 150 1536 150 1461 74 c 0,48,49
 1385 0 1385 0 1280 0 c 1,50,-1
 1280 0 l 1,34,35
1792 0 m 1,51,52
 1686 0 1686 0 1610 74 c 0,53,54
 1536 150 1536 150 1536 256 c 0,55,56
 1536 361 1536 361 1610 437 c 0,57,58
 1686 512 1686 512 1792 512 c 0,59,60
 1897 512 1897 512 1973 437 c 0,61,62
 2048 361 2048 361 2048 256 c 0,63,64
 2048 150 2048 150 1973 74 c 0,65,66
 1897 0 1897 0 1792 0 c 1,67,-1
 1792 0 l 1,51,52
256 512 m 1,68,69
 150 512 150 512 74 586 c 0,70,71
 0 662 0 662 0 768 c 0,72,73
 0 873 0 873 74 949 c 0,74,75
 150 1024 150 1024 256 1024 c 0,76,77
 361 1024 361 1024 437 949 c 0,78,79
 512 873 512 873 512 768 c 0,80,81
 512 662 512 662 437 586 c 0,82,83
 361 512 361 512 256 512 c 1,84,-1
 256 512 l 1,68,69
2304 512 m 1,85,86
 2198 512 2198 512 2122 586 c 0,87,88
 2048 662 2048 662 2048 768 c 0,89,90
 2048 873 2048 873 2122 949 c 0,91,92
 2198 1024 2198 1024 2304 1024 c 0,93,94
 2409 1024 2409 1024 2485 949 c 0,95,96
 2560 873 2560 873 2560 768 c 0,97,98
 2560 662 2560 662 2485 586 c 0,99,100
 2409 512 2409 512 2304 512 c 1,101,-1
 2304 512 l 1,85,86
256 1024 m 1,102,103
 150 1024 150 1024 74 1098 c 0,104,105
 0 1174 0 1174 0 1280 c 0,106,107
 0 1385 0 1385 74 1461 c 0,108,109
 150 1536 150 1536 256 1536 c 0,110,111
 361 1536 361 1536 437 1461 c 0,112,113
 512 1385 512 1385 512 1280 c 0,114,115
 512 1174 512 1174 437 1098 c 0,116,117
 361 1024 361 1024 256 1024 c 1,118,-1
 256 1024 l 1,102,103
2304 1024 m 1,119,120
 2198 1024 2198 1024 2122 1098 c 0,121,122
 2048 1174 2048 1174 2048 1280 c 0,123,124
 2048 1385 2048 1385 2122 1461 c 0,125,126
 2198 1536 2198 1536 2304 1536 c 0,127,128
 2409 1536 2409 1536 2485 1461 c 0,129,130
 2560 1385 2560 1385 2560 1280 c 0,131,132
 2560 1174 2560 1174 2485 1098 c 0,133,134
 2409 1024 2409 1024 2304 1024 c 1,135,-1
 2304 1024 l 1,119,120
256 1536 m 1,136,137
 150 1536 150 1536 74 1610 c 0,138,139
 0 1686 0 1686 0 1792 c 0,140,141
 0 1897 0 1897 74 1973 c 0,142,143
 150 2048 150 2048 256 2048 c 0,144,145
 361 2048 361 2048 437 1973 c 0,146,147
 512 1897 512 1897 512 1792 c 0,148,149
 512 1686 512 1686 437 1610 c 0,150,151
 361 1536 361 1536 256 1536 c 1,152,-1
 256 1536 l 1,136,137
2304 1536 m 1,153,154
 2198 1536 2198 1536 2122 1610 c 0,155,156
 2048 1686 2048 1686 2048 1792 c 0,157,158
 2048 1897 2048 1897 2122 1973 c 0,159,160
 2198 2048 2198 2048 2304 2048 c 0,161,162
 2409 2048 2409 2048 2485 1973 c 0,163,164
 2560 1897 2560 1897 2560 1792 c 0,165,166
 2560 1686 2560 1686 2485 1610 c 0,167,168
 2409 1536 2409 1536 2304 1536 c 1,169,-1
 2304 1536 l 1,153,154
256 2048 m 1,170,171
 150 2048 150 2048 74 2122 c 0,172,173
 0 2198 0 2198 0 2304 c 0,174,175
 0 2409 0 2409 74 2485 c 0,176,177
 150 2560 150 2560 256 2560 c 0,178,179
 361 2560 361 2560 437 2485 c 0,180,181
 512 2409 512 2409 512 2304 c 0,182,183
 512 2198 512 2198 437 2122 c 0,184,185
 361 2048 361 2048 256 2048 c 1,186,-1
 256 2048 l 1,170,171
2304 2048 m 1,187,188
 2198 2048 2198 2048 2122 2122 c 0,189,190
 2048 2198 2048 2198 2048 2304 c 0,191,192
 2048 2409 2048 2409 2122 2485 c 0,193,194
 2198 2560 2198 2560 2304 2560 c 0,195,196
 2409 2560 2409 2560 2485 2485 c 0,197,198
 2560 2409 2560 2409 2560 2304 c 0,199,200
 2560 2198 2560 2198 2485 2122 c 0,201,202
 2409 2048 2409 2048 2304 2048 c 1,203,-1
 2304 2048 l 1,187,188
256 2560 m 1,204,205
 150 2560 150 2560 74 2634 c 0,206,207
 0 2710 0 2710 0 2816 c 0,208,209
 0 2921 0 2921 74 2997 c 0,210,211
 150 3072 150 3072 256 3072 c 0,212,213
 361 3072 361 3072 437 2997 c 0,214,215
 512 2921 512 2921 512 2816 c 0,216,217
 512 2710 512 2710 437 2634 c 0,218,219
 361 2560 361 2560 256 2560 c 1,220,-1
 256 2560 l 1,204,205
2304 2560 m 1,221,222
 2198 2560 2198 2560 2122 2634 c 0,223,224
 2048 2710 2048 2710 2048 2816 c 0,225,226
 2048 2921 2048 2921 2122 2997 c 0,227,228
 2198 3072 2198 3072 2304 3072 c 0,229,230
 2409 3072 2409 3072 2485 2997 c 0,231,232
 2560 2921 2560 2921 2560 2816 c 0,233,234
 2560 2710 2560 2710 2485 2634 c 0,235,236
 2409 2560 2409 2560 2304 2560 c 1,237,-1
 2304 2560 l 1,221,222
256 3072 m 1,238,239
 150 3072 150 3072 74 3146 c 0,240,241
 0 3222 0 3222 0 3328 c 0,242,243
 0 3433 0 3433 74 3509 c 0,244,245
 150 3584 150 3584 256 3584 c 0,246,247
 361 3584 361 3584 437 3509 c 0,248,249
 512 3433 512 3433 512 3328 c 0,250,251
 512 3222 512 3222 437 3146 c 0,252,253
 361 3072 361 3072 256 3072 c 1,254,-1
 256 3072 l 1,238,239
768 3072 m 1,255,256
 662 3072 662 3072 586 3146 c 0,257,258
 512 3222 512 3222 512 3328 c 0,259,260
 512 3433 512 3433 586 3509 c 0,261,262
 662 3584 662 3584 768 3584 c 0,263,264
 873 3584 873 3584 949 3509 c 0,265,266
 1024 3433 1024 3433 1024 3328 c 0,267,268
 1024 3222 1024 3222 949 3146 c 0,269,270
 873 3072 873 3072 768 3072 c 1,271,-1
 768 3072 l 1,255,256
1280 3072 m 1,272,273
 1174 3072 1174 3072 1098 3146 c 0,274,275
 1024 3222 1024 3222 1024 3328 c 0,276,277
 1024 3433 1024 3433 1098 3509 c 0,278,279
 1174 3584 1174 3584 1280 3584 c 0,280,281
 1385 3584 1385 3584 1461 3509 c 0,282,283
 1536 3433 1536 3433 1536 3328 c 0,284,285
 1536 3222 1536 3222 1461 3146 c 0,286,287
 1385 3072 1385 3072 1280 3072 c 1,288,-1
 1280 3072 l 1,272,273
1792 3072 m 1,289,290
 1686 3072 1686 3072 1610 3146 c 0,291,292
 1536 3222 1536 3222 1536 3328 c 0,293,294
 1536 3433 1536 3433 1610 3509 c 0,295,296
 1686 3584 1686 3584 1792 3584 c 0,297,298
 1897 3584 1897 3584 1973 3509 c 0,299,300
 2048 3433 2048 3433 2048 3328 c 0,301,302
 2048 3222 2048 3222 1973 3146 c 0,303,304
 1897 3072 1897 3072 1792 3072 c 1,305,-1
 1792 3072 l 1,289,290
EndSplineSet
Validated: 5
EndChar

StartChar: E
Encoding: 69 69 40
Width: 3072
GlyphClass: 1
Flags: W
LayerCount: 3
Fore
SplineSet
256 0 m 1,0,1
 150 0 150 0 74 74 c 0,2,3
 0 150 0 150 0 256 c 0,4,5
 0 361 0 361 74 437 c 0,6,7
 150 512 150 512 256 512 c 0,8,9
 361 512 361 512 437 437 c 0,10,11
 512 361 512 361 512 256 c 0,12,13
 512 150 512 150 437 74 c 0,14,15
 361 0 361 0 256 0 c 1,16,-1
 256 0 l 1,0,1
768 0 m 1,17,18
 662 0 662 0 586 74 c 0,19,20
 512 150 512 150 512 256 c 0,21,22
 512 361 512 361 586 437 c 0,23,24
 662 512 662 512 768 512 c 0,25,26
 873 512 873 512 949 437 c 0,27,28
 1024 361 1024 361 1024 256 c 0,29,30
 1024 150 1024 150 949 74 c 0,31,32
 873 0 873 0 768 0 c 1,33,-1
 768 0 l 1,17,18
1280 0 m 1,34,35
 1174 0 1174 0 1098 74 c 0,36,37
 1024 150 1024 150 1024 256 c 0,38,39
 1024 361 1024 361 1098 437 c 0,40,41
 1174 512 1174 512 1280 512 c 0,42,43
 1385 512 1385 512 1461 437 c 0,44,45
 1536 361 1536 361 1536 256 c 0,46,47
 1536 150 1536 150 1461 74 c 0,48,49
 1385 0 1385 0 1280 0 c 1,50,-1
 1280 0 l 1,34,35
1792 0 m 1,51,52
 1686 0 1686 0 1610 74 c 0,53,54
 1536 150 1536 150 1536 256 c 0,55,56
 1536 361 1536 361 1610 437 c 0,57,58
 1686 512 1686 512 1792 512 c 0,59,60
 1897 512 1897 512 1973 437 c 0,61,62
 2048 361 2048 361 2048 256 c 0,63,64
 2048 150 2048 150 1973 74 c 0,65,66
 1897 0 1897 0 1792 0 c 1,67,-1
 1792 0 l 1,51,52
2304 0 m 1,68,69
 2198 0 2198 0 2122 74 c 0,70,71
 2048 150 2048 150 2048 256 c 0,72,73
 2048 361 2048 361 2122 437 c 0,74,75
 2198 512 2198 512 2304 512 c 0,76,77
 2409 512 2409 512 2485 437 c 0,78,79
 2560 361 2560 361 2560 256 c 0,80,81
 2560 150 2560 150 2485 74 c 0,82,83
 2409 0 2409 0 2304 0 c 1,84,-1
 2304 0 l 1,68,69
256 512 m 1,85,86
 150 512 150 512 74 586 c 0,87,88
 0 662 0 662 0 768 c 0,89,90
 0 873 0 873 74 949 c 0,91,92
 150 1024 150 1024 256 1024 c 0,93,94
 361 1024 361 1024 437 949 c 0,95,96
 512 873 512 873 512 768 c 0,97,98
 512 662 512 662 437 586 c 0,99,100
 361 512 361 512 256 512 c 1,101,-1
 256 512 l 1,85,86
256 1024 m 1,102,103
 150 1024 150 1024 74 1098 c 0,104,105
 0 1174 0 1174 0 1280 c 0,106,107
 0 1385 0 1385 74 1461 c 0,108,109
 150 1536 150 1536 256 1536 c 0,110,111
 361 1536 361 1536 437 1461 c 0,112,113
 512 1385 512 1385 512 1280 c 0,114,115
 512 1174 512 1174 437 1098 c 0,116,117
 361 1024 361 1024 256 1024 c 1,118,-1
 256 1024 l 1,102,103
256 1536 m 1,119,120
 150 1536 150 1536 74 1610 c 0,121,122
 0 1686 0 1686 0 1792 c 0,123,124
 0 1897 0 1897 74 1973 c 0,125,126
 150 2048 150 2048 256 2048 c 0,127,128
 361 2048 361 2048 437 1973 c 0,129,130
 512 1897 512 1897 512 1792 c 0,131,132
 512 1686 512 1686 437 1610 c 0,133,134
 361 1536 361 1536 256 1536 c 1,135,-1
 256 1536 l 1,119,120
256 2048 m 1,136,137
 150 2048 150 2048 74 2122 c 0,138,139
 0 2198 0 2198 0 2304 c 0,140,141
 0 2409 0 2409 74 2485 c 0,142,143
 150 2560 150 2560 256 2560 c 0,144,145
 361 2560 361 2560 437 2485 c 0,146,147
 512 2409 512 2409 512 2304 c 0,148,149
 512 2198 512 2198 437 2122 c 0,150,151
 361 2048 361 2048 256 2048 c 1,152,-1
 256 2048 l 1,136,137
768 2048 m 1,153,154
 662 2048 662 2048 586 2122 c 0,155,156
 512 2198 512 2198 512 2304 c 0,157,158
 512 2409 512 2409 586 2485 c 0,159,160
 662 2560 662 2560 768 2560 c 0,161,162
 873 2560 873 2560 949 2485 c 0,163,164
 1024 2409 1024 2409 1024 2304 c 0,165,166
 1024 2198 1024 2198 949 2122 c 0,167,168
 873 2048 873 2048 768 2048 c 1,169,-1
 768 2048 l 1,153,154
1280 2048 m 1,170,171
 1174 2048 1174 2048 1098 2122 c 0,172,173
 1024 2198 1024 2198 1024 2304 c 0,174,175
 1024 2409 1024 2409 1098 2485 c 0,176,177
 1174 2560 1174 2560 1280 2560 c 0,178,179
 1385 2560 1385 2560 1461 2485 c 0,180,181
 1536 2409 1536 2409 1536 2304 c 0,182,183
 1536 2198 1536 2198 1461 2122 c 0,184,185
 1385 2048 1385 2048 1280 2048 c 1,186,-1
 1280 2048 l 1,170,171
256 2560 m 1,187,188
 150 2560 150 2560 74 2634 c 0,189,190
 0 2710 0 2710 0 2816 c 0,191,192
 0 2921 0 2921 74 2997 c 0,193,194
 150 3072 150 3072 256 3072 c 0,195,196
 361 3072 361 3072 437 2997 c 0,197,198
 512 2921 512 2921 512 2816 c 0,199,200
 512 2710 512 2710 437 2634 c 0,201,202
 361 2560 361 2560 256 2560 c 1,203,-1
 256 2560 l 1,187,188
256 3072 m 1,204,205
 150 3072 150 3072 74 3146 c 0,206,207
 0 3222 0 3222 0 3328 c 0,208,209
 0 3433 0 3433 74 3509 c 0,210,211
 150 3584 150 3584 256 3584 c 0,212,213
 361 3584 361 3584 437 3509 c 0,214,215
 512 3433 512 3433 512 3328 c 0,216,217
 512 3222 512 3222 437 3146 c 0,218,219
 361 3072 361 3072 256 3072 c 1,220,-1
 256 3072 l 1,204,205
768 3072 m 1,221,222
 662 3072 662 3072 586 3146 c 0,223,224
 512 3222 512 3222 512 3328 c 0,225,226
 512 3433 512 3433 586 3509 c 0,227,228
 662 3584 662 3584 768 3584 c 0,229,230
 873 3584 873 3584 949 3509 c 0,231,232
 1024 3433 1024 3433 1024 3328 c 0,233,234
 1024 3222 1024 3222 949 3146 c 0,235,236
 873 3072 873 3072 768 3072 c 1,237,-1
 768 3072 l 1,221,222
1280 3072 m 1,238,239
 1174 3072 1174 3072 1098 3146 c 0,240,241
 1024 3222 1024 3222 1024 3328 c 0,242,243
 1024 3433 1024 3433 1098 3509 c 0,244,245
 1174 3584 1174 3584 1280 3584 c 0,246,247
 1385 3584 1385 3584 1461 3509 c 0,248,249
 1536 3433 1536 3433 1536 3328 c 0,250,251
 1536 3222 1536 3222 1461 3146 c 0,252,253
 1385 3072 1385 3072 1280 3072 c 1,254,-1
 1280 3072 l 1,238,239
1792 3072 m 1,255,256
 1686 3072 1686 3072 1610 3146 c 0,257,258
 1536 3222 1536 3222 1536 3328 c 0,259,260
 1536 3433 1536 3433 1610 3509 c 0,261,262
 1686 3584 1686 3584 1792 3584 c 0,263,264
 1897 3584 1897 3584 1973 3509 c 0,265,266
 2048 3433 2048 3433 2048 3328 c 0,267,268
 2048 3222 2048 3222 1973 3146 c 0,269,270
 1897 3072 1897 3072 1792 3072 c 1,271,-1
 1792 3072 l 1,255,256
2304 3072 m 1,272,273
 2198 3072 2198 3072 2122 3146 c 0,274,275
 2048 3222 2048 3222 2048 3328 c 0,276,277
 2048 3433 2048 3433 2122 3509 c 0,278,279
 2198 3584 2198 3584 2304 3584 c 0,280,281
 2409 3584 2409 3584 2485 3509 c 0,282,283
 2560 3433 2560 3433 2560 3328 c 0,284,285
 2560 3222 2560 3222 2485 3146 c 0,286,287
 2409 3072 2409 3072 2304 3072 c 1,288,-1
 2304 3072 l 1,272,273
EndSplineSet
Validated: 5
EndChar

StartChar: F
Encoding: 70 70 41
Width: 3072
GlyphClass: 1
Flags: W
LayerCount: 3
Fore
SplineSet
256 0 m 1,0,1
 150 0 150 0 74 74 c 0,2,3
 0 150 0 150 0 256 c 0,4,5
 0 361 0 361 74 437 c 0,6,7
 150 512 150 512 256 512 c 0,8,9
 361 512 361 512 437 437 c 0,10,11
 512 361 512 361 512 256 c 0,12,13
 512 150 512 150 437 74 c 0,14,15
 361 0 361 0 256 0 c 1,16,-1
 256 0 l 1,0,1
256 512 m 1,17,18
 150 512 150 512 74 586 c 0,19,20
 0 662 0 662 0 768 c 0,21,22
 0 873 0 873 74 949 c 0,23,24
 150 1024 150 1024 256 1024 c 0,25,26
 361 1024 361 1024 437 949 c 0,27,28
 512 873 512 873 512 768 c 0,29,30
 512 662 512 662 437 586 c 0,31,32
 361 512 361 512 256 512 c 1,33,-1
 256 512 l 1,17,18
256 1024 m 1,34,35
 150 1024 150 1024 74 1098 c 0,36,37
 0 1174 0 1174 0 1280 c 0,38,39
 0 1385 0 1385 74 1461 c 0,40,41
 150 1536 150 1536 256 1536 c 0,42,43
 361 1536 361 1536 437 1461 c 0,44,45
 512 1385 512 1385 512 1280 c 0,46,47
 512 1174 512 1174 437 1098 c 0,48,49
 361 1024 361 1024 256 1024 c 1,50,-1
 256 1024 l 1,34,35
256 1536 m 1,51,52
 150 1536 150 1536 74 1610 c 0,53,54
 0 1686 0 1686 0 1792 c 0,55,56
 0 1897 0 1897 74 1973 c 0,57,58
 150 2048 150 2048 256 2048 c 0,59,60
 361 2048 361 2048 437 1973 c 0,61,62
 512 1897 512 1897 512 1792 c 0,63,64
 512 1686 512 1686 437 1610 c 0,65,66
 361 1536 361 1536 256 1536 c 1,67,-1
 256 1536 l 1,51,52
256 2048 m 1,68,69
 150 2048 150 2048 74 2122 c 0,70,71
 0 2198 0 2198 0 2304 c 0,72,73
 0 2409 0 2409 74 2485 c 0,74,75
 150 2560 150 2560 256 2560 c 0,76,77
 361 2560 361 2560 437 2485 c 0,78,79
 512 2409 512 2409 512 2304 c 0,80,81
 512 2198 512 2198 437 2122 c 0,82,83
 361 2048 361 2048 256 2048 c 1,84,-1
 256 2048 l 1,68,69
768 2048 m 1,85,86
 662 2048 662 2048 586 2122 c 0,87,88
 512 2198 512 2198 512 2304 c 0,89,90
 512 2409 512 2409 586 2485 c 0,91,92
 662 2560 662 2560 768 2560 c 0,93,94
 873 2560 873 2560 949 2485 c 0,95,96
 1024 2409 1024 2409 1024 2304 c 0,97,98
 1024 2198 1024 2198 949 2122 c 0,99,100
 873 2048 873 2048 768 2048 c 1,101,-1
 768 2048 l 1,85,86
1280 2048 m 1,102,103
 1174 2048 1174 2048 1098 2122 c 0,104,105
 1024 2198 1024 2198 1024 2304 c 0,106,107
 1024 2409 1024 2409 1098 2485 c 0,108,109
 1174 2560 1174 2560 1280 2560 c 0,110,111
 1385 2560 1385 2560 1461 2485 c 0,112,113
 1536 2409 1536 2409 1536 2304 c 0,114,115
 1536 2198 1536 2198 1461 2122 c 0,116,117
 1385 2048 1385 2048 1280 2048 c 1,118,-1
 1280 2048 l 1,102,103
256 2560 m 1,119,120
 150 2560 150 2560 74 2634 c 0,121,122
 0 2710 0 2710 0 2816 c 0,123,124
 0 2921 0 2921 74 2997 c 0,125,126
 150 3072 150 3072 256 3072 c 0,127,128
 361 3072 361 3072 437 2997 c 0,129,130
 512 2921 512 2921 512 2816 c 0,131,132
 512 2710 512 2710 437 2634 c 0,133,134
 361 2560 361 2560 256 2560 c 1,135,-1
 256 2560 l 1,119,120
256 3072 m 1,136,137
 150 3072 150 3072 74 3146 c 0,138,139
 0 3222 0 3222 0 3328 c 0,140,141
 0 3433 0 3433 74 3509 c 0,142,143
 150 3584 150 3584 256 3584 c 0,144,145
 361 3584 361 3584 437 3509 c 0,146,147
 512 3433 512 3433 512 3328 c 0,148,149
 512 3222 512 3222 437 3146 c 0,150,151
 361 3072 361 3072 256 3072 c 1,152,-1
 256 3072 l 1,136,137
768 3072 m 1,153,154
 662 3072 662 3072 586 3146 c 0,155,156
 512 3222 512 3222 512 3328 c 0,157,158
 512 3433 512 3433 586 3509 c 0,159,160
 662 3584 662 3584 768 3584 c 0,161,162
 873 3584 873 3584 949 3509 c 0,163,164
 1024 3433 1024 3433 1024 3328 c 0,165,166
 1024 3222 1024 3222 949 3146 c 0,167,168
 873 3072 873 3072 768 3072 c 1,169,-1
 768 3072 l 1,153,154
1280 3072 m 1,170,171
 1174 3072 1174 3072 1098 3146 c 0,172,173
 1024 3222 1024 3222 1024 3328 c 0,174,175
 1024 3433 1024 3433 1098 3509 c 0,176,177
 1174 3584 1174 3584 1280 3584 c 0,178,179
 1385 3584 1385 3584 1461 3509 c 0,180,181
 1536 3433 1536 3433 1536 3328 c 0,182,183
 1536 3222 1536 3222 1461 3146 c 0,184,185
 1385 3072 1385 3072 1280 3072 c 1,186,-1
 1280 3072 l 1,170,171
1792 3072 m 1,187,188
 1686 3072 1686 3072 1610 3146 c 0,189,190
 1536 3222 1536 3222 1536 3328 c 0,191,192
 1536 3433 1536 3433 1610 3509 c 0,193,194
 1686 3584 1686 3584 1792 3584 c 0,195,196
 1897 3584 1897 3584 1973 3509 c 0,197,198
 2048 3433 2048 3433 2048 3328 c 0,199,200
 2048 3222 2048 3222 1973 3146 c 0,201,202
 1897 3072 1897 3072 1792 3072 c 1,203,-1
 1792 3072 l 1,187,188
2304 3072 m 1,204,205
 2198 3072 2198 3072 2122 3146 c 0,206,207
 2048 3222 2048 3222 2048 3328 c 0,208,209
 2048 3433 2048 3433 2122 3509 c 0,210,211
 2198 3584 2198 3584 2304 3584 c 0,212,213
 2409 3584 2409 3584 2485 3509 c 0,214,215
 2560 3433 2560 3433 2560 3328 c 0,216,217
 2560 3222 2560 3222 2485 3146 c 0,218,219
 2409 3072 2409 3072 2304 3072 c 1,220,-1
 2304 3072 l 1,204,205
EndSplineSet
Validated: 5
EndChar

StartChar: G
Encoding: 71 71 42
Width: 3072
GlyphClass: 1
Flags: W
LayerCount: 3
Fore
SplineSet
768 0 m 1,0,1
 662 0 662 0 586 74 c 0,2,3
 512 150 512 150 512 256 c 0,4,5
 512 361 512 361 586 437 c 0,6,7
 662 512 662 512 768 512 c 0,8,9
 873 512 873 512 949 437 c 0,10,11
 1024 361 1024 361 1024 256 c 0,12,13
 1024 150 1024 150 949 74 c 0,14,15
 873 0 873 0 768 0 c 1,16,-1
 768 0 l 1,0,1
1280 0 m 1,17,18
 1174 0 1174 0 1098 74 c 0,19,20
 1024 150 1024 150 1024 256 c 0,21,22
 1024 361 1024 361 1098 437 c 0,23,24
 1174 512 1174 512 1280 512 c 0,25,26
 1385 512 1385 512 1461 437 c 0,27,28
 1536 361 1536 361 1536 256 c 0,29,30
 1536 150 1536 150 1461 74 c 0,31,32
 1385 0 1385 0 1280 0 c 1,33,-1
 1280 0 l 1,17,18
1792 0 m 1,34,35
 1686 0 1686 0 1610 74 c 0,36,37
 1536 150 1536 150 1536 256 c 0,38,39
 1536 361 1536 361 1610 437 c 0,40,41
 1686 512 1686 512 1792 512 c 0,42,43
 1897 512 1897 512 1973 437 c 0,44,45
 2048 361 2048 361 2048 256 c 0,46,47
 2048 150 2048 150 1973 74 c 0,48,49
 1897 0 1897 0 1792 0 c 1,50,-1
 1792 0 l 1,34,35
256 512 m 1,51,52
 150 512 150 512 74 586 c 0,53,54
 0 662 0 662 0 768 c 0,55,56
 0 873 0 873 74 949 c 0,57,58
 150 1024 150 1024 256 1024 c 0,59,60
 361 1024 361 1024 437 949 c 0,61,62
 512 873 512 873 512 768 c 0,63,64
 512 662 512 662 437 586 c 0,65,66
 361 512 361 512 256 512 c 1,67,-1
 256 512 l 1,51,52
2304 512 m 1,68,69
 2198 512 2198 512 2122 586 c 0,70,71
 2048 662 2048 662 2048 768 c 0,72,73
 2048 873 2048 873 2122 949 c 0,74,75
 2198 1024 2198 1024 2304 1024 c 0,76,77
 2409 1024 2409 1024 2485 949 c 0,78,79
 2560 873 2560 873 2560 768 c 0,80,81
 2560 662 2560 662 2485 586 c 0,82,83
 2409 512 2409 512 2304 512 c 1,84,-1
 2304 512 l 1,68,69
256 1024 m 1,85,86
 150 1024 150 1024 74 1098 c 0,87,88
 0 1174 0 1174 0 1280 c 0,89,90
 0 1385 0 1385 74 1461 c 0,91,92
 150 1536 150 1536 256 1536 c 0,93,94
 361 1536 361 1536 437 1461 c 0,95,96
 512 1385 512 1385 512 1280 c 0,97,98
 512 1174 512 1174 437 1098 c 0,99,100
 361 1024 361 1024 256 1024 c 1,101,-1
 256 1024 l 1,85,86
2304 1024 m 1,102,103
 2198 1024 2198 1024 2122 1098 c 0,104,105
 2048 1174 2048 1174 2048 1280 c 0,106,107
 2048 1385 2048 1385 2122 1461 c 0,108,109
 2198 1536 2198 1536 2304 1536 c 0,110,111
 2409 1536 2409 1536 2485 1461 c 0,112,113
 2560 1385 2560 1385 2560 1280 c 0,114,115
 2560 1174 2560 1174 2485 1098 c 0,116,117
 2409 1024 2409 1024 2304 1024 c 1,118,-1
 2304 1024 l 1,102,103
256 1536 m 1,119,120
 150 1536 150 1536 74 1610 c 0,121,122
 0 1686 0 1686 0 1792 c 0,123,124
 0 1897 0 1897 74 1973 c 0,125,126
 150 2048 150 2048 256 2048 c 0,127,128
 361 2048 361 2048 437 1973 c 0,129,130
 512 1897 512 1897 512 1792 c 0,131,132
 512 1686 512 1686 437 1610 c 0,133,134
 361 1536 361 1536 256 1536 c 1,135,-1
 256 1536 l 1,119,120
2304 1536 m 1,136,137
 2198 1536 2198 1536 2122 1610 c 0,138,139
 2048 1686 2048 1686 2048 1792 c 0,140,141
 2048 1897 2048 1897 2122 1973 c 0,142,143
 2198 2048 2198 2048 2304 2048 c 0,144,145
 2409 2048 2409 2048 2485 1973 c 0,146,147
 2560 1897 2560 1897 2560 1792 c 0,148,149
 2560 1686 2560 1686 2485 1610 c 0,150,151
 2409 1536 2409 1536 2304 1536 c 1,152,-1
 2304 1536 l 1,136,137
256 2048 m 1,153,154
 150 2048 150 2048 74 2122 c 0,155,156
 0 2198 0 2198 0 2304 c 0,157,158
 0 2409 0 2409 74 2485 c 0,159,160
 150 2560 150 2560 256 2560 c 0,161,162
 361 2560 361 2560 437 2485 c 0,163,164
 512 2409 512 2409 512 2304 c 0,165,166
 512 2198 512 2198 437 2122 c 0,167,168
 361 2048 361 2048 256 2048 c 1,169,-1
 256 2048 l 1,153,154
1792 2048 m 1,170,171
 1686 2048 1686 2048 1610 2122 c 0,172,173
 1536 2198 1536 2198 1536 2304 c 0,174,175
 1536 2409 1536 2409 1610 2485 c 0,176,177
 1686 2560 1686 2560 1792 2560 c 0,178,179
 1897 2560 1897 2560 1973 2485 c 0,180,181
 2048 2409 2048 2409 2048 2304 c 0,182,183
 2048 2198 2048 2198 1973 2122 c 0,184,185
 1897 2048 1897 2048 1792 2048 c 1,186,-1
 1792 2048 l 1,170,171
2304 2048 m 1,187,188
 2198 2048 2198 2048 2122 2122 c 0,189,190
 2048 2198 2048 2198 2048 2304 c 0,191,192
 2048 2409 2048 2409 2122 2485 c 0,193,194
 2198 2560 2198 2560 2304 2560 c 0,195,196
 2409 2560 2409 2560 2485 2485 c 0,197,198
 2560 2409 2560 2409 2560 2304 c 0,199,200
 2560 2198 2560 2198 2485 2122 c 0,201,202
 2409 2048 2409 2048 2304 2048 c 1,203,-1
 2304 2048 l 1,187,188
256 2560 m 1,204,205
 150 2560 150 2560 74 2634 c 0,206,207
 0 2710 0 2710 0 2816 c 0,208,209
 0 2921 0 2921 74 2997 c 0,210,211
 150 3072 150 3072 256 3072 c 0,212,213
 361 3072 361 3072 437 2997 c 0,214,215
 512 2921 512 2921 512 2816 c 0,216,217
 512 2710 512 2710 437 2634 c 0,218,219
 361 2560 361 2560 256 2560 c 1,220,-1
 256 2560 l 1,204,205
768 3072 m 1,221,222
 662 3072 662 3072 586 3146 c 0,223,224
 512 3222 512 3222 512 3328 c 0,225,226
 512 3433 512 3433 586 3509 c 0,227,228
 662 3584 662 3584 768 3584 c 0,229,230
 873 3584 873 3584 949 3509 c 0,231,232
 1024 3433 1024 3433 1024 3328 c 0,233,234
 1024 3222 1024 3222 949 3146 c 0,235,236
 873 3072 873 3072 768 3072 c 1,237,-1
 768 3072 l 1,221,222
1280 3072 m 1,238,239
 1174 3072 1174 3072 1098 3146 c 0,240,241
 1024 3222 1024 3222 1024 3328 c 0,242,243
 1024 3433 1024 3433 1098 3509 c 0,244,245
 1174 3584 1174 3584 1280 3584 c 0,246,247
 1385 3584 1385 3584 1461 3509 c 0,248,249
 1536 3433 1536 3433 1536 3328 c 0,250,251
 1536 3222 1536 3222 1461 3146 c 0,252,253
 1385 3072 1385 3072 1280 3072 c 1,254,-1
 1280 3072 l 1,238,239
1792 3072 m 1,255,256
 1686 3072 1686 3072 1610 3146 c 0,257,258
 1536 3222 1536 3222 1536 3328 c 0,259,260
 1536 3433 1536 3433 1610 3509 c 0,261,262
 1686 3584 1686 3584 1792 3584 c 0,263,264
 1897 3584 1897 3584 1973 3509 c 0,265,266
 2048 3433 2048 3433 2048 3328 c 0,267,268
 2048 3222 2048 3222 1973 3146 c 0,269,270
 1897 3072 1897 3072 1792 3072 c 1,271,-1
 1792 3072 l 1,255,256
2304 3072 m 1,272,273
 2198 3072 2198 3072 2122 3146 c 0,274,275
 2048 3222 2048 3222 2048 3328 c 0,276,277
 2048 3433 2048 3433 2122 3509 c 0,278,279
 2198 3584 2198 3584 2304 3584 c 0,280,281
 2409 3584 2409 3584 2485 3509 c 0,282,283
 2560 3433 2560 3433 2560 3328 c 0,284,285
 2560 3222 2560 3222 2485 3146 c 0,286,287
 2409 3072 2409 3072 2304 3072 c 1,288,-1
 2304 3072 l 1,272,273
EndSplineSet
Validated: 5
EndChar

StartChar: H
Encoding: 72 72 43
Width: 3072
GlyphClass: 1
Flags: W
LayerCount: 3
Fore
SplineSet
256 0 m 1,0,1
 150 0 150 0 74 74 c 0,2,3
 0 150 0 150 0 256 c 0,4,5
 0 361 0 361 74 437 c 0,6,7
 150 512 150 512 256 512 c 0,8,9
 361 512 361 512 437 437 c 0,10,11
 512 361 512 361 512 256 c 0,12,13
 512 150 512 150 437 74 c 0,14,15
 361 0 361 0 256 0 c 1,16,-1
 256 0 l 1,0,1
2304 0 m 1,17,18
 2198 0 2198 0 2122 74 c 0,19,20
 2048 150 2048 150 2048 256 c 0,21,22
 2048 361 2048 361 2122 437 c 0,23,24
 2198 512 2198 512 2304 512 c 0,25,26
 2409 512 2409 512 2485 437 c 0,27,28
 2560 361 2560 361 2560 256 c 0,29,30
 2560 150 2560 150 2485 74 c 0,31,32
 2409 0 2409 0 2304 0 c 1,33,-1
 2304 0 l 1,17,18
256 512 m 1,34,35
 150 512 150 512 74 586 c 0,36,37
 0 662 0 662 0 768 c 0,38,39
 0 873 0 873 74 949 c 0,40,41
 150 1024 150 1024 256 1024 c 0,42,43
 361 1024 361 1024 437 949 c 0,44,45
 512 873 512 873 512 768 c 0,46,47
 512 662 512 662 437 586 c 0,48,49
 361 512 361 512 256 512 c 1,50,-1
 256 512 l 1,34,35
2304 512 m 1,51,52
 2198 512 2198 512 2122 586 c 0,53,54
 2048 662 2048 662 2048 768 c 0,55,56
 2048 873 2048 873 2122 949 c 0,57,58
 2198 1024 2198 1024 2304 1024 c 0,59,60
 2409 1024 2409 1024 2485 949 c 0,61,62
 2560 873 2560 873 2560 768 c 0,63,64
 2560 662 2560 662 2485 586 c 0,65,66
 2409 512 2409 512 2304 512 c 1,67,-1
 2304 512 l 1,51,52
256 1024 m 1,68,69
 150 1024 150 1024 74 1098 c 0,70,71
 0 1174 0 1174 0 1280 c 0,72,73
 0 1385 0 1385 74 1461 c 0,74,75
 150 1536 150 1536 256 1536 c 0,76,77
 361 1536 361 1536 437 1461 c 0,78,79
 512 1385 512 1385 512 1280 c 0,80,81
 512 1174 512 1174 437 1098 c 0,82,83
 361 1024 361 1024 256 1024 c 1,84,-1
 256 1024 l 1,68,69
2304 1024 m 1,85,86
 2198 1024 2198 1024 2122 1098 c 0,87,88
 2048 1174 2048 1174 2048 1280 c 0,89,90
 2048 1385 2048 1385 2122 1461 c 0,91,92
 2198 1536 2198 1536 2304 1536 c 0,93,94
 2409 1536 2409 1536 2485 1461 c 0,95,96
 2560 1385 2560 1385 2560 1280 c 0,97,98
 2560 1174 2560 1174 2485 1098 c 0,99,100
 2409 1024 2409 1024 2304 1024 c 1,101,-1
 2304 1024 l 1,85,86
256 1536 m 1,102,103
 150 1536 150 1536 74 1610 c 0,104,105
 0 1686 0 1686 0 1792 c 0,106,107
 0 1897 0 1897 74 1973 c 0,108,109
 150 2048 150 2048 256 2048 c 0,110,111
 361 2048 361 2048 437 1973 c 0,112,113
 512 1897 512 1897 512 1792 c 0,114,115
 512 1686 512 1686 437 1610 c 0,116,117
 361 1536 361 1536 256 1536 c 1,118,-1
 256 1536 l 1,102,103
2304 1536 m 1,119,120
 2198 1536 2198 1536 2122 1610 c 0,121,122
 2048 1686 2048 1686 2048 1792 c 0,123,124
 2048 1897 2048 1897 2122 1973 c 0,125,126
 2198 2048 2198 2048 2304 2048 c 0,127,128
 2409 2048 2409 2048 2485 1973 c 0,129,130
 2560 1897 2560 1897 2560 1792 c 0,131,132
 2560 1686 2560 1686 2485 1610 c 0,133,134
 2409 1536 2409 1536 2304 1536 c 1,135,-1
 2304 1536 l 1,119,120
256 2048 m 1,136,137
 150 2048 150 2048 74 2122 c 0,138,139
 0 2198 0 2198 0 2304 c 0,140,141
 0 2409 0 2409 74 2485 c 0,142,143
 150 2560 150 2560 256 2560 c 0,144,145
 361 2560 361 2560 437 2485 c 0,146,147
 512 2409 512 2409 512 2304 c 0,148,149
 512 2198 512 2198 437 2122 c 0,150,151
 361 2048 361 2048 256 2048 c 1,152,-1
 256 2048 l 1,136,137
768 2048 m 1,153,154
 662 2048 662 2048 586 2122 c 0,155,156
 512 2198 512 2198 512 2304 c 0,157,158
 512 2409 512 2409 586 2485 c 0,159,160
 662 2560 662 2560 768 2560 c 0,161,162
 873 2560 873 2560 949 2485 c 0,163,164
 1024 2409 1024 2409 1024 2304 c 0,165,166
 1024 2198 1024 2198 949 2122 c 0,167,168
 873 2048 873 2048 768 2048 c 1,169,-1
 768 2048 l 1,153,154
1280 2048 m 1,170,171
 1174 2048 1174 2048 1098 2122 c 0,172,173
 1024 2198 1024 2198 1024 2304 c 0,174,175
 1024 2409 1024 2409 1098 2485 c 0,176,177
 1174 2560 1174 2560 1280 2560 c 0,178,179
 1385 2560 1385 2560 1461 2485 c 0,180,181
 1536 2409 1536 2409 1536 2304 c 0,182,183
 1536 2198 1536 2198 1461 2122 c 0,184,185
 1385 2048 1385 2048 1280 2048 c 1,186,-1
 1280 2048 l 1,170,171
1792 2048 m 1,187,188
 1686 2048 1686 2048 1610 2122 c 0,189,190
 1536 2198 1536 2198 1536 2304 c 0,191,192
 1536 2409 1536 2409 1610 2485 c 0,193,194
 1686 2560 1686 2560 1792 2560 c 0,195,196
 1897 2560 1897 2560 1973 2485 c 0,197,198
 2048 2409 2048 2409 2048 2304 c 0,199,200
 2048 2198 2048 2198 1973 2122 c 0,201,202
 1897 2048 1897 2048 1792 2048 c 1,203,-1
 1792 2048 l 1,187,188
2304 2048 m 1,204,205
 2198 2048 2198 2048 2122 2122 c 0,206,207
 2048 2198 2048 2198 2048 2304 c 0,208,209
 2048 2409 2048 2409 2122 2485 c 0,210,211
 2198 2560 2198 2560 2304 2560 c 0,212,213
 2409 2560 2409 2560 2485 2485 c 0,214,215
 2560 2409 2560 2409 2560 2304 c 0,216,217
 2560 2198 2560 2198 2485 2122 c 0,218,219
 2409 2048 2409 2048 2304 2048 c 1,220,-1
 2304 2048 l 1,204,205
256 2560 m 1,221,222
 150 2560 150 2560 74 2634 c 0,223,224
 0 2710 0 2710 0 2816 c 0,225,226
 0 2921 0 2921 74 2997 c 0,227,228
 150 3072 150 3072 256 3072 c 0,229,230
 361 3072 361 3072 437 2997 c 0,231,232
 512 2921 512 2921 512 2816 c 0,233,234
 512 2710 512 2710 437 2634 c 0,235,236
 361 2560 361 2560 256 2560 c 1,237,-1
 256 2560 l 1,221,222
2304 2560 m 1,238,239
 2198 2560 2198 2560 2122 2634 c 0,240,241
 2048 2710 2048 2710 2048 2816 c 0,242,243
 2048 2921 2048 2921 2122 2997 c 0,244,245
 2198 3072 2198 3072 2304 3072 c 0,246,247
 2409 3072 2409 3072 2485 2997 c 0,248,249
 2560 2921 2560 2921 2560 2816 c 0,250,251
 2560 2710 2560 2710 2485 2634 c 0,252,253
 2409 2560 2409 2560 2304 2560 c 1,254,-1
 2304 2560 l 1,238,239
256 3072 m 1,255,256
 150 3072 150 3072 74 3146 c 0,257,258
 0 3222 0 3222 0 3328 c 0,259,260
 0 3433 0 3433 74 3509 c 0,261,262
 150 3584 150 3584 256 3584 c 0,263,264
 361 3584 361 3584 437 3509 c 0,265,266
 512 3433 512 3433 512 3328 c 0,267,268
 512 3222 512 3222 437 3146 c 0,269,270
 361 3072 361 3072 256 3072 c 1,271,-1
 256 3072 l 1,255,256
2304 3072 m 1,272,273
 2198 3072 2198 3072 2122 3146 c 0,274,275
 2048 3222 2048 3222 2048 3328 c 0,276,277
 2048 3433 2048 3433 2122 3509 c 0,278,279
 2198 3584 2198 3584 2304 3584 c 0,280,281
 2409 3584 2409 3584 2485 3509 c 0,282,283
 2560 3433 2560 3433 2560 3328 c 0,284,285
 2560 3222 2560 3222 2485 3146 c 0,286,287
 2409 3072 2409 3072 2304 3072 c 1,288,-1
 2304 3072 l 1,272,273
EndSplineSet
Validated: 5
EndChar

StartChar: I
Encoding: 73 73 44
Width: 2048
GlyphClass: 1
Flags: W
LayerCount: 3
Fore
SplineSet
256 0 m 1,0,1
 150 0 150 0 74 74 c 0,2,3
 0 150 0 150 0 256 c 0,4,5
 0 361 0 361 74 437 c 0,6,7
 150 512 150 512 256 512 c 0,8,9
 361 512 361 512 437 437 c 0,10,11
 512 361 512 361 512 256 c 0,12,13
 512 150 512 150 437 74 c 0,14,15
 361 0 361 0 256 0 c 1,16,-1
 256 0 l 1,0,1
768 0 m 1,17,18
 662 0 662 0 586 74 c 0,19,20
 512 150 512 150 512 256 c 0,21,22
 512 361 512 361 586 437 c 0,23,24
 662 512 662 512 768 512 c 0,25,26
 873 512 873 512 949 437 c 0,27,28
 1024 361 1024 361 1024 256 c 0,29,30
 1024 150 1024 150 949 74 c 0,31,32
 873 0 873 0 768 0 c 1,33,-1
 768 0 l 1,17,18
1280 0 m 1,34,35
 1174 0 1174 0 1098 74 c 0,36,37
 1024 150 1024 150 1024 256 c 0,38,39
 1024 361 1024 361 1098 437 c 0,40,41
 1174 512 1174 512 1280 512 c 0,42,43
 1385 512 1385 512 1461 437 c 0,44,45
 1536 361 1536 361 1536 256 c 0,46,47
 1536 150 1536 150 1461 74 c 0,48,49
 1385 0 1385 0 1280 0 c 1,50,-1
 1280 0 l 1,34,35
768 512 m 1,51,52
 662 512 662 512 586 586 c 0,53,54
 512 662 512 662 512 768 c 0,55,56
 512 873 512 873 586 949 c 0,57,58
 662 1024 662 1024 768 1024 c 0,59,60
 873 1024 873 1024 949 949 c 0,61,62
 1024 873 1024 873 1024 768 c 0,63,64
 1024 662 1024 662 949 586 c 0,65,66
 873 512 873 512 768 512 c 1,67,-1
 768 512 l 1,51,52
768 1024 m 1,68,69
 662 1024 662 1024 586 1098 c 0,70,71
 512 1174 512 1174 512 1280 c 0,72,73
 512 1385 512 1385 586 1461 c 0,74,75
 662 1536 662 1536 768 1536 c 0,76,77
 873 1536 873 1536 949 1461 c 0,78,79
 1024 1385 1024 1385 1024 1280 c 0,80,81
 1024 1174 1024 1174 949 1098 c 0,82,83
 873 1024 873 1024 768 1024 c 1,84,-1
 768 1024 l 1,68,69
768 1536 m 1,85,86
 662 1536 662 1536 586 1610 c 0,87,88
 512 1686 512 1686 512 1792 c 0,89,90
 512 1897 512 1897 586 1973 c 0,91,92
 662 2048 662 2048 768 2048 c 0,93,94
 873 2048 873 2048 949 1973 c 0,95,96
 1024 1897 1024 1897 1024 1792 c 0,97,98
 1024 1686 1024 1686 949 1610 c 0,99,100
 873 1536 873 1536 768 1536 c 1,101,-1
 768 1536 l 1,85,86
768 2048 m 1,102,103
 662 2048 662 2048 586 2122 c 0,104,105
 512 2198 512 2198 512 2304 c 0,106,107
 512 2409 512 2409 586 2485 c 0,108,109
 662 2560 662 2560 768 2560 c 0,110,111
 873 2560 873 2560 949 2485 c 0,112,113
 1024 2409 1024 2409 1024 2304 c 0,114,115
 1024 2198 1024 2198 949 2122 c 0,116,117
 873 2048 873 2048 768 2048 c 1,118,-1
 768 2048 l 1,102,103
768 2560 m 1,119,120
 662 2560 662 2560 586 2634 c 0,121,122
 512 2710 512 2710 512 2816 c 0,123,124
 512 2921 512 2921 586 2997 c 0,125,126
 662 3072 662 3072 768 3072 c 0,127,128
 873 3072 873 3072 949 2997 c 0,129,130
 1024 2921 1024 2921 1024 2816 c 0,131,132
 1024 2710 1024 2710 949 2634 c 0,133,134
 873 2560 873 2560 768 2560 c 1,135,-1
 768 2560 l 1,119,120
256 3072 m 1,136,137
 150 3072 150 3072 74 3146 c 0,138,139
 0 3222 0 3222 0 3328 c 0,140,141
 0 3433 0 3433 74 3509 c 0,142,143
 150 3584 150 3584 256 3584 c 0,144,145
 361 3584 361 3584 437 3509 c 0,146,147
 512 3433 512 3433 512 3328 c 0,148,149
 512 3222 512 3222 437 3146 c 0,150,151
 361 3072 361 3072 256 3072 c 1,152,-1
 256 3072 l 1,136,137
768 3072 m 1,153,154
 662 3072 662 3072 586 3146 c 0,155,156
 512 3222 512 3222 512 3328 c 0,157,158
 512 3433 512 3433 586 3509 c 0,159,160
 662 3584 662 3584 768 3584 c 0,161,162
 873 3584 873 3584 949 3509 c 0,163,164
 1024 3433 1024 3433 1024 3328 c 0,165,166
 1024 3222 1024 3222 949 3146 c 0,167,168
 873 3072 873 3072 768 3072 c 1,169,-1
 768 3072 l 1,153,154
1280 3072 m 1,170,171
 1174 3072 1174 3072 1098 3146 c 0,172,173
 1024 3222 1024 3222 1024 3328 c 0,174,175
 1024 3433 1024 3433 1098 3509 c 0,176,177
 1174 3584 1174 3584 1280 3584 c 0,178,179
 1385 3584 1385 3584 1461 3509 c 0,180,181
 1536 3433 1536 3433 1536 3328 c 0,182,183
 1536 3222 1536 3222 1461 3146 c 0,184,185
 1385 3072 1385 3072 1280 3072 c 1,186,-1
 1280 3072 l 1,170,171
EndSplineSet
Validated: 5
EndChar

StartChar: J
Encoding: 74 74 45
Width: 3072
GlyphClass: 1
Flags: W
LayerCount: 3
Fore
SplineSet
768 0 m 1,0,1
 662 0 662 0 586 74 c 0,2,3
 512 150 512 150 512 256 c 0,4,5
 512 361 512 361 586 437 c 0,6,7
 662 512 662 512 768 512 c 0,8,9
 873 512 873 512 949 437 c 0,10,11
 1024 361 1024 361 1024 256 c 0,12,13
 1024 150 1024 150 949 74 c 0,14,15
 873 0 873 0 768 0 c 1,16,-1
 768 0 l 1,0,1
1280 0 m 1,17,18
 1174 0 1174 0 1098 74 c 0,19,20
 1024 150 1024 150 1024 256 c 0,21,22
 1024 361 1024 361 1098 437 c 0,23,24
 1174 512 1174 512 1280 512 c 0,25,26
 1385 512 1385 512 1461 437 c 0,27,28
 1536 361 1536 361 1536 256 c 0,29,30
 1536 150 1536 150 1461 74 c 0,31,32
 1385 0 1385 0 1280 0 c 1,33,-1
 1280 0 l 1,17,18
1792 0 m 1,34,35
 1686 0 1686 0 1610 74 c 0,36,37
 1536 150 1536 150 1536 256 c 0,38,39
 1536 361 1536 361 1610 437 c 0,40,41
 1686 512 1686 512 1792 512 c 0,42,43
 1897 512 1897 512 1973 437 c 0,44,45
 2048 361 2048 361 2048 256 c 0,46,47
 2048 150 2048 150 1973 74 c 0,48,49
 1897 0 1897 0 1792 0 c 1,50,-1
 1792 0 l 1,34,35
256 512 m 1,51,52
 150 512 150 512 74 586 c 0,53,54
 0 662 0 662 0 768 c 0,55,56
 0 873 0 873 74 949 c 0,57,58
 150 1024 150 1024 256 1024 c 0,59,60
 361 1024 361 1024 437 949 c 0,61,62
 512 873 512 873 512 768 c 0,63,64
 512 662 512 662 437 586 c 0,65,66
 361 512 361 512 256 512 c 1,67,-1
 256 512 l 1,51,52
2304 512 m 1,68,69
 2198 512 2198 512 2122 586 c 0,70,71
 2048 662 2048 662 2048 768 c 0,72,73
 2048 873 2048 873 2122 949 c 0,74,75
 2198 1024 2198 1024 2304 1024 c 0,76,77
 2409 1024 2409 1024 2485 949 c 0,78,79
 2560 873 2560 873 2560 768 c 0,80,81
 2560 662 2560 662 2485 586 c 0,82,83
 2409 512 2409 512 2304 512 c 1,84,-1
 2304 512 l 1,68,69
2304 1024 m 1,85,86
 2198 1024 2198 1024 2122 1098 c 0,87,88
 2048 1174 2048 1174 2048 1280 c 0,89,90
 2048 1385 2048 1385 2122 1461 c 0,91,92
 2198 1536 2198 1536 2304 1536 c 0,93,94
 2409 1536 2409 1536 2485 1461 c 0,95,96
 2560 1385 2560 1385 2560 1280 c 0,97,98
 2560 1174 2560 1174 2485 1098 c 0,99,100
 2409 1024 2409 1024 2304 1024 c 1,101,-1
 2304 1024 l 1,85,86
2304 1536 m 1,102,103
 2198 1536 2198 1536 2122 1610 c 0,104,105
 2048 1686 2048 1686 2048 1792 c 0,106,107
 2048 1897 2048 1897 2122 1973 c 0,108,109
 2198 2048 2198 2048 2304 2048 c 0,110,111
 2409 2048 2409 2048 2485 1973 c 0,112,113
 2560 1897 2560 1897 2560 1792 c 0,114,115
 2560 1686 2560 1686 2485 1610 c 0,116,117
 2409 1536 2409 1536 2304 1536 c 1,118,-1
 2304 1536 l 1,102,103
2304 2048 m 1,119,120
 2198 2048 2198 2048 2122 2122 c 0,121,122
 2048 2198 2048 2198 2048 2304 c 0,123,124
 2048 2409 2048 2409 2122 2485 c 0,125,126
 2198 2560 2198 2560 2304 2560 c 0,127,128
 2409 2560 2409 2560 2485 2485 c 0,129,130
 2560 2409 2560 2409 2560 2304 c 0,131,132
 2560 2198 2560 2198 2485 2122 c 0,133,134
 2409 2048 2409 2048 2304 2048 c 1,135,-1
 2304 2048 l 1,119,120
2304 2560 m 1,136,137
 2198 2560 2198 2560 2122 2634 c 0,138,139
 2048 2710 2048 2710 2048 2816 c 0,140,141
 2048 2921 2048 2921 2122 2997 c 0,142,143
 2198 3072 2198 3072 2304 3072 c 0,144,145
 2409 3072 2409 3072 2485 2997 c 0,146,147
 2560 2921 2560 2921 2560 2816 c 0,148,149
 2560 2710 2560 2710 2485 2634 c 0,150,151
 2409 2560 2409 2560 2304 2560 c 1,152,-1
 2304 2560 l 1,136,137
2304 3072 m 1,153,154
 2198 3072 2198 3072 2122 3146 c 0,155,156
 2048 3222 2048 3222 2048 3328 c 0,157,158
 2048 3433 2048 3433 2122 3509 c 0,159,160
 2198 3584 2198 3584 2304 3584 c 0,161,162
 2409 3584 2409 3584 2485 3509 c 0,163,164
 2560 3433 2560 3433 2560 3328 c 0,165,166
 2560 3222 2560 3222 2485 3146 c 0,167,168
 2409 3072 2409 3072 2304 3072 c 1,169,-1
 2304 3072 l 1,153,154
EndSplineSet
Validated: 5
EndChar

StartChar: K
Encoding: 75 75 46
Width: 3072
GlyphClass: 1
Flags: W
LayerCount: 3
Fore
SplineSet
256 0 m 1,0,1
 150 0 150 0 74 74 c 0,2,3
 0 150 0 150 0 256 c 0,4,5
 0 361 0 361 74 437 c 0,6,7
 150 512 150 512 256 512 c 0,8,9
 361 512 361 512 437 437 c 0,10,11
 512 361 512 361 512 256 c 0,12,13
 512 150 512 150 437 74 c 0,14,15
 361 0 361 0 256 0 c 1,16,-1
 256 0 l 1,0,1
2304 0 m 1,17,18
 2198 0 2198 0 2122 74 c 0,19,20
 2048 150 2048 150 2048 256 c 0,21,22
 2048 361 2048 361 2122 437 c 0,23,24
 2198 512 2198 512 2304 512 c 0,25,26
 2409 512 2409 512 2485 437 c 0,27,28
 2560 361 2560 361 2560 256 c 0,29,30
 2560 150 2560 150 2485 74 c 0,31,32
 2409 0 2409 0 2304 0 c 1,33,-1
 2304 0 l 1,17,18
256 512 m 1,34,35
 150 512 150 512 74 586 c 0,36,37
 0 662 0 662 0 768 c 0,38,39
 0 873 0 873 74 949 c 0,40,41
 150 1024 150 1024 256 1024 c 0,42,43
 361 1024 361 1024 437 949 c 0,44,45
 512 873 512 873 512 768 c 0,46,47
 512 662 512 662 437 586 c 0,48,49
 361 512 361 512 256 512 c 1,50,-1
 256 512 l 1,34,35
2304 512 m 1,51,52
 2198 512 2198 512 2122 586 c 0,53,54
 2048 662 2048 662 2048 768 c 0,55,56
 2048 873 2048 873 2122 949 c 0,57,58
 2198 1024 2198 1024 2304 1024 c 0,59,60
 2409 1024 2409 1024 2485 949 c 0,61,62
 2560 873 2560 873 2560 768 c 0,63,64
 2560 662 2560 662 2485 586 c 0,65,66
 2409 512 2409 512 2304 512 c 1,67,-1
 2304 512 l 1,51,52
256 1024 m 1,68,69
 150 1024 150 1024 74 1098 c 0,70,71
 0 1174 0 1174 0 1280 c 0,72,73
 0 1385 0 1385 74 1461 c 0,74,75
 150 1536 150 1536 256 1536 c 0,76,77
 361 1536 361 1536 437 1461 c 0,78,79
 512 1385 512 1385 512 1280 c 0,80,81
 512 1174 512 1174 437 1098 c 0,82,83
 361 1024 361 1024 256 1024 c 1,84,-1
 256 1024 l 1,68,69
2304 1024 m 1,85,86
 2198 1024 2198 1024 2122 1098 c 0,87,88
 2048 1174 2048 1174 2048 1280 c 0,89,90
 2048 1385 2048 1385 2122 1461 c 0,91,92
 2198 1536 2198 1536 2304 1536 c 0,93,94
 2409 1536 2409 1536 2485 1461 c 0,95,96
 2560 1385 2560 1385 2560 1280 c 0,97,98
 2560 1174 2560 1174 2485 1098 c 0,99,100
 2409 1024 2409 1024 2304 1024 c 1,101,-1
 2304 1024 l 1,85,86
256 1536 m 1,102,103
 150 1536 150 1536 74 1610 c 0,104,105
 0 1686 0 1686 0 1792 c 0,106,107
 0 1897 0 1897 74 1973 c 0,108,109
 150 2048 150 2048 256 2048 c 0,110,111
 361 2048 361 2048 437 1973 c 0,112,113
 512 1897 512 1897 512 1792 c 0,114,115
 512 1686 512 1686 437 1610 c 0,116,117
 361 1536 361 1536 256 1536 c 1,118,-1
 256 1536 l 1,102,103
1792 1536 m 1,119,120
 1686 1536 1686 1536 1610 1610 c 0,121,122
 1536 1686 1536 1686 1536 1792 c 0,123,124
 1536 1897 1536 1897 1610 1973 c 0,125,126
 1686 2048 1686 2048 1792 2048 c 0,127,128
 1897 2048 1897 2048 1973 1973 c 0,129,130
 2048 1897 2048 1897 2048 1792 c 0,131,132
 2048 1686 2048 1686 1973 1610 c 0,133,134
 1897 1536 1897 1536 1792 1536 c 1,135,-1
 1792 1536 l 1,119,120
256 2048 m 1,136,137
 150 2048 150 2048 74 2122 c 0,138,139
 0 2198 0 2198 0 2304 c 0,140,141
 0 2409 0 2409 74 2485 c 0,142,143
 150 2560 150 2560 256 2560 c 0,144,145
 361 2560 361 2560 437 2485 c 0,146,147
 512 2409 512 2409 512 2304 c 0,148,149
 512 2198 512 2198 437 2122 c 0,150,151
 361 2048 361 2048 256 2048 c 1,152,-1
 256 2048 l 1,136,137
768 2048 m 1,153,154
 662 2048 662 2048 586 2122 c 0,155,156
 512 2198 512 2198 512 2304 c 0,157,158
 512 2409 512 2409 586 2485 c 0,159,160
 662 2560 662 2560 768 2560 c 0,161,162
 873 2560 873 2560 949 2485 c 0,163,164
 1024 2409 1024 2409 1024 2304 c 0,165,166
 1024 2198 1024 2198 949 2122 c 0,167,168
 873 2048 873 2048 768 2048 c 1,169,-1
 768 2048 l 1,153,154
1280 2048 m 1,170,171
 1174 2048 1174 2048 1098 2122 c 0,172,173
 1024 2198 1024 2198 1024 2304 c 0,174,175
 1024 2409 1024 2409 1098 2485 c 0,176,177
 1174 2560 1174 2560 1280 2560 c 0,178,179
 1385 2560 1385 2560 1461 2485 c 0,180,181
 1536 2409 1536 2409 1536 2304 c 0,182,183
 1536 2198 1536 2198 1461 2122 c 0,184,185
 1385 2048 1385 2048 1280 2048 c 1,186,-1
 1280 2048 l 1,170,171
256 2560 m 1,187,188
 150 2560 150 2560 74 2634 c 0,189,190
 0 2710 0 2710 0 2816 c 0,191,192
 0 2921 0 2921 74 2997 c 0,193,194
 150 3072 150 3072 256 3072 c 0,195,196
 361 3072 361 3072 437 2997 c 0,197,198
 512 2921 512 2921 512 2816 c 0,199,200
 512 2710 512 2710 437 2634 c 0,201,202
 361 2560 361 2560 256 2560 c 1,203,-1
 256 2560 l 1,187,188
1792 2560 m 1,204,205
 1686 2560 1686 2560 1610 2634 c 0,206,207
 1536 2710 1536 2710 1536 2816 c 0,208,209
 1536 2921 1536 2921 1610 2997 c 0,210,211
 1686 3072 1686 3072 1792 3072 c 0,212,213
 1897 3072 1897 3072 1973 2997 c 0,214,215
 2048 2921 2048 2921 2048 2816 c 0,216,217
 2048 2710 2048 2710 1973 2634 c 0,218,219
 1897 2560 1897 2560 1792 2560 c 1,220,-1
 1792 2560 l 1,204,205
256 3072 m 1,221,222
 150 3072 150 3072 74 3146 c 0,223,224
 0 3222 0 3222 0 3328 c 0,225,226
 0 3433 0 3433 74 3509 c 0,227,228
 150 3584 150 3584 256 3584 c 0,229,230
 361 3584 361 3584 437 3509 c 0,231,232
 512 3433 512 3433 512 3328 c 0,233,234
 512 3222 512 3222 437 3146 c 0,235,236
 361 3072 361 3072 256 3072 c 1,237,-1
 256 3072 l 1,221,222
2304 3072 m 1,238,239
 2198 3072 2198 3072 2122 3146 c 0,240,241
 2048 3222 2048 3222 2048 3328 c 0,242,243
 2048 3433 2048 3433 2122 3509 c 0,244,245
 2198 3584 2198 3584 2304 3584 c 0,246,247
 2409 3584 2409 3584 2485 3509 c 0,248,249
 2560 3433 2560 3433 2560 3328 c 0,250,251
 2560 3222 2560 3222 2485 3146 c 0,252,253
 2409 3072 2409 3072 2304 3072 c 1,254,-1
 2304 3072 l 1,238,239
EndSplineSet
Validated: 5
EndChar

StartChar: L
Encoding: 76 76 47
Width: 3072
GlyphClass: 1
Flags: W
LayerCount: 3
Fore
SplineSet
256 0 m 1,0,1
 150 0 150 0 74 74 c 0,2,3
 0 150 0 150 0 256 c 0,4,5
 0 361 0 361 74 437 c 0,6,7
 150 512 150 512 256 512 c 0,8,9
 361 512 361 512 437 437 c 0,10,11
 512 361 512 361 512 256 c 0,12,13
 512 150 512 150 437 74 c 0,14,15
 361 0 361 0 256 0 c 1,16,-1
 256 0 l 1,0,1
768 0 m 1,17,18
 662 0 662 0 586 74 c 0,19,20
 512 150 512 150 512 256 c 0,21,22
 512 361 512 361 586 437 c 0,23,24
 662 512 662 512 768 512 c 0,25,26
 873 512 873 512 949 437 c 0,27,28
 1024 361 1024 361 1024 256 c 0,29,30
 1024 150 1024 150 949 74 c 0,31,32
 873 0 873 0 768 0 c 1,33,-1
 768 0 l 1,17,18
1280 0 m 1,34,35
 1174 0 1174 0 1098 74 c 0,36,37
 1024 150 1024 150 1024 256 c 0,38,39
 1024 361 1024 361 1098 437 c 0,40,41
 1174 512 1174 512 1280 512 c 0,42,43
 1385 512 1385 512 1461 437 c 0,44,45
 1536 361 1536 361 1536 256 c 0,46,47
 1536 150 1536 150 1461 74 c 0,48,49
 1385 0 1385 0 1280 0 c 1,50,-1
 1280 0 l 1,34,35
1792 0 m 1,51,52
 1686 0 1686 0 1610 74 c 0,53,54
 1536 150 1536 150 1536 256 c 0,55,56
 1536 361 1536 361 1610 437 c 0,57,58
 1686 512 1686 512 1792 512 c 0,59,60
 1897 512 1897 512 1973 437 c 0,61,62
 2048 361 2048 361 2048 256 c 0,63,64
 2048 150 2048 150 1973 74 c 0,65,66
 1897 0 1897 0 1792 0 c 1,67,-1
 1792 0 l 1,51,52
2304 0 m 1,68,69
 2198 0 2198 0 2122 74 c 0,70,71
 2048 150 2048 150 2048 256 c 0,72,73
 2048 361 2048 361 2122 437 c 0,74,75
 2198 512 2198 512 2304 512 c 0,76,77
 2409 512 2409 512 2485 437 c 0,78,79
 2560 361 2560 361 2560 256 c 0,80,81
 2560 150 2560 150 2485 74 c 0,82,83
 2409 0 2409 0 2304 0 c 1,84,-1
 2304 0 l 1,68,69
256 512 m 1,85,86
 150 512 150 512 74 586 c 0,87,88
 0 662 0 662 0 768 c 0,89,90
 0 873 0 873 74 949 c 0,91,92
 150 1024 150 1024 256 1024 c 0,93,94
 361 1024 361 1024 437 949 c 0,95,96
 512 873 512 873 512 768 c 0,97,98
 512 662 512 662 437 586 c 0,99,100
 361 512 361 512 256 512 c 1,101,-1
 256 512 l 1,85,86
256 1024 m 1,102,103
 150 1024 150 1024 74 1098 c 0,104,105
 0 1174 0 1174 0 1280 c 0,106,107
 0 1385 0 1385 74 1461 c 0,108,109
 150 1536 150 1536 256 1536 c 0,110,111
 361 1536 361 1536 437 1461 c 0,112,113
 512 1385 512 1385 512 1280 c 0,114,115
 512 1174 512 1174 437 1098 c 0,116,117
 361 1024 361 1024 256 1024 c 1,118,-1
 256 1024 l 1,102,103
256 1536 m 1,119,120
 150 1536 150 1536 74 1610 c 0,121,122
 0 1686 0 1686 0 1792 c 0,123,124
 0 1897 0 1897 74 1973 c 0,125,126
 150 2048 150 2048 256 2048 c 0,127,128
 361 2048 361 2048 437 1973 c 0,129,130
 512 1897 512 1897 512 1792 c 0,131,132
 512 1686 512 1686 437 1610 c 0,133,134
 361 1536 361 1536 256 1536 c 1,135,-1
 256 1536 l 1,119,120
256 2048 m 1,136,137
 150 2048 150 2048 74 2122 c 0,138,139
 0 2198 0 2198 0 2304 c 0,140,141
 0 2409 0 2409 74 2485 c 0,142,143
 150 2560 150 2560 256 2560 c 0,144,145
 361 2560 361 2560 437 2485 c 0,146,147
 512 2409 512 2409 512 2304 c 0,148,149
 512 2198 512 2198 437 2122 c 0,150,151
 361 2048 361 2048 256 2048 c 1,152,-1
 256 2048 l 1,136,137
256 2560 m 1,153,154
 150 2560 150 2560 74 2634 c 0,155,156
 0 2710 0 2710 0 2816 c 0,157,158
 0 2921 0 2921 74 2997 c 0,159,160
 150 3072 150 3072 256 3072 c 0,161,162
 361 3072 361 3072 437 2997 c 0,163,164
 512 2921 512 2921 512 2816 c 0,165,166
 512 2710 512 2710 437 2634 c 0,167,168
 361 2560 361 2560 256 2560 c 1,169,-1
 256 2560 l 1,153,154
256 3072 m 1,170,171
 150 3072 150 3072 74 3146 c 0,172,173
 0 3222 0 3222 0 3328 c 0,174,175
 0 3433 0 3433 74 3509 c 0,176,177
 150 3584 150 3584 256 3584 c 0,178,179
 361 3584 361 3584 437 3509 c 0,180,181
 512 3433 512 3433 512 3328 c 0,182,183
 512 3222 512 3222 437 3146 c 0,184,185
 361 3072 361 3072 256 3072 c 1,186,-1
 256 3072 l 1,170,171
EndSplineSet
Validated: 5
EndChar

StartChar: M
Encoding: 77 77 48
Width: 3072
GlyphClass: 1
Flags: W
LayerCount: 3
Fore
SplineSet
256 0 m 1,0,1
 150 0 150 0 74 74 c 0,2,3
 0 150 0 150 0 256 c 0,4,5
 0 361 0 361 74 437 c 0,6,7
 150 512 150 512 256 512 c 0,8,9
 361 512 361 512 437 437 c 0,10,11
 512 361 512 361 512 256 c 0,12,13
 512 150 512 150 437 74 c 0,14,15
 361 0 361 0 256 0 c 1,16,-1
 256 0 l 1,0,1
2304 0 m 1,17,18
 2198 0 2198 0 2122 74 c 0,19,20
 2048 150 2048 150 2048 256 c 0,21,22
 2048 361 2048 361 2122 437 c 0,23,24
 2198 512 2198 512 2304 512 c 0,25,26
 2409 512 2409 512 2485 437 c 0,27,28
 2560 361 2560 361 2560 256 c 0,29,30
 2560 150 2560 150 2485 74 c 0,31,32
 2409 0 2409 0 2304 0 c 1,33,-1
 2304 0 l 1,17,18
256 512 m 1,34,35
 150 512 150 512 74 586 c 0,36,37
 0 662 0 662 0 768 c 0,38,39
 0 873 0 873 74 949 c 0,40,41
 150 1024 150 1024 256 1024 c 0,42,43
 361 1024 361 1024 437 949 c 0,44,45
 512 873 512 873 512 768 c 0,46,47
 512 662 512 662 437 586 c 0,48,49
 361 512 361 512 256 512 c 1,50,-1
 256 512 l 1,34,35
2304 512 m 1,51,52
 2198 512 2198 512 2122 586 c 0,53,54
 2048 662 2048 662 2048 768 c 0,55,56
 2048 873 2048 873 2122 949 c 0,57,58
 2198 1024 2198 1024 2304 1024 c 0,59,60
 2409 1024 2409 1024 2485 949 c 0,61,62
 2560 873 2560 873 2560 768 c 0,63,64
 2560 662 2560 662 2485 586 c 0,65,66
 2409 512 2409 512 2304 512 c 1,67,-1
 2304 512 l 1,51,52
256 1024 m 1,68,69
 150 1024 150 1024 74 1098 c 0,70,71
 0 1174 0 1174 0 1280 c 0,72,73
 0 1385 0 1385 74 1461 c 0,74,75
 150 1536 150 1536 256 1536 c 0,76,77
 361 1536 361 1536 437 1461 c 0,78,79
 512 1385 512 1385 512 1280 c 0,80,81
 512 1174 512 1174 437 1098 c 0,82,83
 361 1024 361 1024 256 1024 c 1,84,-1
 256 1024 l 1,68,69
2304 1024 m 1,85,86
 2198 1024 2198 1024 2122 1098 c 0,87,88
 2048 1174 2048 1174 2048 1280 c 0,89,90
 2048 1385 2048 1385 2122 1461 c 0,91,92
 2198 1536 2198 1536 2304 1536 c 0,93,94
 2409 1536 2409 1536 2485 1461 c 0,95,96
 2560 1385 2560 1385 2560 1280 c 0,97,98
 2560 1174 2560 1174 2485 1098 c 0,99,100
 2409 1024 2409 1024 2304 1024 c 1,101,-1
 2304 1024 l 1,85,86
256 1536 m 1,102,103
 150 1536 150 1536 74 1610 c 0,104,105
 0 1686 0 1686 0 1792 c 0,106,107
 0 1897 0 1897 74 1973 c 0,108,109
 150 2048 150 2048 256 2048 c 0,110,111
 361 2048 361 2048 437 1973 c 0,112,113
 512 1897 512 1897 512 1792 c 0,114,115
 512 1686 512 1686 437 1610 c 0,116,117
 361 1536 361 1536 256 1536 c 1,118,-1
 256 1536 l 1,102,103
2304 1536 m 1,119,120
 2198 1536 2198 1536 2122 1610 c 0,121,122
 2048 1686 2048 1686 2048 1792 c 0,123,124
 2048 1897 2048 1897 2122 1973 c 0,125,126
 2198 2048 2198 2048 2304 2048 c 0,127,128
 2409 2048 2409 2048 2485 1973 c 0,129,130
 2560 1897 2560 1897 2560 1792 c 0,131,132
 2560 1686 2560 1686 2485 1610 c 0,133,134
 2409 1536 2409 1536 2304 1536 c 1,135,-1
 2304 1536 l 1,119,120
256 2048 m 1,136,137
 150 2048 150 2048 74 2122 c 0,138,139
 0 2198 0 2198 0 2304 c 0,140,141
 0 2409 0 2409 74 2485 c 0,142,143
 150 2560 150 2560 256 2560 c 0,144,145
 361 2560 361 2560 437 2485 c 0,146,147
 512 2409 512 2409 512 2304 c 0,148,149
 512 2198 512 2198 437 2122 c 0,150,151
 361 2048 361 2048 256 2048 c 1,152,-1
 256 2048 l 1,136,137
1280 2048 m 1,153,154
 1174 2048 1174 2048 1098 2122 c 0,155,156
 1024 2198 1024 2198 1024 2304 c 0,157,158
 1024 2409 1024 2409 1098 2485 c 0,159,160
 1174 2560 1174 2560 1280 2560 c 0,161,162
 1385 2560 1385 2560 1461 2485 c 0,163,164
 1536 2409 1536 2409 1536 2304 c 0,165,166
 1536 2198 1536 2198 1461 2122 c 0,167,168
 1385 2048 1385 2048 1280 2048 c 1,169,-1
 1280 2048 l 1,153,154
2304 2048 m 1,170,171
 2198 2048 2198 2048 2122 2122 c 0,172,173
 2048 2198 2048 2198 2048 2304 c 0,174,175
 2048 2409 2048 2409 2122 2485 c 0,176,177
 2198 2560 2198 2560 2304 2560 c 0,178,179
 2409 2560 2409 2560 2485 2485 c 0,180,181
 2560 2409 2560 2409 2560 2304 c 0,182,183
 2560 2198 2560 2198 2485 2122 c 0,184,185
 2409 2048 2409 2048 2304 2048 c 1,186,-1
 2304 2048 l 1,170,171
256 2560 m 1,187,188
 150 2560 150 2560 74 2634 c 0,189,190
 0 2710 0 2710 0 2816 c 0,191,192
 0 2921 0 2921 74 2997 c 0,193,194
 150 3072 150 3072 256 3072 c 0,195,196
 361 3072 361 3072 437 2997 c 0,197,198
 512 2921 512 2921 512 2816 c 0,199,200
 512 2710 512 2710 437 2634 c 0,201,202
 361 2560 361 2560 256 2560 c 1,203,-1
 256 2560 l 1,187,188
768 2560 m 1,204,205
 662 2560 662 2560 586 2634 c 0,206,207
 512 2710 512 2710 512 2816 c 0,208,209
 512 2921 512 2921 586 2997 c 0,210,211
 662 3072 662 3072 768 3072 c 0,212,213
 873 3072 873 3072 949 2997 c 0,214,215
 1024 2921 1024 2921 1024 2816 c 0,216,217
 1024 2710 1024 2710 949 2634 c 0,218,219
 873 2560 873 2560 768 2560 c 1,220,-1
 768 2560 l 1,204,205
1792 2560 m 1,221,222
 1686 2560 1686 2560 1610 2634 c 0,223,224
 1536 2710 1536 2710 1536 2816 c 0,225,226
 1536 2921 1536 2921 1610 2997 c 0,227,228
 1686 3072 1686 3072 1792 3072 c 0,229,230
 1897 3072 1897 3072 1973 2997 c 0,231,232
 2048 2921 2048 2921 2048 2816 c 0,233,234
 2048 2710 2048 2710 1973 2634 c 0,235,236
 1897 2560 1897 2560 1792 2560 c 1,237,-1
 1792 2560 l 1,221,222
2304 2560 m 1,238,239
 2198 2560 2198 2560 2122 2634 c 0,240,241
 2048 2710 2048 2710 2048 2816 c 0,242,243
 2048 2921 2048 2921 2122 2997 c 0,244,245
 2198 3072 2198 3072 2304 3072 c 0,246,247
 2409 3072 2409 3072 2485 2997 c 0,248,249
 2560 2921 2560 2921 2560 2816 c 0,250,251
 2560 2710 2560 2710 2485 2634 c 0,252,253
 2409 2560 2409 2560 2304 2560 c 1,254,-1
 2304 2560 l 1,238,239
256 3072 m 1,255,256
 150 3072 150 3072 74 3146 c 0,257,258
 0 3222 0 3222 0 3328 c 0,259,260
 0 3433 0 3433 74 3509 c 0,261,262
 150 3584 150 3584 256 3584 c 0,263,264
 361 3584 361 3584 437 3509 c 0,265,266
 512 3433 512 3433 512 3328 c 0,267,268
 512 3222 512 3222 437 3146 c 0,269,270
 361 3072 361 3072 256 3072 c 1,271,-1
 256 3072 l 1,255,256
2304 3072 m 1,272,273
 2198 3072 2198 3072 2122 3146 c 0,274,275
 2048 3222 2048 3222 2048 3328 c 0,276,277
 2048 3433 2048 3433 2122 3509 c 0,278,279
 2198 3584 2198 3584 2304 3584 c 0,280,281
 2409 3584 2409 3584 2485 3509 c 0,282,283
 2560 3433 2560 3433 2560 3328 c 0,284,285
 2560 3222 2560 3222 2485 3146 c 0,286,287
 2409 3072 2409 3072 2304 3072 c 1,288,-1
 2304 3072 l 1,272,273
EndSplineSet
Validated: 5
EndChar

